<?xml version="1.0" encoding="UTF-8"?>
<svg width="15px" height="17px" viewBox="0 0 15 17" version="1.1" xmlns="http://www.w3.org/2000/svg" xmlns:xlink="http://www.w3.org/1999/xlink">
    <title>3525618C-7FBB-45D2-8398-4186F07FB7DF</title>
    <g id="Style-Guide" stroke="none" stroke-width="1" fill="none" fill-rule="evenodd">
        <g id="Buttons-and-Icons" transform="translate(-1350.000000, -894.000000)" fill="#000000" fill-rule="nonzero">
            <g id="bottom-nav" transform="translate(731.000000, 881.500000)">
                <g id="Group-37" transform="translate(541.000000, 12.500000)">
                    <g id="Group-23-Copy" transform="translate(79.000000, 0.000000)">
                        <path d="M11.6130338,16.0203629 L1.87995294,16.0203629 C1.31518622,16.0195629 0.773666567,15.8091629 0.374364193,15.4355629 C-0.0250236479,15.0611629 -0.249631233,14.5547629 -0.25031497,14.0259629 L-0.25031497,2.01476291 C-0.249631233,1.48596291 -0.0250236479,0.979562909 0.374364193,0.605162909 C0.773666567,0.231562909 1.31518622,0.0211629091 1.87995294,0.0203629091 L8.26238088,0.0203629091 C8.34613866,0.0203629091 8.42912723,0.0355629091 8.50656044,0.0659629091 C8.58390818,0.0955629091 8.65424762,0.139562909 8.7135618,0.194762909 L13.5557868,4.72756291 C13.6150155,4.78276291 13.6620224,4.84916291 13.6939871,4.92116291 C13.7260373,4.99396291 13.7424473,5.07156291 13.7424473,5.14996291 L13.7424473,14.0251629 C13.7419342,14.5539629 13.5174121,15.0611629 13.1182806,15.4347629 C12.7190637,15.8091629 12.1778005,16.0195629 11.6130338,16.0203629 L11.6130338,16.0203629 Z M1.87995294,1.21476291 C1.65337961,1.21476291 1.43620766,1.29956291 1.27595682,1.44916291 C1.11579144,1.59956291 1.02562363,1.80276291 1.02528176,2.01476291 L1.02528176,14.0259629 C1.02562363,14.2379629 1.11579144,14.4411629 1.27595682,14.5915629 C1.43620766,14.7411629 1.65337961,14.8259629 1.87995294,14.8259629 L11.6130338,14.8259629 C11.839778,14.8259629 12.0571209,14.7419629 12.2174572,14.5915629 C12.3777081,14.4419629 12.4678759,14.2379629 12.4681323,14.0259629 L12.4681323,5.39716291 L7.99871483,1.21476291 L1.87995294,1.21476291 Z" id="Shape"></path>
                        <path d="M13.0941528,5.83854473 L9.68943367,5.83854473 C9.11516044,5.83773191 8.56469219,5.62477247 8.15861759,5.24437165 C7.752543,4.86478365 7.5241369,4.34945433 7.52344186,3.8121788 L7.52344186,0.626728324 C7.52344186,0.465789514 7.591816,0.312166104 7.71336036,0.198370987 C7.83499161,0.0845758685 7.99988882,0.0203629091 8.17182327,0.0203629091 C8.34375772,0.0203629091 8.50865493,0.0845758685 8.63028618,0.198370987 C8.75183054,0.312166104 8.82020468,0.465789514 8.82020468,0.626728324 L8.82020468,3.8121788 C8.82055219,4.02757671 8.91221002,4.23484639 9.07510901,4.38684415 C9.23809488,4.53965474 9.45894246,4.62500108 9.68943367,4.6258139 L13.0941528,4.6258139 C13.2660873,4.6258139 13.4309845,4.68921404 13.5526157,4.80300915 C13.6741601,4.91680427 13.7424473,5.0712405 13.7424473,5.23217931 C13.7424473,5.39311812 13.6741601,5.54755435 13.5526157,5.66134947 C13.4309845,5.77514459 13.2660873,5.83854473 13.0941528,5.83854473 Z" id="Path"></path>
                        <path d="M9.21925713,10.9294538 L4.27296051,10.9294538 C4.10420401,10.9294538 3.94226939,10.8524886 3.82297159,10.7160945 C3.70358852,10.5797004 3.63656345,10.3945942 3.63656345,10.201694 C3.63656345,10.009768 3.70358852,9.82466176 3.82297159,9.68826768 C3.94226939,9.5518736 4.10420401,9.47490836 4.27296051,9.47490836 L9.21925713,9.47490836 C9.38801363,9.47490836 9.54986297,9.5518736 9.66924604,9.68826768 C9.78854385,9.82466176 9.85556891,10.009768 9.85556891,10.201694 C9.85556891,10.3945942 9.78854385,10.5797004 9.66924604,10.7160945 C9.54986297,10.8524886 9.38801363,10.9294538 9.21925713,10.9294538 Z" id="Path"></path>
                        <path d="M6.74611827,13.111272 C6.53996396,13.111272 6.34214334,13.0482477 6.19640819,12.936559 C6.05056886,12.8248703 5.9686905,12.6732929 5.9686905,12.516131 L5.9686905,7.88823123 C5.9686905,7.73027154 6.05056886,7.57869406 6.19640819,7.46700539 C6.34214334,7.35531673 6.53996396,7.29309018 6.74611827,7.29309018 C6.95227257,7.29309018 7.14998902,7.35531673 7.29582835,7.46700539 C7.4415635,7.57869406 7.52344186,7.73027154 7.52344186,7.88823123 L7.52344186,12.516131 C7.52344186,12.6732929 7.4415635,12.8248703 7.29582835,12.936559 C7.14998902,13.0482477 6.95227257,13.111272 6.74611827,13.111272 L6.74611827,13.111272 Z" id="Path"></path>
                    </g>
                </g>
            </g>
        </g>
    </g>
</svg>