<?xml version="1.0" encoding="UTF-8"?>
<svg width="27px" height="28px" viewBox="0 0 27 28" version="1.1" xmlns="http://www.w3.org/2000/svg" xmlns:xlink="http://www.w3.org/1999/xlink">
    <title>4063C69D-21C8-48A3-9A2B-FAD01A1A5C6B</title>
    <g id="Style-Guide" stroke="none" stroke-width="1" fill="none" fill-rule="evenodd">
        <g id="sticky-notes-buttons" transform="translate(-82.000000, -146.000000)" fill="#1269D6" fill-rule="nonzero">
            <g id="Group-2-Copy-6" transform="translate(66.000000, 135.000000)">
                <g id="􀣘" transform="translate(16.945312, 11.538086)">
                    <path d="M5.91845703,13.128418 C6.95914714,13.1359049 7.93806966,13.3380534 8.85522461,13.7348633 C9.77237956,14.1316732 10.5809733,14.6800944 11.2810059,15.380127 C11.9810384,16.0801595 12.5294596,16.8868815 12.9262695,17.800293 C13.3230794,18.7137044 13.5214844,19.6907552 13.5214844,20.7314453 C13.5214844,21.4576823 13.4204102,22.1595866 13.2182617,22.8371582 C13.0161133,23.5147298 12.7278646,24.1417643 12.3535156,24.7182617 L21.8881836,24.7182617 C23.168457,24.7182617 24.1455078,24.3776042 24.8193359,23.6962891 C25.4931641,23.014974 25.8300781,22.0341797 25.8300781,20.7539062 L25.8300781,10.949707 L16.9692383,10.949707 C15.6140951,10.949707 14.9365234,10.2721354 14.9365234,8.91699219 L14.9365234,0 L9.86035156,0 C8.5875651,0 7.61238607,0.340657552 6.93481445,1.02197266 C6.25724284,1.70328776 5.91845703,2.68408203 5.91845703,3.96435547 L5.91845703,13.128418 Z M17.4633789,9.13037109 L25.7290039,9.13037109 C25.706543,8.83837891 25.5904948,8.54825846 25.3808594,8.26000977 C25.171224,7.97176107 24.9016927,7.65917969 24.5722656,7.32226562 L18.5415039,1.23535156 C18.2270508,0.920898438 17.9256999,0.658854167 17.6374512,0.44921875 C17.3492025,0.239583333 17.059082,0.123535156 16.7670898,0.101074219 L16.7670898,8.43408203 C16.7670898,8.89827474 16.9991862,9.13037109 17.4633789,9.13037109 Z M5.91845703,26.6499023 C6.7195638,26.6499023 7.47762044,26.4945475 8.19262695,26.1838379 C8.90763346,25.8731283 9.53841146,25.4463704 10.0849609,24.9035645 C10.6315104,24.3607585 11.0582682,23.7318522 11.3652344,23.0168457 C11.6722005,22.3018392 11.8256836,21.5400391 11.8256836,20.7314453 C11.8256836,19.9228516 11.6722005,19.1610514 11.3652344,18.4460449 C11.0582682,17.7310384 10.6333822,17.1021322 10.0905762,16.5593262 C9.54777018,16.0165202 8.91886393,15.5916341 8.20385742,15.284668 C7.48885091,14.9777018 6.72705078,14.8242188 5.91845703,14.8242188 C5.10986328,14.8242188 4.34806315,14.9777018 3.63305664,15.284668 C2.91805013,15.5916341 2.28914388,16.0183919 1.74633789,16.5649414 C1.2035319,17.1114909 0.776774089,17.7403971 0.466064453,18.4516602 C0.155354818,19.1629232 0,19.9228516 0,20.7314453 C0,21.5400391 0.155354818,22.3018392 0.466064453,23.0168457 C0.776774089,23.7318522 1.2035319,24.3626302 1.74633789,24.9091797 C2.28914388,25.4557292 2.91805013,25.882487 3.63305664,26.1894531 C4.34806315,26.4964193 5.10986328,26.6499023 5.91845703,26.6499023 Z M5.91845703,24.5610352 C5.64892578,24.5610352 5.43180339,24.4786784 5.26708984,24.3139648 C5.1023763,24.1492513 5.02001953,23.9321289 5.02001953,23.6625977 L5.02001953,21.6411133 L2.99853516,21.6411133 C2.73649089,21.6411133 2.52311198,21.5587565 2.35839844,21.394043 C2.1936849,21.2293294 2.10758464,21.012207 2.10009766,20.7426758 C2.10009766,20.4656576 2.18245443,20.2466634 2.34716797,20.0856934 C2.51188151,19.9247233 2.72900391,19.8442383 2.99853516,19.8442383 L5.02001953,19.8442383 L5.02001953,17.8339844 C5.02001953,17.5644531 5.1023763,17.3473307 5.26708984,17.1826172 C5.43180339,17.0179036 5.64892578,16.9355469 5.91845703,16.9355469 C6.18798828,16.9280599 6.40511068,17.0066732 6.56982422,17.1713867 C6.73453776,17.3361003 6.81689453,17.5569661 6.81689453,17.8339844 L6.81689453,19.8442383 L8.83837891,19.8442383 C9.10042318,19.8442383 9.31567383,19.9247233 9.48413086,20.0856934 C9.65258789,20.2466634 9.73681641,20.4656576 9.73681641,20.7426758 C9.73681641,21.012207 9.65258789,21.2293294 9.48413086,21.394043 C9.31567383,21.5587565 9.10042318,21.6411133 8.83837891,21.6411133 L6.81689453,21.6411133 L6.81689453,23.6625977 C6.81689453,23.9321289 6.73453776,24.1492513 6.56982422,24.3139648 C6.40511068,24.4786784 6.18798828,24.5610352 5.91845703,24.5610352 Z" id="Shape"></path>
                </g>
            </g>
        </g>
    </g>
</svg>