<?xml version="1.0" encoding="UTF-8"?>
<svg width="36px" height="36px" viewBox="0 0 36 36" version="1.1" xmlns="http://www.w3.org/2000/svg" xmlns:xlink="http://www.w3.org/1999/xlink">
    <title>2ACBCF2D-36DC-4832-97F2-CB22BF9F35C1</title>
    <g id="Style-Guide" stroke="none" stroke-width="1" fill="none" fill-rule="evenodd">
        <g id="Right-side-Popup/Scroll-bar/Labels" transform="translate(-1311.000000, -542.000000)" fill="#707070" fill-rule="nonzero">
            <g id="Group-36" transform="translate(27.000000, 364.000000)">
                <g id="popup" transform="translate(725.000000, 168.000000)">
                    <path d="M577,10 C572.226141,10 567.648005,11.8965465 564.272059,15.2721848 C560.896481,18.6480435 559,23.2267479 559,28.0000735 C559,32.7733991 560.896407,37.35203 564.272059,40.7279622 C567.647932,44.103527 572.226655,46 577,46 C581.773345,46 586.351995,44.1036004 589.727941,40.7279622 C593.103519,37.3521035 595,32.7733991 595,28.0000735 C595,24.8402891 594.16832,21.7364887 592.588421,19.0000367 C591.008523,16.2635847 588.73639,13.9914612 585.999927,12.411569 C583.263463,10.8316769 580.15965,10 576.999853,10 L577,10 Z M586.270443,35.4441692 C586.513812,35.6855318 586.650709,36.0141323 586.650709,36.3571035 C586.650709,36.7000747 586.513812,37.0286605 586.270443,37.2700378 C586.029079,37.5134062 585.700478,37.6503022 585.357505,37.6503022 C585.014532,37.6503022 584.685945,37.5134062 584.444567,37.2700378 L577.000588,29.8128645 L569.556609,37.2700378 C569.315245,37.5134062 568.986643,37.6503022 568.643671,37.6503022 C568.300698,37.6503022 567.972111,37.5134062 567.730732,37.2700378 C567.487363,37.0286752 567.350467,36.7000747 567.350467,36.3571035 C567.350467,36.0141323 567.487363,35.6855465 567.730732,35.4441692 L575.187936,28.0002204 L567.730732,20.5562717 C567.404709,20.2299634 567.277283,19.7547174 567.396672,19.3092707 C567.516061,18.8635741 567.863897,18.5157246 568.30961,18.3963363 C568.755022,18.2769481 569.230262,18.4043724 569.556616,18.7303956 L577.000595,26.1875689 L584.444574,18.7303956 C584.770884,18.4043739 585.246132,18.2769481 585.69158,18.3963363 C586.137279,18.5157246 586.48513,18.8635594 586.604518,19.3092707 C586.723907,19.7546806 586.596482,20.2299193 586.270458,20.5562717 L578.813254,28.0002204 L586.270443,35.4441692 Z" id="close-icon"></path>
                </g>
            </g>
        </g>
    </g>
</svg>