<?xml version="1.0" encoding="UTF-8"?>
<svg width="23px" height="25px" viewBox="0 0 23 25" version="1.1" xmlns="http://www.w3.org/2000/svg" xmlns:xlink="http://www.w3.org/1999/xlink">
    <title>0CBA1C12-7C7B-4E54-86F4-69FC1C62DF01</title>
    <g id="Style-Guide" stroke="none" stroke-width="1" fill="none" fill-rule="evenodd" stroke-linecap="round" stroke-linejoin="round">
        <g id="Buttons-and-Icons" transform="translate(-273.000000, -117.000000)" stroke="#000000" stroke-width="2">
            <g id="Group-21" transform="translate(275.000000, 118.000000)">
                <polyline id="Path" points="-0.022 4.527999 2.20022222 4.527999 19.978 4.527999"></polyline>
                <path d="M5.19228571,4.427999 L5.19228571,2.227999 C5.19228571,1.644999 5.41803571,1.085099 5.81992857,0.672599 C6.22182143,0.260099 6.76685714,0.027999 7.33514286,0.027999 L11.6208571,0.027999 C12.1891429,0.027999 12.7341786,0.260099 13.1360714,0.672599 C13.5379643,1.085099 13.7637143,1.644999 13.7637143,2.227999 L13.7637143,4.427999 M16.978,4.427999 L16.978,19.827999 C16.978,20.410999 16.75225,20.970899 16.3503571,21.383399 C15.9484643,21.795899 15.4034286,22.027999 14.8351429,22.027999 L4.12085714,22.027999 C3.55257143,22.027999 3.00753571,21.795899 2.60564286,21.383399 C2.20375,20.970899 1.978,20.410999 1.978,19.827999 L1.978,4.427999 L16.978,4.427999 Z" id="Shape"></path>
                <line x1="7.478" y1="10.027999" x2="7.478" y2="17.027999" id="Path"></line>
                <line x1="12.478" y1="10.027999" x2="12.478" y2="17.027999" id="Path"></line>
            </g>
        </g>
    </g>
</svg>