<?xml version="1.0" encoding="UTF-8"?>
<svg width="18px" height="18px" viewBox="0 0 18 18" version="1.1" xmlns="http://www.w3.org/2000/svg" xmlns:xlink="http://www.w3.org/1999/xlink">
    <title>FC5A028A-C530-4E28-B3E6-001086E7D31E</title>
    <g id="Style-Guide" stroke="none" stroke-width="1" fill="none" fill-rule="evenodd" stroke-linecap="round" stroke-linejoin="round">
        <g id="Buttons-and-Icons" transform="translate(-1310.000000, -893.000000)" stroke="#000000" stroke-width="1.5">
            <g id="bottom-nav" transform="translate(731.000000, 881.500000)">
                <g id="Group-37" transform="translate(541.000000, 12.500000)">
                    <g id="Group-22-Copy" transform="translate(39.000000, 0.000000)">
                        <polyline id="Path" points="3.63636364 5.81818182 3.63636364 5.68434189e-14 9.93939394 5.68434189e-14 13.0909091 5.68434189e-14 13.0909091 2.49350649 13.0909091 5.81818182"></polyline>
                        <path d="M3.2,13.0909091 L1.6,13.0909091 C1.17568,13.0909091 0.76872,12.920404 0.46864,12.6173737 C0.16856,12.3143434 5.68434189e-14,11.9030303 5.68434189e-14,11.4747475 L5.68434189e-14,7.43434343 C5.68434189e-14,7.00606061 0.16856,6.59474747 0.46864,6.29171717 C0.76872,5.98868687 1.17568,5.81818182 1.6,5.81818182 L14.4,5.81818182 C14.82432,5.81818182 15.23128,5.98868687 15.53136,6.29171717 C15.83144,6.59474747 16,7.00606061 16,7.43434343 L16,11.4747475 C16,11.9030303 15.83144,12.3143434 15.53136,12.6173737 C15.23128,12.920404 14.82432,13.0909091 14.4,13.0909091 L12.8,13.0909091" id="Path"></path>
                        <polygon id="Path" points="13.0909091 9.45454545 3.63636364 9.45454545 3.63636364 16 13.0909091 16"></polygon>
                    </g>
                </g>
            </g>
        </g>
    </g>
</svg>