<?xml version="1.0" encoding="UTF-8"?>
<svg width="27px" height="26px" viewBox="0 0 27 26" version="1.1" xmlns="http://www.w3.org/2000/svg" xmlns:xlink="http://www.w3.org/1999/xlink">
    <title>FD7E5243-31AE-4F8A-AFBE-EDC9119711A8</title>
    <g id="Style-Guide" stroke="none" stroke-width="1" fill="none" fill-rule="evenodd">
        <g id="sticky-notes-buttons" transform="translate(-88.000000, -220.000000)" fill="#1269D6" fill-rule="nonzero">
            <g id="Group-2-Copy-8" transform="translate(66.000000, 209.000000)">
                <g id="􀎛" transform="translate(22.863770, 11.279785)">
                    <path d="M3.79589844,20.9335938 L3.94189453,20.9335938 L3.94189453,15.0488281 C3.94189453,14.0904948 4.20206706,13.3530273 4.72241211,12.8364258 C5.24275716,12.3198242 5.97835286,12.0615234 6.92919922,12.0615234 L18.9121094,12.0615234 C19.8704427,12.0615234 20.6079102,12.3198242 21.1245117,12.8364258 C21.6411133,13.3530273 21.8994141,14.0904948 21.8994141,15.0488281 L21.8994141,20.9335938 L22.0678711,20.9335938 C23.2882487,20.9335938 24.2259928,20.6097819 24.8811035,19.9621582 C25.5362142,19.3145345 25.8637695,18.3805339 25.8637695,17.1601562 L25.8637695,8.31054688 C25.8637695,7.09016927 25.5362142,6.15616862 24.8811035,5.50854492 C24.2259928,4.86092122 23.2882487,4.53710938 22.0678711,4.53710938 L3.79589844,4.53710938 C2.61295573,4.53710938 1.68457031,4.86092122 1.01074219,5.50854492 C0.336914062,6.15616862 0,7.09016927 0,8.31054688 L0,17.1601562 C0,18.3805339 0.329427083,19.3145345 0.98828125,19.9621582 C1.64713542,20.6097819 2.58300781,20.9335938 3.79589844,20.9335938 Z M4.73925781,2.74023438 L21.1357422,2.74023438 L21.1357422,2.61669922 C21.1357422,2.03271484 20.9822591,1.5460612 20.675293,1.15673828 C20.3683268,0.767415365 19.9527995,0.477294922 19.4287109,0.286376953 C18.9046224,0.0954589844 18.313151,0 17.6542969,0 L8.20947266,0 C7.57307943,0 6.9909668,0.0954589844 6.46313477,0.286376953 C5.93530273,0.477294922 5.5160319,0.767415365 5.20532227,1.15673828 C4.89461263,1.5460612 4.73925781,2.03271484 4.73925781,2.61669922 L4.73925781,2.74023438 Z M5.77246094,23.71875 C5.77246094,24.1829427 5.9128418,24.5572917 6.19360352,24.8417969 C6.47436523,25.1263021 6.84684245,25.2685547 7.31103516,25.2685547 L18.5302734,25.2685547 C18.9944661,25.2685547 19.3688151,25.1263021 19.6533203,24.8417969 C19.9378255,24.5572917 20.0800781,24.1829427 20.0800781,23.71875 L20.0800781,15.0488281 C20.0800781,14.6969401 19.9733887,14.4143066 19.7600098,14.2009277 C19.5466309,13.9875488 19.2639974,13.8808594 18.9121094,13.8808594 L6.92919922,13.8808594 C6.58479818,13.8808594 6.3059082,13.9875488 6.0925293,14.2009277 C5.87915039,14.4143066 5.77246094,14.6969401 5.77246094,15.0488281 L5.77246094,23.71875 Z M9.68066406,18.519043 C9.42610677,18.519043 9.21085612,18.431071 9.03491211,18.255127 C8.8589681,18.0791829 8.77099609,17.8639323 8.77099609,17.609375 C8.77099609,17.3623047 8.85709635,17.154541 9.02929688,16.986084 C9.2014974,16.817627 9.41861979,16.7333984 9.68066406,16.7333984 L16.2167969,16.7333984 C16.4713542,16.7333984 16.6847331,16.817627 16.8569336,16.986084 C17.0291341,17.154541 17.1152344,17.3623047 17.1152344,17.609375 C17.1152344,17.8639323 17.0291341,18.0791829 16.8569336,18.255127 C16.6847331,18.431071 16.4713542,18.519043 16.2167969,18.519043 L9.68066406,18.519043 Z M9.68066406,22.4272461 C9.41861979,22.4272461 9.2014974,22.3411458 9.02929688,22.1689453 C8.85709635,21.9967448 8.77099609,21.7871094 8.77099609,21.5400391 C8.77099609,21.2854818 8.8589681,21.0702311 9.03491211,20.8942871 C9.21085612,20.7183431 9.42610677,20.6303711 9.68066406,20.6303711 L16.2167969,20.6303711 C16.4713542,20.6303711 16.6847331,20.7183431 16.8569336,20.8942871 C17.0291341,21.0702311 17.1152344,21.2854818 17.1152344,21.5400391 C17.1152344,21.7871094 17.0291341,21.9967448 16.8569336,22.1689453 C16.6847331,22.3411458 16.4713542,22.4272461 16.2167969,22.4272461 L9.68066406,22.4272461 Z M18.1035156,8.72607422 C18.1035156,8.29931641 18.2607422,7.93058268 18.5751953,7.61987305 C18.8896484,7.30916341 19.2639974,7.15380859 19.6982422,7.15380859 C20.117513,7.15380859 20.4825033,7.30916341 20.7932129,7.61987305 C21.1039225,7.93058268 21.2592773,8.29931641 21.2592773,8.72607422 C21.2592773,9.16031901 21.1039225,9.52905273 20.7932129,9.83227539 C20.4825033,10.135498 20.117513,10.2871094 19.6982422,10.2871094 C19.2565104,10.2945964 18.8802897,10.1448568 18.5695801,9.83789062 C18.2588704,9.53092448 18.1035156,9.16031901 18.1035156,8.72607422 Z" id="Shape"></path>
                </g>
            </g>
        </g>
    </g>
</svg>