<?xml version="1.0" encoding="UTF-8"?>
<svg width="28px" height="28px" viewBox="0 0 28 28" version="1.1" xmlns="http://www.w3.org/2000/svg" xmlns:xlink="http://www.w3.org/1999/xlink">
    <title>9D75B26D-C51E-4661-A6B7-E7E9785BAAAF</title>
    <g id="Style-Guide" stroke="none" stroke-width="1" fill="none" fill-rule="evenodd">
        <g id="sticky-notes-buttons" transform="translate(-88.000000, -294.000000)" fill="#333333" fill-rule="nonzero">
            <g id="Group-2-Copy-14" transform="translate(66.000000, 285.000000)">
                <g id="􀚂" transform="translate(22.272461, 9.440430)">
                    <path d="M13.40625,26.8251953 C15.2513021,26.8251953 16.9820964,26.4760742 18.5986328,25.777832 C20.2151693,25.0795898 21.6391602,24.1126302 22.8706055,22.8769531 C24.1020508,21.641276 25.0690104,20.2151693 25.7714844,18.5986328 C26.4739583,16.9820964 26.8251953,15.2513021 26.8251953,13.40625 C26.8251953,11.5696615 26.4739583,9.84309896 25.7714844,8.2265625 C25.0690104,6.61002604 24.1020508,5.18391927 22.8706055,3.94824219 C21.6391602,2.7125651 20.2130534,1.74560547 18.5922852,1.04736328 C16.9715169,0.349121094 15.2428385,0 13.40625,0 C11.5696615,0 9.84098307,0.349121094 8.22021484,1.04736328 C6.59944661,1.74560547 5.17333984,2.7125651 3.94189453,3.94824219 C2.71044922,5.18391927 1.74560547,6.61002604 1.04736328,8.2265625 C0.349121094,9.84309896 0,11.5696615 0,13.40625 C0,15.2513021 0.349121094,16.9820964 1.04736328,18.5986328 C1.74560547,20.2151693 2.7125651,21.641276 3.94824219,22.8769531 C5.18391927,24.1126302 6.61002604,25.0795898 8.2265625,25.777832 C9.84309896,26.4760742 11.5696615,26.8251953 13.40625,26.8251953 Z M7.54101562,14.0029297 C7.54101562,12.9957682 7.77376302,12.0690104 8.23925781,11.2226562 C8.7047526,10.3763021 9.32470703,9.68863932 10.0991211,9.15966797 C10.8735352,8.63069661 11.7220052,8.328125 12.6445312,8.25195312 C12.6953125,8.24348958 12.7460938,8.23925781 12.796875,8.23925781 C12.8476562,8.23925781 12.8942057,8.23925781 12.9365234,8.23925781 L12.4160156,7.69335938 C12.3483073,7.60026042 12.2869466,7.49658203 12.2319336,7.38232422 C12.1769206,7.26806641 12.1494141,7.13053385 12.1494141,6.96972656 C12.1494141,6.71582031 12.2446289,6.48307292 12.4350586,6.27148438 C12.6254883,6.05989583 12.8857422,5.95410156 13.2158203,5.95410156 C13.3766276,5.95410156 13.5268555,5.9921875 13.6665039,6.06835938 C13.8061523,6.14453125 13.9267578,6.23339844 14.0283203,6.33496094 L16.4023438,8.734375 C16.6054688,8.94596354 16.7091471,9.20621745 16.7133789,9.51513672 C16.7176107,9.82405599 16.6097005,10.0843099 16.3896484,10.2958984 L14.015625,12.6826172 C13.8040365,12.9026693 13.5458984,13.0126953 13.2412109,13.0126953 C12.9365234,13.0126953 12.6805013,12.9174805 12.4731445,12.7270508 C12.2657878,12.5366211 12.1621094,12.2763672 12.1621094,11.9462891 C12.1621094,11.7008464 12.2255859,11.5019531 12.3525391,11.3496094 L13.0380859,10.6259766 C12.9280599,10.6513672 12.8011068,10.672526 12.6572266,10.6894531 C12.132487,10.7402344 11.6606445,10.9222005 11.2416992,11.2353516 C10.8227539,11.5485026 10.4905599,11.9484049 10.2451172,12.4350586 C9.99967448,12.9217122 9.87695312,13.4527995 9.87695312,14.0283203 C9.87695312,14.680013 10.0356445,15.2745768 10.3530273,15.8120117 C10.6704102,16.3494466 11.0957031,16.7789714 11.6289062,17.1005859 C12.1621094,17.4222005 12.7587891,17.5830078 13.4189453,17.5830078 C14.070638,17.5830078 14.6652018,17.4222005 15.2026367,17.1005859 C15.7400716,16.7789714 16.1674805,16.3515625 16.4848633,15.8183594 C16.8022461,15.2851562 16.9609375,14.6884766 16.9609375,14.0283203 C16.9609375,13.7067057 17.0751953,13.4337565 17.3037109,13.2094727 C17.5322266,12.9851888 17.8072917,12.8730469 18.1289062,12.8730469 C18.4420573,12.8730469 18.7128906,12.9851888 18.9414062,13.2094727 C19.1699219,13.4337565 19.2841797,13.7067057 19.2841797,14.0283203 C19.2841797,15.1031901 19.019694,16.0870768 18.4907227,16.9799805 C17.9617513,17.8728841 17.2529297,18.5859375 16.3642578,19.1191406 C15.4755859,19.6523438 14.4938151,19.9189453 13.4189453,19.9189453 C12.335612,19.9189453 11.3496094,19.6523438 10.4609375,19.1191406 C9.57226562,18.5859375 8.86344401,17.8707682 8.33447266,16.9736328 C7.8055013,16.0764974 7.54101562,15.086263 7.54101562,14.0029297 Z" id="Shape"></path>
                </g>
            </g>
        </g>
    </g>
</svg>