<?xml version="1.0" encoding="UTF-8"?>
<svg width="8px" height="26px" viewBox="0 0 8 26" version="1.1" xmlns="http://www.w3.org/2000/svg" xmlns:xlink="http://www.w3.org/1999/xlink">
    <title>C99C8621-E37A-402F-B992-09D7A8842618</title>
    <g id="SAVVAS-Spanish-Version" stroke="none" stroke-width="1" fill="none" fill-rule="evenodd">
        <g id="HELP-PORTRAIT-SPANISH" transform="translate(-737.000000, -22.000000)" fill-rule="nonzero" stroke="#FFFFFF">
            <g id="Group-2" transform="translate(738.000000, 23.000000)">
                <path d="M6,3 C6,4.65679338 4.65679338,6 3,6 C1.34320662,6 0,4.65679338 0,3 C0,1.34320662 1.34320662,0 3,0 C4.65679338,0 6,1.34320662 6,3" id="Path"></path>
                <path d="M6,12 C6,13.6567934 4.65679338,15 3,15 C1.34320662,15 0,13.6567934 0,12 C0,10.3432066 1.34320662,9 3,9 C4.65679338,9 6,10.3432066 6,12" id="Path"></path>
                <path d="M6,21 C6,22.6567934 4.65679338,24 3,24 C1.34320662,24 0,22.6567934 0,21 C0,19.3432066 1.34320662,18 3,18 C4.65679338,18 6,19.3432066 6,21" id="Path"></path>
            </g>
        </g>
    </g>
</svg>