<?xml version="1.0" encoding="UTF-8"?>
<svg height="100%" width="100%" xmlns="http://www.w3.org/2000/svg">
	<defs>
		<font horiz-adv-x="286" id="web">
			<font-face alphabetic="0" ascent="988" descent="-272" font-family="" panose-1="2 11 6 3 4 0 0 2 0 4"/>
			<missing-glyph d="M70 730H434V0H70ZM137 668V63H366V668Z" horiz-adv-x="504"/>
			<glyph d="" horiz-adv-x="297" unicode=" "/>
			<glyph d="M140 719H199Q225 719 225 693L223 630L212 228Q212 201 186 201H153Q127 201 127 228L116 630L114 693Q114 719 140 719ZM169 123Q198 123 217 103T237 55Q237 27 217 7T169 -12Q141 -12 121 7T102 55Q102 84 121 103T169 123Z" horiz-adv-x="339" unicode="!"/>
			<glyph d="M115 719H167Q193 719 193 693L191 630L187 510Q187 483 161 483H121Q95 483 95 510L91 630L89 693Q89 719 115 719ZM311 719H363Q389 719 389 693L387 630L383 510Q383 483 357 483H317Q291 483 291 510L287 630L285 693Q285 719 311 719Z" horiz-adv-x="475" unicode="&quot;"/>
			<glyph d="M296 719H336Q356 719 356 701Q356 693 354 681L328 505H443L472 701Q473 711 479 715T497 719H537Q557 719 557 701Q557 693 555 681L529 505H638Q664 505 664 476V453Q664 424 638 424H517L498 294H608Q633 294 633 265V242Q633 213 608 213H486L458 18Q457 8 451 4T433 0H393Q373 0 373 18Q373 26 375 38L400 213H285L257 18Q256 8 250 4T232 0H192Q172 0 172 18Q172 26 174 38L199 213H91Q65 213 65 242V265Q65 294 91 294H211L230 424H121Q96 424 96 453V476Q96 505 121 505H242L271 701Q272 711 278 715T296 719ZM316 424L297 294H412L431 424Z" horiz-adv-x="729" unicode="#"/>
			<glyph d="M277 823H314Q338 823 338 794V730Q370 728 407 720T473 702Q485 697 489 693T494 682Q494 676 493 672L481 623Q478 607 468 607Q461 607 443 613T401 627Q378 634 338 637V411Q414 378 455 347T512 280T529 196Q529 112 475 63T338 -3V-70Q338 -99 314 -99H277Q251 -99 251 -70V-12Q207 -10 165 -2T93 20Q80 26 74 33T70 52L77 105Q78 113 82 117T94 122Q101 122 116 115T155 100Q200 85 251 82V335Q181 364 141 392T83 455T65 538Q65 617 115 664T251 725V794Q251 823 277 823ZM251 634Q208 626 187 602T166 543Q166 513 183 492T251 448ZM338 299V87Q379 98 403 125T428 192Q428 227 409 251T338 299Z" horiz-adv-x="594" unicode="$"/>
			<glyph d="M655 741H686Q703 741 703 728Q703 721 697 711L278 -5Q272 -15 264 -19T245 -23H214Q197 -23 197 -10Q197 -4 203 7L622 723Q628 733 635 737T655 741ZM214 731Q292 731 329 676T366 524Q366 430 330 374T214 318Q133 318 98 375T63 524Q63 618 100 674T214 731ZM214 661Q180 661 162 624T145 523Q145 459 163 423T214 388Q249 388 266 423T284 523Q284 588 266 624T214 661ZM686 400Q764 400 800 345T837 194Q837 99 801 43T686 -13Q607 -13 570 44T534 194Q534 287 571 343T686 400ZM686 330Q651 330 633 294T616 195Q616 130 633 93T686 57Q720 57 737 93T755 195Q755 259 737 294T686 330Z" horiz-adv-x="900" unicode="%"/>
			<glyph d="M351 731Q427 731 477 690T528 571Q528 525 507 491T453 432T371 381L517 212Q550 283 550 360Q550 388 578 388H613Q628 388 634 380T641 354Q641 298 625 242T580 139L675 30Q683 20 683 14Q683 7 678 3T665 0H602Q577 0 558 22L520 66Q434 -12 311 -12Q242 -12 190 13T111 83T83 189Q83 264 124 311T240 396Q168 484 168 562Q168 639 219 685T351 731ZM347 651Q309 651 285 627T261 560Q261 533 277 503T323 437Q378 465 407 493T436 564Q436 604 413 627T347 651ZM290 337Q240 307 213 273T186 194Q186 137 224 104T327 72Q405 72 464 133Z" horiz-adv-x="744" unicode="&amp;"/>
			<glyph d="M115 719H167Q193 719 193 693L191 630L187 510Q187 483 161 483H121Q95 483 95 510L91 630L89 693Q89 719 115 719Z" horiz-adv-x="279" unicode="'"/>
			<glyph d="M292 770H323Q331 770 335 765T339 753Q339 744 333 735Q272 646 233 532T194 309Q194 200 233 86T333 -117Q339 -126 339 -135Q339 -142 335 -147T323 -152H292Q278 -152 267 -147T245 -128Q182 -46 138 65T95 309Q95 441 138 552T245 746Q257 761 267 765T292 770Z" horiz-adv-x="371" unicode="("/>
			<glyph d="M48 770H79Q93 770 103 765T126 746Q189 664 232 552T276 309Q276 177 232 65T126 -128Q114 -143 103 -147T79 -152H48Q40 -152 36 -147T32 -135Q32 -126 38 -117Q99 -28 138 86T177 309Q177 418 138 532T38 735Q32 744 32 753Q32 760 36 765T48 770Z" horiz-adv-x="371" unicode=")"/>
			<glyph d="M228 719H264Q288 719 288 697Q288 687 286 669L274 560L403 612Q409 615 415 615Q428 615 434 596L445 563Q447 555 447 552Q447 535 426 530L294 503L384 403Q391 396 391 386Q391 374 379 366L350 346Q342 341 335 341Q323 341 314 355L246 468L178 355Q169 341 157 341Q150 341 142 346L113 366Q101 374 101 386Q101 396 108 403L198 503L66 530Q45 535 45 552Q45 555 47 563L58 596Q64 615 77 615Q83 615 89 612L218 560L206 669Q204 687 204 697Q204 719 228 719Z" horiz-adv-x="492" unicode="*"/>
			<glyph d="M285 596H313Q342 596 342 572V387H527Q551 387 551 358V330Q551 301 527 301H342V118Q342 92 313 92H285Q256 92 256 118V301H73Q47 301 47 330V358Q47 387 73 387H256V572Q256 596 285 596Z" horiz-adv-x="598" unicode="+"/>
			<glyph d="M149 123Q177 123 197 102T218 44Q218 1 191 -39T126 -101Q114 -107 108 -107Q104 -107 101 -104T98 -98Q98 -92 104 -84Q137 -42 143 -12Q118 -10 100 9T82 55Q82 83 101 103T149 123Z" horiz-adv-x="297" unicode=","/>
			<glyph d="M78 312H288Q312 312 312 283V255Q312 226 288 226H77Q53 226 53 255V283Q53 312 78 312Z" horiz-adv-x="367" unicode="-"/>
			<glyph d="M149 123Q178 123 197 103T217 55Q217 27 197 7T149 -12Q120 -12 101 7T82 55Q82 84 101 103T149 123Z" horiz-adv-x="297" unicode="."/>
			<glyph d="M264 731H299Q320 731 320 714Q320 707 314 689L89 12Q81 -12 59 -12H24Q3 -12 3 5Q3 12 9 30L234 707Q242 731 264 731Z" horiz-adv-x="322" unicode="/"/>
			<glyph d="M297 731Q421 731 480 631T540 359Q540 189 481 88T297 -12Q170 -12 112 89T54 359Q54 527 113 629T297 731ZM297 640Q227 640 192 566T157 359Q157 227 192 153T297 79Q367 79 402 153T437 359Q437 492 402 566T297 640Z" horiz-adv-x="594" unicode="0"/>
			<glyph d="M315 719H352Q378 719 378 690V29Q378 0 353 0H305Q279 0 279 29V613L175 540Q163 531 156 531Q147 531 138 543L119 567Q114 575 114 581Q114 594 129 604L286 710Q299 719 315 719Z" horiz-adv-x="594" unicode="1"/>
			<glyph d="M273 731Q378 731 441 676T505 522Q505 461 479 407T403 294Q365 249 324 210T196 93H491Q516 93 516 64V29Q516 0 491 0H87Q62 0 62 29V64Q62 97 89 121Q91 123 147 173Q197 217 226 244T283 303Q321 347 343 376T379 439T393 513Q393 574 354 605T253 636Q217 636 191 630T135 615Q110 606 101 606Q90 606 89 622L86 672V678Q86 688 89 693T103 702Q132 715 181 723T273 731Z" horiz-adv-x="594" unicode="2"/>
			<glyph d="M264 731Q368 731 432 684T496 541Q496 474 453 429T343 372Q418 359 461 317T504 192Q504 87 422 37T222 -12Q139 -12 83 11Q71 16 68 21T65 33L71 89Q72 97 76 101T86 105Q95 105 115 96Q138 85 161 78T221 72Q299 72 350 102T402 196Q402 261 356 294T229 327L182 326Q154 326 154 353V387Q154 414 183 414L223 413Q291 413 340 441T390 534Q390 590 351 615T252 641Q219 641 193 634T139 616T102 604Q91 604 90 620L85 668V674Q85 684 88 688T102 698Q134 713 178 722T264 731Z" horiz-adv-x="594" unicode="3"/>
			<glyph d="M99 719H147Q172 719 172 690L160 370H374V690Q374 719 400 719H448Q473 719 473 690V370H522Q547 370 547 341V308Q547 279 522 279H473V29Q473 0 448 0H400Q374 0 374 29V279H84Q71 279 65 284T59 305L73 690Q74 705 80 712T99 719Z" horiz-adv-x="594" unicode="4"/>
			<glyph d="M127 719H466Q491 719 491 690V655Q491 626 466 626H200L196 441Q239 452 286 452Q351 452 404 426T487 350T518 230Q518 155 482 100T385 16T243 -12Q160 -12 104 11Q93 16 89 22T86 35L90 89Q91 105 105 105Q115 105 135 95Q161 84 182 78T237 72Q316 72 363 111T411 221Q411 295 364 332T237 369Q194 369 152 358Q130 352 121 352Q108 352 102 359T97 384L102 690Q102 719 127 719Z" horiz-adv-x="594" unicode="5"/>
			<glyph d="M356 731Q427 731 479 711Q490 706 493 700T496 681L491 633Q490 617 479 617Q471 617 461 620T448 625Q428 633 409 638T363 643Q295 643 250 605T184 509T162 385Q229 452 321 452Q385 452 434 425T510 348T538 226Q538 158 510 104T430 19T307 -12Q187 -12 124 78T61 365Q61 468 96 551T198 683T356 731ZM314 368Q253 368 216 326T180 221Q180 158 213 115T307 72Q368 72 401 115T434 224Q434 282 402 325T314 368Z" horiz-adv-x="594" unicode="6"/>
			<glyph d="M94 719H490Q515 719 515 690V668Q515 645 507 627L257 26Q251 11 242 5T218 0H161Q142 0 142 16Q142 20 144 26L403 626H94Q69 626 69 655V690Q69 719 94 719Z" horiz-adv-x="594" unicode="7"/>
			<glyph d="M300 731Q355 731 406 712T489 656T522 564Q522 501 491 459T395 385V383Q462 358 503 312T545 198Q545 130 511 82T421 11T295 -12Q228 -12 172 10T82 77T49 189Q49 255 91 304T202 378V380Q67 428 67 559Q67 615 100 654T187 712T300 731ZM292 645Q245 645 207 620T170 551Q170 508 210 476T318 414Q354 441 370 456T400 494T413 549Q413 597 377 621T292 645ZM278 340Q235 314 213 298T175 256T159 195Q159 137 200 105T303 74Q360 74 397 106T435 191Q435 232 416 257T368 298T278 340Z" horiz-adv-x="594" unicode="8"/>
			<glyph d="M287 731Q407 731 470 640T533 354Q533 251 497 167T395 36T238 -12Q167 -12 115 8Q104 13 100 19T98 38L103 86Q104 102 115 102Q123 102 143 93T184 80T231 76Q299 76 344 113T410 209T432 334Q365 267 273 267Q209 267 160 293T83 371T56 493Q56 561 84 615T164 700T287 731ZM287 647Q226 647 193 603T160 495Q160 437 192 394T280 351Q341 351 377 392T414 498Q414 561 380 604T287 647Z" horiz-adv-x="594" unicode="9"/>
			<glyph d="M149 522Q178 522 197 502T217 454Q217 426 197 406T149 387Q121 387 101 406T82 454Q82 483 101 502T149 522ZM149 123Q178 123 197 103T217 55Q217 27 197 7T149 -12Q121 -12 101 7T82 55Q82 84 101 103T149 123Z" horiz-adv-x="297" unicode=":"/>
			<glyph d="M149 522Q178 522 197 502T217 454Q217 426 197 406T149 387Q121 387 101 406T82 454Q82 483 101 502T149 522ZM149 123Q176 123 197 103T218 44Q218 1 191 -40T126 -101Q114 -107 108 -107Q104 -107 101 -104T98 -98Q98 -92 104 -84Q137 -42 143 -12Q117 -10 99 9T82 55Q82 84 101 103T149 123Z" horiz-adv-x="297" unicode=";"/>
			<glyph d="M577 602Q592 602 592 578V554Q592 531 586 523T558 506L188 347L558 188Q581 178 586 170T592 140V116Q592 92 577 92Q567 92 549 100L109 291Q86 301 80 308T75 337V362Q75 380 81 387T109 403L549 594Q567 602 577 602Z" horiz-adv-x="667" unicode="&lt;"/>
			<glyph d="M76 494H542Q566 494 566 465V437Q566 408 542 408H76Q50 408 50 437V465Q50 494 76 494ZM76 282H542Q566 282 566 253V225Q566 196 542 196H76Q50 196 50 225V253Q50 282 76 282Z" horiz-adv-x="618" unicode="="/>
			<glyph d="M90 602Q100 602 118 594L558 403Q580 394 586 387T592 362V337Q592 316 586 308T558 291L118 100Q100 92 90 92Q75 92 75 116V140Q75 163 80 170T109 188L479 347L109 506Q86 516 80 523T75 554V578Q75 602 90 602Z" horiz-adv-x="667" unicode="&gt;"/>
			<glyph d="M248 731Q332 731 385 685T438 560Q438 491 403 442T302 338Q289 327 283 316T278 293V231Q278 216 272 209T253 203H210Q184 203 184 232V316Q184 351 207 372Q218 383 244 405Q290 445 314 476T338 547Q338 591 310 614T232 638Q198 638 171 631T117 615Q90 606 82 606Q71 606 70 622L67 672V678Q67 688 70 693T84 702Q114 715 160 723T248 731ZM230 123Q259 123 278 103T298 55Q298 27 278 7T230 -12Q202 -12 182 7T163 55Q163 84 182 103T230 123Z" horiz-adv-x="506" unicode="?"/>
			<glyph d="M445 730Q535 730 613 692T739 585T786 424Q786 352 754 291T669 196T549 162Q522 162 504 174T483 214H480Q461 186 434 174T378 162Q341 162 310 181T262 234T244 311Q244 365 268 418T337 507T440 542Q506 542 542 481H546L552 503Q559 529 576 529H598Q618 529 618 512Q618 508 616 498L562 288Q558 275 558 260Q558 234 580 234Q620 234 651 260T700 327T718 408Q718 484 682 540T585 627T445 657Q361 657 292 618T184 510T145 356Q145 266 181 200T287 98T454 62Q585 62 674 131Q692 146 701 146Q707 146 713 139L726 122Q733 114 733 106Q733 98 725 90Q676 39 603 13T449 -12Q335 -12 248 33T113 162T65 358Q65 462 112 547T246 681T445 730ZM439 468Q405 468 377 446T335 389T320 320Q320 282 340 259T393 236Q427 236 453 259T493 318T509 388Q509 421 488 444T439 468Z" horiz-adv-x="851" unicode="@"/>
			<glyph d="M331 719H394Q406 719 413 712T426 692L701 27Q704 21 704 15Q704 0 685 0H623Q611 0 604 6T592 25L531 180H183L123 25Q114 0 92 0H38Q20 0 20 15Q20 21 24 29L296 692Q301 706 309 712T331 719ZM356 621L218 269H497L360 621Z" horiz-adv-x="724" unicode="A"/>
			<glyph d="M120 719H281Q536 719 536 538Q536 469 498 427T394 370Q469 360 511 313T554 192Q554 96 483 48T277 0H120Q94 0 94 29V690Q94 719 120 719ZM193 636V412H251Q341 412 389 435T438 529Q438 582 402 609T299 636ZM193 329V84H272Q361 84 405 111T449 200Q449 329 262 329Z" horiz-adv-x="624" unicode="B"/>
			<glyph d="M430 731Q465 731 507 723T579 703Q590 699 593 693T596 673L592 620Q591 604 580 604Q575 604 535 620Q517 627 489 632T433 638Q306 638 231 560Q156 484 156 359Q156 234 236 157Q276 118 323 99T429 80Q470 80 516 90Q538 96 554 102T578 108Q594 108 595 88L597 44Q597 31 594 25T576 13Q547 2 505 -5T429 -12Q258 -12 156 90Q53 193 53 363Q53 527 159 630Q264 731 430 731Z" horiz-adv-x="630" unicode="C"/>
			<glyph d="M120 719H307Q418 719 503 678T636 557T684 366Q684 190 584 95T304 0H120Q94 0 94 29V690Q94 719 120 719ZM193 626V90H303Q579 90 579 361Q579 481 503 556Q464 594 411 610T293 626Z" horiz-adv-x="737" unicode="D"/>
			<glyph d="M120 719H466Q491 719 491 690V655Q491 626 466 626H193V419H439Q464 419 464 390V356Q464 327 439 327H193V93H466Q491 93 491 64V29Q491 0 466 0H120Q94 0 94 29V690Q94 719 120 719Z" horiz-adv-x="551" unicode="E"/>
			<glyph d="M120 719H446Q471 719 471 690V655Q471 626 446 626H193V419H424Q449 419 449 390V356Q449 327 424 327H193V29Q193 0 168 0H120Q94 0 94 29V690Q94 719 120 719Z" horiz-adv-x="511" unicode="F"/>
			<glyph d="M430 731Q492 731 541 723T621 700Q632 694 635 689T638 673L633 620Q632 601 619 601Q610 601 567 619Q507 639 434 639Q309 639 231 560Q156 482 156 359Q156 299 177 246T235 157Q314 80 429 80Q494 80 547 93V300H409Q383 300 383 329V365Q383 394 409 394H620Q646 394 646 365V49Q646 20 620 11Q548 -12 429 -12Q258 -12 156 90Q53 193 53 363Q53 527 159 630Q264 731 430 731Z" horiz-adv-x="735" unicode="G"/>
			<glyph d="M120 719H168Q193 719 193 690V419H540V690Q540 719 566 719H614Q639 719 639 690V29Q639 0 614 0H566Q540 0 540 29V327H193V29Q193 0 168 0H120Q94 0 94 29V690Q94 719 120 719Z" horiz-adv-x="733" unicode="H"/>
			<glyph d="M61 719H298Q323 719 323 690V659Q323 630 298 630H229V89H298Q323 89 323 60V29Q323 0 298 0H61Q35 0 35 29V60Q35 89 61 89H130V630H61Q35 630 35 659V690Q35 719 61 719Z" horiz-adv-x="358" unicode="I"/>
			<glyph d="M103 719H364Q389 719 389 690V659Q389 630 364 630H297V207Q297 96 248 42T98 -12Q59 -12 41 -6Q28 -2 22 5T17 27V65Q17 87 34 87Q39 87 54 83T85 80Q146 80 172 112T199 218V630H103Q77 630 77 659V690Q77 719 103 719Z" horiz-adv-x="419" unicode="J"/>
			<glyph d="M120 719H168Q193 719 193 690V400L486 703Q496 713 503 716T530 719H602Q607 719 611 715T616 705Q616 696 606 686L305 384L634 33Q643 22 643 14Q643 0 631 0H546Q527 0 519 3T502 16L193 355V29Q193 0 168 0H120Q94 0 94 29V690Q94 719 120 719Z" horiz-adv-x="664" unicode="K"/>
			<glyph d="M120 719H168Q193 719 193 690V93H468Q493 93 493 64V29Q493 0 468 0H120Q94 0 94 29V690Q94 719 120 719Z" horiz-adv-x="518" unicode="L"/>
			<glyph d="M120 719H228Q253 719 263 690L470 122L678 690Q688 719 713 719H817Q843 719 843 690V29Q843 0 817 0H772Q747 0 747 29V619L530 29Q520 0 494 0H443Q417 0 408 29L191 619V29Q191 0 166 0H120Q94 0 94 29V690Q94 719 120 719Z" horiz-adv-x="937" unicode="M"/>
			<glyph d="M120 719H205Q228 719 245 690L557 134V690Q557 719 583 719H627Q652 719 652 690V29Q652 0 627 0H550Q537 0 527 6T509 28L189 597V29Q189 0 164 0H120Q94 0 94 29V690Q94 719 120 719Z" horiz-adv-x="746" unicode="N"/>
			<glyph d="M394 731Q499 731 576 685T694 556T735 359Q735 246 694 162T576 33T394 -12Q289 -12 212 33T94 162T53 359Q53 472 94 556T212 685T394 731ZM394 638Q317 638 263 601T183 502T156 359Q156 279 183 216T263 117T394 81Q471 81 524 117T605 216T632 359Q632 439 605 502T524 601T394 638Z" horiz-adv-x="788" unicode="O"/>
			<glyph d="M120 719H265Q407 719 477 668T547 504Q547 394 476 340T286 286H193V29Q193 0 168 0H120Q94 0 94 29V690Q94 719 120 719ZM193 626V379H282Q444 379 444 503Q444 570 396 598T274 626Z" horiz-adv-x="587" unicode="P"/>
			<glyph d="M394 731Q499 731 576 685T694 556T735 359Q735 254 699 174T597 47L707 -71Q718 -84 718 -90Q718 -104 701 -104H627Q610 -104 602 -100T582 -84L503 2Q452 -12 394 -12Q289 -12 212 33T94 162T53 359Q53 472 94 556T212 685T394 731ZM394 638Q317 638 263 601T183 502T156 359Q156 279 183 216T263 117T394 81Q406 81 430 83L375 144Q366 155 366 164Q366 177 382 177H449Q467 177 475 173T495 158L529 121Q579 157 605 219T632 359Q632 439 605 502T524 601T394 638Z" horiz-adv-x="789" unicode="Q"/>
			<glyph d="M120 719H267Q417 719 481 670T546 519Q546 452 508 406T410 338L588 33Q594 23 594 16Q594 0 576 0H514Q497 0 490 3T477 17L308 319H193V29Q193 0 168 0H120Q94 0 94 29V690Q94 719 120 719ZM193 626V411H287Q357 411 400 436T443 518Q443 577 397 601T265 626Z" horiz-adv-x="629" unicode="R"/>
			<glyph d="M276 731Q306 731 345 723T415 702Q426 697 429 693T433 682Q433 676 432 672L422 623Q419 607 410 607Q404 607 390 613T352 627Q317 638 273 638Q219 638 185 613T152 543Q152 503 183 476T279 420Q344 390 383 362T445 294T468 196Q468 124 432 77T342 9T228 -12Q188 -12 147 -3T76 20Q64 26 59 33T56 52L62 105Q64 122 77 122Q83 122 101 113T131 100Q158 90 180 85T229 81Q284 81 325 109T367 192Q367 235 335 266T241 324Q180 351 140 377T76 442T51 538Q51 633 113 682T276 731Z" horiz-adv-x="515" unicode="S"/>
			<glyph d="M51 719H546Q571 719 571 690V655Q571 626 546 626H347V29Q347 0 323 0H275Q249 0 249 29V626H51Q25 626 25 655V690Q25 719 51 719Z" horiz-adv-x="596" unicode="T"/>
			<glyph d="M117 719H164Q189 719 189 690V311Q189 197 235 138T372 80Q463 80 510 138T557 311V690Q557 705 563 712T583 719H630Q644 719 650 712T656 690V298Q656 148 582 68T372 -12Q236 -12 163 68T90 298V690Q90 705 96 712T117 719Z" horiz-adv-x="746" unicode="U"/>
			<glyph d="M38 719H97Q109 719 115 713T127 694L349 98H353L575 694Q580 707 586 713T604 719H666Q683 719 683 704Q683 698 679 690L419 27Q409 0 386 0H312Q292 0 281 27L23 692Q20 701 20 704Q20 719 38 719Z" horiz-adv-x="703" unicode="V"/>
			<glyph d="M38 719H97Q109 719 115 713T125 694L287 98H291L430 694Q433 707 439 713T459 719H539Q552 719 558 713T568 694L716 98H720L873 694Q877 708 883 713T901 719H961Q979 719 979 704Q979 701 975 685L788 27Q780 0 757 0H680Q667 0 658 7T647 27L500 593H496L358 27Q355 14 346 7T325 0H250Q227 0 219 27L24 685Q20 699 20 704Q20 719 38 719Z" horiz-adv-x="999" unicode="W"/>
			<glyph d="M58 719H135Q152 719 158 715T173 700L345 446L518 696Q528 709 535 714T557 719H624Q638 719 638 707Q638 699 630 688L405 376L652 32Q660 21 660 13Q660 0 645 0H568Q551 0 544 3T530 19L336 305L141 23Q131 10 124 5T102 0H35Q21 0 21 12Q21 20 29 31L276 373L51 687Q43 698 43 706Q43 719 58 719Z" horiz-adv-x="680" unicode="X"/>
			<glyph d="M33 719H97Q115 719 121 716T135 701L338 400L540 701Q548 713 554 716T578 719H645Q658 719 658 706Q658 698 650 686L387 310V29Q387 0 362 0H315Q289 0 289 29V311L28 686Q20 698 20 706Q20 719 33 719Z" horiz-adv-x="678" unicode="Y"/>
			<glyph d="M73 719H496Q521 719 521 690V652Q521 635 517 624T505 600L153 96H502Q528 96 528 67V29Q528 0 502 0H60Q35 0 35 29V67Q35 84 38 94T51 119L403 623H73Q47 623 47 652V690Q47 719 73 719Z" horiz-adv-x="563" unicode="Z"/>
			<glyph d="M106 770H258Q283 770 283 741V714Q283 685 258 685H179V-66H258Q283 -66 283 -95V-122Q283 -151 258 -151H106Q80 -151 80 -122V741Q80 770 106 770Z" horiz-adv-x="323" unicode="["/>
			<glyph d="M21 731H56Q78 731 86 707L311 30Q317 12 317 5Q317 -12 296 -12H261Q239 -12 231 12L6 689Q0 707 0 714Q0 731 21 731Z" horiz-adv-x="317" unicode="\"/>
			<glyph d="M65 770H217Q243 770 243 741V-122Q243 -151 217 -151H65Q40 -151 40 -122V-95Q40 -66 65 -66H144V685H65Q40 685 40 714V741Q40 770 65 770Z" horiz-adv-x="313" unicode="]"/>
			<glyph d="M275 719H313Q336 719 347 695L520 356Q530 338 530 331Q530 314 512 314H467Q455 314 447 319T433 338L294 617L155 338Q148 325 140 319T121 314H76Q58 314 58 331Q58 338 68 356L241 695Q252 719 275 719Z" horiz-adv-x="588" unicode="^"/>
			<glyph d="M0 -129H419Q444 -129 444 -158V-167Q444 -196 419 -196H0Q-26 -196 -26 -167V-158Q-26 -129 0 -129Z" horiz-adv-x="419" unicode="_"/>
			<glyph d="M41 755H101Q120 755 129 749T149 728L226 612Q231 605 231 598Q231 585 212 585H185Q169 585 160 589T139 608L35 720Q24 733 24 742Q24 755 41 755Z" horiz-adv-x="278" unicode="`"/>
			<glyph d="M280 522Q382 522 446 458H450V481Q450 510 476 510H519Q543 510 543 481V29Q543 0 519 0H480Q454 0 454 29V74H451Q419 29 376 8T276 -12Q204 -12 152 25T74 125T48 261Q48 329 74 388T153 485T280 522ZM294 444Q247 444 213 417T163 347T147 257Q147 212 162 168T211 95T293 67Q364 67 407 119T450 254Q450 311 430 354T374 421T294 444Z" horiz-adv-x="623" unicode="a"/>
			<glyph d="M104 774H147Q173 774 173 745V436H176Q209 481 251 501T349 522Q421 522 472 485T549 387T575 251Q575 182 549 122T473 25T349 -12Q292 -12 247 9T173 71H169V29Q169 0 143 0H104Q80 0 80 29V745Q80 774 104 774ZM331 443Q284 443 248 419T192 353T173 260Q173 168 216 117T330 66Q401 66 438 119T476 253Q476 300 461 343T413 415T331 443Z" horiz-adv-x="623" unicode="b"/>
			<glyph d="M313 522Q341 522 371 516T420 500Q434 492 434 478Q434 471 433 467L430 439Q429 422 414 422Q409 422 383 431T320 441Q267 441 228 415T168 346T147 255Q147 204 168 161T229 92T327 66Q364 66 389 76T421 87Q428 87 431 83T435 70L437 30Q437 22 431 16T411 5Q368 -12 313 -12Q231 -12 171 23T79 119T48 253Q48 328 80 389T172 486T313 522Z" horiz-adv-x="465" unicode="c"/>
			<glyph d="M476 774H519Q543 774 543 745V29Q543 0 519 0H480Q454 0 454 29V70H447Q388 -12 274 -12Q202 -12 151 25T74 125T48 261Q48 329 73 388T150 485T274 522Q387 522 446 439H450V745Q450 774 476 774ZM293 444Q246 444 213 417T163 347T147 257Q147 211 162 167T210 95T292 67Q363 67 406 119T450 254Q450 311 429 354T373 420T293 444Z" horiz-adv-x="623" unicode="d"/>
			<glyph d="M292 522Q399 522 459 455T520 268Q520 250 511 241T482 233H147Q148 185 171 147T233 87T321 66Q360 66 387 73T442 94Q462 103 468 103Q480 103 481 88L484 45Q485 33 479 27T461 17Q394 -12 317 -12Q190 -12 119 61T48 262Q48 336 78 395T164 488T292 522ZM290 441Q231 441 192 402T148 305H424Q422 366 386 403T290 441Z" horiz-adv-x="565" unicode="e"/>
			<glyph d="M294 786Q324 786 345 780Q355 778 358 773T361 764L359 718Q358 708 353 704T343 701Q333 701 318 704T294 707Q254 707 235 679T217 589V510H331Q356 510 356 481V461Q356 432 331 432H217V29Q217 0 193 0H150Q124 0 124 29V432H29Q3 432 3 461V481Q3 510 29 510H125V602Q125 694 167 740T294 786Z" horiz-adv-x="371" unicode="f"/>
			<glyph d="M277 522Q390 522 449 439H454V481Q454 510 480 510H519Q543 510 543 481V-27Q543 -271 275 -271Q236 -271 187 -261T110 -237Q97 -230 93 -224T91 -207L96 -170Q99 -152 115 -152Q126 -152 152 -164T210 -184T285 -193Q369 -193 409 -150T450 -20V83H447Q418 38 375 19T274 0Q202 0 151 35T74 129T48 261Q48 328 74 388T152 485T277 522ZM293 444Q246 444 213 417T163 347T147 257Q147 185 183 132T292 79Q365 79 407 127T450 258Q450 313 429 355T373 420T293 444Z" horiz-adv-x="623" unicode="g"/>
			<glyph d="M106 774H149Q173 774 173 745V438H176Q235 522 349 522Q445 522 492 466T539 305V29Q539 0 515 0H472Q446 0 446 29V297Q446 443 331 443Q256 443 214 386T173 245V29Q173 0 149 0H106Q80 0 80 29V745Q80 774 106 774Z" horiz-adv-x="619" unicode="h"/>
			<glyph d="M126 759Q151 759 168 741T186 699Q186 674 168 657T126 640Q101 640 84 657T67 699Q67 724 84 741T126 759ZM106 510H149Q173 510 173 481V29Q173 0 149 0H106Q80 0 80 29V481Q80 510 106 510Z" horiz-adv-x="253" unicode="i"/>
			<glyph d="M126 759Q151 759 168 741T186 699Q186 674 168 657T126 640Q101 640 84 657T67 699Q67 724 84 741T126 759ZM106 510H149Q173 510 173 481V-76Q173 -169 142 -220T28 -272Q0 -272 -16 -267Q-30 -262 -30 -249L-26 -207Q-25 -194 -19 -190T-5 -186Q-1 -186 5 -186T23 -187Q57 -187 68 -161T80 -93V481Q80 510 106 510Z" horiz-adv-x="253" unicode="j"/>
			<glyph d="M106 774H149Q173 774 173 745V296L377 492Q388 503 395 506T419 510H481Q490 510 495 506T500 497Q500 489 492 481L279 284L520 29Q528 21 528 13Q528 7 523 3T509 0H440Q422 0 414 4T397 19L173 263V29Q173 0 149 0H106Q80 0 80 29V745Q80 774 106 774Z" horiz-adv-x="529" unicode="k"/>
			<glyph d="M104 774H147Q173 774 173 745V29Q173 0 147 0H104Q80 0 80 29V745Q80 774 104 774Z" horiz-adv-x="253" unicode="l"/>
			<glyph d="M324 522Q449 522 486 422H489Q512 465 554 493T654 522Q727 522 766 490T818 412T830 305V29Q830 0 806 0H763Q737 0 737 29V297Q737 376 713 409T636 443Q568 443 535 385T502 237V29Q502 0 478 0H435Q409 0 409 29V297Q409 379 384 411T308 443Q239 443 206 391T173 253V29Q173 0 147 0H104Q80 0 80 29V481Q80 510 104 510H143Q169 510 169 481V436H171Q194 472 232 497T324 522Z" horiz-adv-x="910" unicode="m"/>
			<glyph d="M349 522Q447 522 493 465T539 305V29Q539 0 515 0H472Q446 0 446 29V297Q446 443 331 443Q258 443 215 387T173 245V29Q173 0 147 0H104Q80 0 80 29V481Q80 510 104 510H143Q169 510 169 481V438H176Q235 522 349 522Z" horiz-adv-x="619" unicode="n"/>
			<glyph d="M313 522Q384 522 444 490T541 398T578 255Q578 173 541 112T444 19T313 -12Q242 -12 181 19T84 112T48 255Q48 337 84 398T181 490T313 522ZM313 443Q262 443 224 417T167 349T147 255Q147 204 167 161T224 92T313 67Q364 67 401 92T459 161T479 255Q479 306 459 349T401 417T313 443Z" horiz-adv-x="625" unicode="o"/>
			<glyph d="M349 522Q421 522 472 485T549 387T575 251Q575 183 549 123T472 25T349 -12Q236 -12 177 71H173V-230Q173 -259 147 -259H104Q80 -259 80 -230V481Q80 510 104 510H143Q169 510 169 481V436H172Q234 522 349 522ZM331 443Q284 443 248 419T192 353T173 260Q173 170 216 118T330 66Q377 66 410 93T459 162T476 253Q476 300 461 343T413 415T331 443Z" horiz-adv-x="622" unicode="p"/>
			<glyph d="M274 522Q387 522 446 439H454V481Q454 510 480 510H519Q543 510 543 481V-157L602 -113Q614 -104 621 -104Q630 -104 639 -116L658 -140Q663 -148 663 -154Q663 -166 648 -177L542 -250Q529 -259 513 -259H476Q450 -259 450 -230V72Q388 -12 274 -12Q201 -12 150 25T73 125T48 261Q48 329 73 388T151 485T274 522ZM293 444Q246 444 213 417T163 347T147 257Q147 211 162 167T210 95T292 67Q362 67 406 118T450 250Q450 339 406 391T293 444Z" horiz-adv-x="623" unicode="q"/>
			<glyph d="M308 522Q338 522 358 517Q368 514 373 508T378 490V454Q378 441 374 437T362 433Q356 433 342 435T309 438Q243 438 208 383T173 239V29Q173 0 147 0H104Q80 0 80 29V481Q80 510 104 510H143Q169 510 169 481V436H173Q199 481 233 501T308 522Z" horiz-adv-x="378" unicode="r"/>
			<glyph d="M228 522Q252 522 281 516T335 500Q346 495 350 491T355 480Q355 477 353 469L345 435Q343 426 339 422T327 419Q319 419 302 426Q281 433 265 437T226 441Q190 441 169 426T148 387Q148 359 170 340T259 292Q326 261 353 227T380 139Q380 87 352 53T282 3T194 -12Q163 -12 132 -5T77 12Q65 18 60 24T58 42L62 76Q64 88 68 93T83 99Q91 99 105 91Q126 81 146 75T194 69Q231 69 258 84T285 134Q285 164 262 182T178 228Q115 255 84 290T54 380Q54 448 102 485T228 522Z" horiz-adv-x="434" unicode="s"/>
			<glyph d="M139 675H182Q206 675 206 646V510H318Q343 510 343 481V461Q343 432 318 432H206V29Q206 0 182 0H139Q113 0 113 29V432H36Q10 432 10 461V481Q10 510 36 510H113V646Q113 675 139 675Z" horiz-adv-x="371" unicode="t"/>
			<glyph d="M104 510H147Q173 510 173 481V225Q173 152 199 109T288 67Q364 67 405 126T446 273V481Q446 510 472 510H515Q539 510 539 481V29Q539 0 515 0H476Q450 0 450 29V81H443Q413 32 370 10T270 -12Q172 -12 126 45T80 205V481Q80 510 104 510Z" horiz-adv-x="619" unicode="u"/>
			<glyph d="M38 510H95Q107 510 113 504T125 485L258 98H265L398 485Q403 499 409 504T428 510H479Q497 510 497 495Q497 491 491 475L323 27Q313 0 292 0H225Q205 0 194 27L26 475Q25 478 22 484T20 495Q20 510 38 510Z" horiz-adv-x="516" unicode="v"/>
			<glyph d="M37 510H93Q106 510 112 504T123 485L232 98H236L354 485Q359 499 365 504T384 510H445Q457 510 463 504T475 485L593 98H597L706 485Q710 499 716 504T736 510H784Q801 510 801 496Q801 493 796 475L652 27Q643 0 621 0H568Q546 0 537 27L414 416L292 27Q283 0 261 0H200Q178 0 169 27L25 475Q20 493 20 496Q20 510 37 510Z" horiz-adv-x="821" unicode="w"/>
			<glyph d="M50 510H112Q126 510 132 506T147 490L256 327L364 490Q373 503 379 506T399 510H454Q469 510 469 498Q469 492 460 479L307 266L476 31Q485 18 485 12Q485 0 470 0H408Q394 0 388 3T373 20L249 203L128 20Q119 7 113 3T93 0H36Q21 0 21 12Q21 18 30 31L198 265L44 479Q35 492 35 498Q35 510 50 510Z" horiz-adv-x="505" unicode="x"/>
			<glyph d="M38 510H95Q107 510 113 504T125 485L258 98H265L398 485Q403 499 409 504T428 510H479Q497 510 497 495Q497 491 491 475L221 -246Q216 -260 209 -265T191 -271H140Q122 -271 122 -256Q122 -252 128 -236L215 -21L26 475Q25 478 22 484T20 495Q20 510 38 510Z" horiz-adv-x="516" unicode="y"/>
			<glyph d="M84 510H428Q453 510 453 481V461Q453 447 450 437T438 417L152 78H440Q465 78 465 49V29Q465 0 440 0H69Q43 0 43 29V49Q43 66 45 75T56 95L342 432H84Q58 432 58 461V481Q58 510 84 510Z" horiz-adv-x="508" unicode="z"/>
			<glyph d="M281 770H317Q331 770 337 763T344 741V714Q344 685 319 685H301Q264 685 249 666T235 599V459Q235 405 213 365T151 312V308Q192 296 213 255T235 161V21Q235 -28 249 -46T301 -65H319Q344 -65 344 -94V-121Q344 -136 337 -143T317 -150H281Q217 -150 179 -115T142 -10V151Q142 204 127 231T80 267Q67 271 60 280T53 301V319Q53 330 60 339T80 353Q113 362 127 389T142 469V630Q142 700 179 735T281 770Z" horiz-adv-x="385" unicode="{"/>
			<glyph d="M121 770H155Q181 770 181 740V-121Q181 -150 155 -150H121Q107 -150 100 -143T94 -121V740Q94 770 121 770Z" horiz-adv-x="275" unicode="|"/>
			<glyph d="M68 770H104Q168 770 205 735T243 630V469Q243 416 257 389T305 353Q318 349 325 339T332 319V301Q332 290 325 280T305 267Q272 258 257 231T243 151V-10Q243 -80 205 -115T104 -150H68Q54 -150 47 -143T41 -121V-94Q41 -65 66 -65H84Q121 -65 135 -46T150 21V161Q150 214 171 255T234 308V312Q193 325 171 365T150 459V599Q150 648 135 666T84 685H66Q41 685 41 714V741Q41 756 47 763T68 770Z" horiz-adv-x="385" unicode="}"/>
			<glyph d="M182 424Q209 424 238 415T303 389Q338 373 359 366T401 359Q445 359 472 404Q478 415 488 415Q497 415 503 405L515 385Q521 375 521 363Q521 349 512 334Q473 274 401 274Q375 274 347 282T280 309Q246 325 224 332T182 339Q139 339 111 294Q105 283 95 283Q86 283 80 293L68 313Q62 324 62 335Q62 349 71 364Q110 424 182 424Z" horiz-adv-x="583" unicode="~"/>
			<glyph d="" horiz-adv-x="297" unicode=" "/>
			<glyph d="M169 522Q198 522 217 503T236 455Q236 426 216 406T169 387Q141 387 121 407T101 455Q101 483 120 502T169 522ZM152 309H185Q211 309 211 282L222 -120L224 -183Q224 -209 198 -209H139Q113 -209 113 -183L115 -120L126 282Q126 309 152 309Z" horiz-adv-x="339" unicode="¡"/>
			<glyph d="M313 614H350Q374 614 374 585V520Q426 515 454 500Q468 492 468 478Q468 471 467 467L464 439Q463 422 448 422Q443 422 421 430T374 440V66Q407 68 434 81Q437 82 444 84T455 87Q462 87 465 83T469 70L471 31Q471 22 465 16T445 5Q416 -6 374 -11V-72Q374 -101 350 -101H313Q287 -101 287 -72V-11Q223 1 176 39T106 133T82 253Q82 353 137 427T287 520V585Q287 614 313 614ZM287 436Q239 421 210 367T181 255Q181 192 209 138T287 71Z" horiz-adv-x="594" unicode="¢"/>
			<glyph d="M419 730Q463 730 505 721Q522 717 528 709T535 688L532 642Q531 624 515 624Q507 624 484 631T429 638Q272 638 272 468V418H415Q440 418 440 389V361Q440 332 415 332H272V93H499Q524 93 524 64V29Q524 0 499 0H105Q79 0 79 29V64Q79 93 105 93H173V332H105Q79 332 79 361V389Q79 418 105 418H173V491Q173 561 204 615T290 699T419 730Z" horiz-adv-x="596" unicode="£"/>
			<glyph d="M44 719H107Q125 719 131 716T145 701L338 400L530 701Q538 714 544 716T568 719H635Q648 719 648 706Q648 698 640 686L444 395H575Q601 395 601 366V348Q601 319 575 319H393L387 310V223H575Q601 223 601 194V176Q601 147 575 147H387V29Q387 0 362 0H315Q289 0 289 29V147H100Q75 147 75 176V194Q75 223 100 223H289V311L283 319H100Q75 319 75 348V366Q75 395 100 395H232L38 686Q30 698 30 706Q30 719 44 719Z" horiz-adv-x="678" unicode="¥"/>
			<glyph d="M121 770H155Q181 770 181 740V412Q181 383 155 383H121Q107 383 100 390T94 412V740Q94 770 121 770ZM121 236H155Q181 236 181 206V-122Q181 -151 155 -151H121Q107 -151 100 -144T94 -122V206Q94 236 121 236Z" horiz-adv-x="275" unicode="¦"/>
			<glyph d="M326 730Q353 730 385 724T444 707Q461 700 461 686Q461 680 460 677L451 639Q448 625 436 625Q425 625 409 633Q388 641 370 645T323 650Q281 650 256 632T231 585Q231 550 258 526T356 469T457 398T488 303Q488 257 463 222T400 170Q438 145 456 113T474 36Q474 -20 444 -56T367 -110T272 -127Q239 -127 203 -119T143 -100Q132 -94 128 -88T125 -73L130 -34Q133 -13 148 -13Q157 -13 174 -23Q196 -34 217 -40T272 -47Q315 -47 346 -28T378 31Q378 68 352 92T258 146T156 211T123 306Q123 354 147 388T215 442Q177 466 157 498T137 577Q137 652 190 691T326 730ZM286 406Q254 396 232 372T210 321Q210 294 223 275T261 242T335 205Q363 216 381 239T399 293Q399 331 374 354T286 406Z" horiz-adv-x="618" unicode="§"/>
			<glyph d="M55 725Q78 725 95 708T112 668Q112 645 95 628T55 612Q32 612 15 628T-1 668Q-1 691 15 708T55 725ZM229 725Q252 725 269 708T286 668Q286 645 269 628T229 612Q206 612 189 628T173 668Q173 691 189 708T229 725Z" unicode="¨"/>
			<glyph d="M434 731Q539 731 626 682T763 547T814 359Q814 256 763 171T626 37T434 -12Q329 -12 242 37T104 171T54 359Q54 462 104 547T242 682T434 731ZM434 657Q350 657 281 617T172 510T132 359Q132 276 172 208T281 101T434 62Q518 62 587 101T696 208T736 359Q736 442 696 510T587 617T434 657ZM461 578Q482 578 508 575T548 568Q560 565 565 560T569 545L566 510Q565 497 553 497Q546 497 529 502Q516 505 499 508T464 512Q394 512 348 469T303 357Q303 288 351 247T471 207Q489 207 505 210T534 217Q549 222 557 222Q569 222 570 209L573 174V171Q573 162 568 158T552 151Q538 147 510 144T462 141Q396 141 342 165T257 238T225 357Q225 461 288 519T461 578Z" horiz-adv-x="868" unicode="©"/>
			<glyph d="M200 731Q233 731 255 722T295 699H300V703Q300 715 306 719T324 724H347Q370 724 370 700V434Q370 410 347 410H324Q311 410 305 415T300 434V442H296Q258 403 198 403Q150 403 116 426T65 487T48 571Q48 612 65 649T117 708T200 731ZM213 670Q170 670 147 640T125 568Q125 526 147 495T212 465Q240 465 263 482T297 529V618Q284 643 261 656T213 670Z" horiz-adv-x="450" unicode="ª"/>
			<glyph d="M257 471H289Q298 471 303 466T308 454Q308 445 295 427L178 269L295 111Q308 93 308 84Q308 76 303 71T289 67H257Q240 67 228 73T205 95L95 242Q85 257 85 269Q85 281 95 296L205 443Q217 459 228 465T257 471ZM465 471H497Q506 471 511 466T516 454Q516 445 503 427L386 269L503 111Q516 93 516 84Q516 76 511 71T497 67H465Q448 67 436 73T413 95L303 242Q293 257 293 269Q293 281 303 296L413 443Q425 459 436 465T465 471Z" horiz-adv-x="601" unicode="«"/>
			<glyph d="M72 494H537Q562 494 562 465V226Q562 197 537 197H494Q468 197 468 226V405H72Q46 405 46 434V465Q46 494 72 494Z" horiz-adv-x="676" unicode="¬"/>
			<glyph d="M434 731Q539 731 626 682T763 547T814 359Q814 256 763 171T626 37T434 -12Q329 -12 242 37T104 171T54 359Q54 462 104 547T242 682T434 731ZM434 657Q350 657 281 617T172 510T132 359Q132 276 172 208T281 101T434 62Q518 62 587 101T696 208T736 359Q736 442 696 510T587 617T434 657ZM309 572H435Q519 572 559 543T599 453Q599 352 490 335L590 179Q597 169 597 163Q597 157 591 153T577 150H548Q529 150 521 154T506 169L407 331H359V179Q359 150 335 150H309Q283 150 283 179V543Q283 572 309 572ZM359 510V392H433Q476 392 499 403T522 453Q522 510 433 510Z" horiz-adv-x="868" unicode="®"/>
			<glyph d="M36 675H253Q276 675 276 646V628Q276 599 253 599H36Q10 599 10 626V648Q10 675 36 675Z" unicode="¯"/>
			<glyph d="M204 731Q246 731 279 711T331 658T350 585Q350 545 331 512T279 461T204 442Q142 442 101 483T61 585Q61 625 79 658T130 711T204 731ZM204 670Q169 670 145 645T122 585Q122 551 145 527T204 503Q241 503 265 526T289 585Q289 621 264 645T204 670Z" horiz-adv-x="412" unicode="°"/>
			<glyph d="M286 609H314Q343 609 343 585V420H528Q552 420 552 391V363Q552 334 528 334H343V171Q343 145 314 145H286Q257 145 257 171V334H74Q48 334 48 363V391Q48 420 74 420H257V585Q257 609 286 609ZM73 86H528Q553 86 553 57V29Q553 0 528 0H73Q47 0 47 29V57Q47 86 73 86Z" horiz-adv-x="600" unicode="±"/>
			<glyph d="M188 731Q257 731 300 698T344 603Q344 543 288 476T161 364H325Q350 364 350 335V319Q350 290 325 290H74Q48 290 48 319V342Q48 364 71 380Q158 441 207 495T257 591Q257 624 237 643T182 662Q150 662 109 647Q88 640 81 640Q66 640 66 659L65 683Q64 697 69 704T87 715Q112 723 140 727T188 731Z" horiz-adv-x="400" unicode="²"/>
			<glyph d="M177 731Q248 731 291 701T334 615Q334 537 239 516Q290 507 314 480T338 407Q338 346 289 315T150 284Q102 284 65 296Q46 302 46 321L48 353Q50 374 66 374Q75 374 88 369Q105 364 118 361T155 359Q202 359 227 375T252 419Q252 449 225 463T160 478L130 477Q116 477 110 484T104 506V524Q104 553 126 553L172 552Q210 552 229 568T248 608Q248 631 228 644T172 658Q152 658 135 655T102 646Q84 640 75 640Q64 640 62 655L60 689Q59 703 63 709T80 718Q128 731 177 731Z" horiz-adv-x="398" unicode="³"/>
			<glyph d="M190 755H250Q267 755 267 742Q267 733 256 720L152 608Q139 594 130 589T106 585H79Q60 585 60 598Q60 605 65 612L142 728Q151 742 161 748T190 755Z" unicode="´"/>
			<glyph d="M104 510H147Q173 510 173 481V225Q173 152 199 109T288 67Q364 67 405 126T446 273V481Q446 510 472 510H515Q539 510 539 481V29Q539 0 515 0H476Q450 0 450 29V81H443Q413 32 370 10T270 -12Q215 -12 173 8V-230Q173 -259 149 -259H106Q80 -259 80 -230V481Q80 510 104 510Z" horiz-adv-x="619" unicode="µ"/>
			<glyph d="M294 697H526Q550 697 550 668V-83Q550 -112 526 -112H490Q464 -112 464 -83V616H362V-83Q362 -112 338 -112H302Q276 -112 276 -83V331Q53 339 53 514Q53 697 294 697Z" horiz-adv-x="630" unicode="¶"/>
			<glyph d="M131 2H182L136 -60Q154 -55 167 -55Q205 -55 227 -76T250 -132Q250 -176 215 -199T125 -223Q85 -223 52 -209Q40 -204 40 -197Q40 -193 42 -187L45 -178Q47 -172 49 -169T57 -166Q61 -166 79 -172T118 -179Q176 -179 176 -137Q176 -119 163 -108T127 -98Q117 -98 109 -99T94 -100Q86 -100 82 -95T78 -84Q78 -78 88 -62Z" unicode="¸"/>
			<glyph d="M191 719H227Q252 719 252 690V312Q252 283 227 283H191Q165 283 165 312V628L113 588Q101 579 93 579Q83 579 75 590L68 599Q61 607 61 616Q61 627 74 637L167 710Q177 719 191 719Z" horiz-adv-x="328" unicode="¹"/>
			<glyph d="M218 731Q265 731 304 711T367 654T391 566Q391 516 367 479T304 422T218 403Q173 403 134 422T71 479T48 566Q48 617 71 654T134 711T218 731ZM218 670Q177 670 153 640T129 566Q129 523 153 493T218 463Q260 463 285 493T310 566Q310 610 285 640T218 670Z" horiz-adv-x="439" unicode="º"/>
			<glyph d="M104 471H136Q153 471 164 465T188 443L298 296Q308 281 308 269Q308 257 298 242L188 95Q176 79 164 73T136 67H104Q95 67 90 71T85 84Q85 93 98 111L215 269L98 427Q85 445 85 454Q85 462 90 466T104 471ZM312 471H344Q361 471 372 465T396 443L506 296Q516 281 516 269Q516 257 506 242L396 95Q384 79 372 73T344 67H312Q303 67 298 71T293 84Q293 93 306 111L423 269L306 427Q293 445 293 454Q293 462 298 466T312 471Z" horiz-adv-x="601" unicode="»"/>
			<glyph d="M598 741H625Q642 741 642 728Q642 721 636 711L217 -5Q211 -15 203 -19T184 -23H157Q140 -23 140 -10Q140 -4 146 7L565 723Q571 733 578 737T598 741ZM191 719H227Q252 719 252 690V312Q252 283 227 283H191Q165 283 165 312V628L113 588Q101 579 93 579Q83 579 75 590L68 599Q61 607 61 616Q61 627 74 637L167 710Q177 719 191 719ZM568 436H605Q630 436 630 407L616 236H733V407Q733 436 758 436H795Q820 436 820 407V236H854Q879 236 879 207V191Q879 162 854 162H820V29Q820 0 795 0H758Q733 0 733 29V162H550Q525 162 525 191L543 407Q543 436 568 436Z" horiz-adv-x="918" unicode="¼"/>
			<glyph d="M616 741H643Q660 741 660 728Q660 721 654 711L235 -5Q229 -15 221 -19T202 -23H175Q158 -23 158 -10Q158 -4 164 7L583 723Q589 733 596 737T616 741ZM191 719H227Q252 719 252 690V312Q252 283 227 283H191Q165 283 165 312V628L113 588Q101 579 93 579Q83 579 75 590L68 599Q61 607 61 616Q61 627 74 637L167 710Q177 719 191 719ZM680 441Q746 441 791 409T836 313Q836 251 779 185T653 74H817Q842 74 842 45V29Q842 0 817 0H566Q540 0 540 29V52Q540 74 563 90Q650 151 699 205T749 301Q749 334 729 353T674 372Q642 372 601 357Q580 350 573 350Q558 350 558 369L557 396Q557 408 562 414T579 425Q603 433 632 437T680 441Z" horiz-adv-x="918" unicode="½"/>
			<glyph d="M717 741H744Q761 741 761 728Q761 721 755 711L336 -5Q330 -15 322 -19T303 -23H276Q259 -23 259 -10Q259 -4 265 7L684 723Q690 733 697 737T717 741ZM243 731Q311 731 355 702T400 615Q400 537 305 516Q356 507 380 480T404 407Q404 346 355 315T216 284Q168 284 131 296Q112 302 112 321L114 353Q116 374 132 374Q141 374 155 369Q171 364 184 361T221 359Q268 359 293 375T318 419Q318 449 291 463T226 478L196 477Q182 477 176 484T170 506V524Q170 553 192 553L238 552Q276 552 295 568T314 608Q314 631 294 644T238 658Q216 658 200 655T167 646Q147 640 141 640Q130 640 128 655L126 689Q125 703 129 709T146 718Q192 731 243 731ZM680 436H717Q742 436 742 407L728 236H845V407Q845 436 870 436H907Q932 436 932 407V236H966Q991 236 991 207V191Q991 162 966 162H932V29Q932 0 907 0H870Q845 0 845 29V162H662Q637 162 637 191L655 407Q655 436 680 436Z" horiz-adv-x="1030" unicode="¾"/>
			<glyph d="M274 522Q303 522 322 503T341 455Q341 426 321 406T274 387Q246 387 226 407T206 455Q206 483 225 502T274 522ZM251 307H294Q320 307 320 278V194Q320 159 297 138Q286 127 260 105Q214 65 190 34T166 -37Q166 -81 193 -104T272 -128Q306 -128 332 -121T387 -105Q414 -96 422 -96Q433 -96 434 -112L437 -162V-168Q437 -178 433 -183T420 -192Q390 -205 343 -213T256 -221Q172 -221 119 -175T66 -50Q66 19 101 68T202 172Q215 183 220 193T226 217V279Q226 294 232 300T251 307Z" horiz-adv-x="506" unicode="¿"/>
			<glyph d="M331 719H394Q406 719 413 712T426 692L701 27Q704 21 704 15Q704 0 685 0H623Q611 0 604 6T592 25L531 180H183L123 25Q114 0 92 0H38Q20 0 20 15Q20 21 24 29L296 692Q301 706 309 712T331 719ZM356 621L218 269H497L360 621ZM255 964H315Q334 964 343 958T363 937L440 821Q445 814 445 807Q445 794 426 794H399Q383 794 374 798T353 817L249 929Q238 942 238 951Q238 964 255 964Z" horiz-adv-x="724" unicode="À"/>
			<glyph d="M331 719H394Q406 719 413 712T426 692L701 27Q704 21 704 15Q704 0 685 0H623Q611 0 604 6T592 25L531 180H183L123 25Q114 0 92 0H38Q20 0 20 15Q20 21 24 29L296 692Q301 706 309 712T331 719ZM356 621L218 269H497L360 621ZM407 964H467Q484 964 484 951Q484 942 473 929L369 817Q356 803 347 798T323 794H296Q277 794 277 807Q277 814 282 821L359 937Q368 951 378 957T407 964Z" horiz-adv-x="724" unicode="Á"/>
			<glyph d="M331 719H394Q406 719 413 712T426 692L701 27Q704 21 704 15Q704 0 685 0H623Q611 0 604 6T592 25L531 180H183L123 25Q114 0 92 0H38Q20 0 20 15Q20 21 24 29L296 692Q301 706 309 712T331 719ZM356 621L218 269H497L360 621ZM342 964H384Q402 964 412 958T432 937L509 821Q514 814 514 807Q514 794 495 794H468Q452 794 443 798T422 816L363 880L304 816Q291 802 282 798T258 794H231Q212 794 212 807Q212 814 217 821L294 937Q303 952 313 958T342 964Z" horiz-adv-x="724" unicode="Â"/>
			<glyph d="M331 719H394Q406 719 413 712T426 692L701 27Q704 21 704 15Q704 0 685 0H623Q611 0 604 6T592 25L531 180H183L123 25Q114 0 92 0H38Q20 0 20 15Q20 21 24 29L296 692Q301 706 309 712T331 719ZM356 621L218 269H497L360 621ZM483 933H510Q526 933 526 914Q526 870 500 841T429 812Q410 812 391 817T345 836Q314 852 298 852Q271 852 263 824Q259 809 238 809H211Q195 809 195 828Q195 873 221 901T292 930Q312 930 331 924T376 906Q408 890 423 890Q450 890 458 918Q462 933 483 933Z" horiz-adv-x="724" unicode="Ã"/>
			<glyph d="M331 719H394Q406 719 413 712T426 692L701 27Q704 21 704 15Q704 0 685 0H623Q611 0 604 6T592 25L531 180H183L123 25Q114 0 92 0H38Q20 0 20 15Q20 21 24 29L296 692Q301 706 309 712T331 719ZM356 621L218 269H497L360 621ZM275 934Q298 934 315 917T332 877Q332 854 315 837T275 821Q252 821 235 837T219 877Q219 900 235 917T275 934ZM449 934Q472 934 489 917T506 877Q506 854 489 837T449 821Q426 821 409 837T393 877Q393 900 409 917T449 934Z" horiz-adv-x="724" unicode="Ä"/>
			<glyph d="M331 719H394Q406 719 413 712T426 692L701 27Q704 21 704 15Q704 0 685 0H623Q611 0 604 6T592 25L531 180H183L123 25Q114 0 92 0H38Q20 0 20 15Q20 21 24 29L296 692Q301 706 309 712T331 719ZM356 621L218 269H497L360 621ZM361 975Q405 975 434 945T464 872Q464 829 435 799T361 770Q317 770 288 799T259 872Q259 915 288 945T361 975ZM361 933Q335 933 318 915T301 872Q301 846 318 829T361 812Q387 812 404 829T422 872Q422 898 404 915T361 933Z" horiz-adv-x="724" unicode="Å"/>
			<glyph d="M467 719H857Q882 719 882 690V655Q882 626 857 626H594V419H830Q855 419 855 390V356Q855 327 830 327H594V93H857Q882 93 882 64V29Q882 0 857 0H521Q495 0 495 29V180H229L137 24Q129 12 121 6T100 0H39Q20 0 20 15Q20 22 27 34L423 692Q439 719 467 719ZM489 621L282 269H495V621Z" horiz-adv-x="942" unicode="Æ"/>
			<glyph d="M430 731Q465 731 507 723T579 703Q590 699 593 693T596 673L592 620Q591 604 580 604Q573 604 535 620Q517 627 489 632T433 638Q306 638 231 560Q156 484 156 359Q156 234 236 157Q276 118 323 99T429 80Q470 80 516 90Q538 96 555 102T578 108Q594 108 595 88L597 41Q597 31 594 25T576 13Q549 3 511 -3T441 -12L406 -60Q424 -55 437 -55Q476 -55 498 -76T520 -132Q520 -178 483 -200T395 -223Q355 -223 322 -209Q310 -204 310 -197Q310 -193 312 -187L315 -178Q317 -172 319 -169T327 -166Q331 -166 349 -172T388 -179Q446 -179 446 -137Q446 -119 433 -108T397 -98Q387 -98 379 -99T364 -100Q356 -100 352 -95T348 -84Q348 -78 358 -62L392 -11Q245 0 156 90Q53 193 53 363Q53 527 159 630Q264 731 430 731Z" horiz-adv-x="630" unicode="Ç"/>
			<glyph d="M120 719H466Q491 719 491 690V655Q491 626 466 626H193V419H439Q464 419 464 390V356Q464 327 439 327H193V93H466Q491 93 491 64V29Q491 0 466 0H120Q94 0 94 29V690Q94 719 120 719ZM168 964H228Q247 964 256 958T276 937L353 821Q358 814 358 807Q358 794 339 794H312Q296 794 287 798T266 817L162 929Q151 942 151 951Q151 964 168 964Z" horiz-adv-x="551" unicode="È"/>
			<glyph d="M120 719H466Q491 719 491 690V655Q491 626 466 626H193V419H439Q464 419 464 390V356Q464 327 439 327H193V93H466Q491 93 491 64V29Q491 0 466 0H120Q94 0 94 29V690Q94 719 120 719ZM330 964H390Q407 964 407 951Q407 942 396 929L292 817Q279 803 270 798T246 794H219Q200 794 200 807Q200 814 205 821L282 937Q291 951 301 957T330 964Z" horiz-adv-x="551" unicode="É"/>
			<glyph d="M120 719H466Q491 719 491 690V655Q491 626 466 626H193V419H439Q464 419 464 390V356Q464 327 439 327H193V93H466Q491 93 491 64V29Q491 0 466 0H120Q94 0 94 29V690Q94 719 120 719ZM255 964H297Q315 964 325 958T345 937L422 821Q427 814 427 807Q427 794 408 794H381Q365 794 356 798T335 816L276 880L217 816Q204 802 195 798T171 794H144Q125 794 125 807Q125 814 130 821L207 937Q216 952 226 958T255 964Z" horiz-adv-x="551" unicode="Ê"/>
			<glyph d="M120 719H466Q491 719 491 690V655Q491 626 466 626H193V419H439Q464 419 464 390V356Q464 327 439 327H193V93H466Q491 93 491 64V29Q491 0 466 0H120Q94 0 94 29V690Q94 719 120 719ZM188 934Q211 934 228 917T245 877Q245 854 228 837T188 821Q165 821 148 837T132 877Q132 900 148 917T188 934ZM362 934Q385 934 402 917T419 877Q419 854 402 837T362 821Q339 821 322 837T306 877Q306 900 322 917T362 934Z" horiz-adv-x="551" unicode="Ë"/>
			<glyph d="M61 719H298Q323 719 323 690V659Q323 630 298 630H229V89H298Q323 89 323 60V29Q323 0 298 0H61Q35 0 35 29V60Q35 89 61 89H130V630H61Q35 630 35 659V690Q35 719 61 719ZM62 964H122Q141 964 150 958T170 937L247 821Q252 814 252 807Q252 794 233 794H206Q190 794 181 798T160 817L56 929Q45 942 45 951Q45 964 62 964Z" horiz-adv-x="358" unicode="Ì"/>
			<glyph d="M61 719H298Q323 719 323 690V659Q323 630 298 630H229V89H298Q323 89 323 60V29Q323 0 298 0H61Q35 0 35 29V60Q35 89 61 89H130V630H61Q35 630 35 659V690Q35 719 61 719ZM244 964H304Q321 964 321 951Q321 942 310 929L206 817Q193 803 184 798T160 794H133Q114 794 114 807Q114 814 119 821L196 937Q205 951 215 957T244 964Z" horiz-adv-x="358" unicode="Í"/>
			<glyph d="M61 719H298Q323 719 323 690V659Q323 630 298 630H229V89H298Q323 89 323 60V29Q323 0 298 0H61Q35 0 35 29V60Q35 89 61 89H130V630H61Q35 630 35 659V690Q35 719 61 719ZM159 964H201Q219 964 229 958T249 937L326 821Q331 814 331 807Q331 794 312 794H285Q269 794 260 798T239 816L180 880L121 816Q108 802 99 798T75 794H48Q29 794 29 807Q29 814 34 821L111 937Q120 952 130 958T159 964Z" horiz-adv-x="358" unicode="Î"/>
			<glyph d="M61 719H298Q323 719 323 690V659Q323 630 298 630H229V89H298Q323 89 323 60V29Q323 0 298 0H61Q35 0 35 29V60Q35 89 61 89H130V630H61Q35 630 35 659V690Q35 719 61 719ZM92 934Q115 934 132 917T149 877Q149 854 132 837T92 821Q69 821 52 837T36 877Q36 900 52 917T92 934ZM266 934Q289 934 306 917T323 877Q323 854 306 837T266 821Q243 821 226 837T210 877Q210 900 226 917T266 934Z" horiz-adv-x="358" unicode="Ï"/>
			<glyph d="M120 719H307Q418 719 503 678T636 557T684 366Q684 190 584 95T304 0H120Q94 0 94 29V335H47Q21 335 21 364V380Q21 409 47 409H94V690Q94 719 120 719ZM193 626V409H353Q378 409 378 380V364Q378 335 353 335H193V90H303Q579 90 579 361Q579 481 503 556Q464 594 411 610T293 626Z" horiz-adv-x="737" unicode="Ð"/>
			<glyph d="M120 719H205Q228 719 245 690L557 134V690Q557 719 583 719H627Q652 719 652 690V29Q652 0 627 0H550Q537 0 527 6T509 28L189 597V29Q189 0 164 0H120Q94 0 94 29V690Q94 719 120 719ZM494 933H521Q537 933 537 914Q537 870 511 841T440 812Q421 812 402 817T356 836Q325 852 309 852Q282 852 274 824Q270 809 249 809H222Q206 809 206 828Q206 873 232 901T303 930Q323 930 342 924T387 906Q419 890 434 890Q461 890 469 918Q473 933 494 933Z" horiz-adv-x="746" unicode="Ñ"/>
			<glyph d="M394 731Q499 731 576 685T694 556T735 359Q735 246 694 162T576 33T394 -12Q289 -12 212 33T94 162T53 359Q53 472 94 556T212 685T394 731ZM394 638Q317 638 263 601T183 502T156 359Q156 279 183 216T263 117T394 81Q471 81 524 117T605 216T632 359Q632 439 605 502T524 601T394 638ZM297 964H357Q376 964 385 958T405 937L482 821Q487 814 487 807Q487 794 468 794H441Q425 794 416 798T395 817L291 929Q280 942 280 951Q280 964 297 964Z" horiz-adv-x="788" unicode="Ò"/>
			<glyph d="M394 731Q499 731 576 685T694 556T735 359Q735 246 694 162T576 33T394 -12Q289 -12 212 33T94 162T53 359Q53 472 94 556T212 685T394 731ZM394 638Q317 638 263 601T183 502T156 359Q156 279 183 216T263 117T394 81Q471 81 524 117T605 216T632 359Q632 439 605 502T524 601T394 638ZM439 964H499Q516 964 516 951Q516 942 505 929L401 817Q388 803 379 798T355 794H328Q309 794 309 807Q309 814 314 821L391 937Q400 951 410 957T439 964Z" horiz-adv-x="788" unicode="Ó"/>
			<glyph d="M394 731Q499 731 576 685T694 556T735 359Q735 246 694 162T576 33T394 -12Q289 -12 212 33T94 162T53 359Q53 472 94 556T212 685T394 731ZM394 638Q317 638 263 601T183 502T156 359Q156 279 183 216T263 117T394 81Q471 81 524 117T605 216T632 359Q632 439 605 502T524 601T394 638ZM374 964H416Q434 964 444 958T464 937L541 821Q546 814 546 807Q546 794 527 794H500Q484 794 475 798T454 816L395 880L336 816Q323 802 314 798T290 794H263Q244 794 244 807Q244 814 249 821L326 937Q335 952 345 958T374 964Z" horiz-adv-x="788" unicode="Ô"/>
			<glyph d="M394 731Q499 731 576 685T694 556T735 359Q735 246 694 162T576 33T394 -12Q289 -12 212 33T94 162T53 359Q53 472 94 556T212 685T394 731ZM394 638Q317 638 263 601T183 502T156 359Q156 279 183 216T263 117T394 81Q471 81 524 117T605 216T632 359Q632 439 605 502T524 601T394 638ZM516 933H543Q559 933 559 914Q559 870 533 841T462 812Q443 812 424 817T378 836Q347 852 331 852Q304 852 296 824Q292 809 271 809H244Q228 809 228 828Q228 873 254 901T325 930Q345 930 364 924T409 906Q441 890 456 890Q483 890 491 918Q495 933 516 933Z" horiz-adv-x="788" unicode="Õ"/>
			<glyph d="M394 731Q499 731 576 685T694 556T735 359Q735 246 694 162T576 33T394 -12Q289 -12 212 33T94 162T53 359Q53 472 94 556T212 685T394 731ZM394 638Q317 638 263 601T183 502T156 359Q156 279 183 216T263 117T394 81Q471 81 524 117T605 216T632 359Q632 439 605 502T524 601T394 638ZM307 934Q330 934 347 917T364 877Q364 854 347 837T307 821Q284 821 267 837T251 877Q251 900 267 917T307 934ZM481 934Q504 934 521 917T538 877Q538 854 521 837T481 821Q458 821 441 837T425 877Q425 900 441 917T481 934Z" horiz-adv-x="788" unicode="Ö"/>
			<glyph d="M126 564Q135 564 143 556L296 403L449 556Q457 564 466 564Q476 564 487 553L507 533Q518 522 518 512Q518 503 510 495L357 342L509 190Q518 181 518 172Q518 162 507 151L487 131Q476 120 466 120Q457 120 448 129L296 281L144 129Q135 120 126 120Q116 120 105 131L85 151Q74 162 74 172Q74 181 83 190L235 342L82 495Q74 503 74 512Q74 522 85 533L105 553Q116 564 126 564Z" horiz-adv-x="600" unicode="×"/>
			<glyph d="M652 735Q661 735 668 728L679 720Q691 710 691 700Q691 692 683 681L644 630Q688 581 711 512T735 359Q735 246 694 162T576 33T394 -12Q276 -12 194 45L158 -2Q147 -16 136 -16Q126 -16 118 -9L107 -1Q97 8 97 18Q97 28 105 39L143 89Q99 137 76 205T53 359Q53 472 94 556T212 685T394 731Q511 731 594 674L630 721Q641 735 652 735ZM394 638Q317 638 263 601T183 502T156 359Q156 246 207 172L533 595Q474 638 394 638ZM580 547L254 124Q313 81 394 81Q471 81 524 117T605 216T632 359Q632 414 618 462T580 547Z" horiz-adv-x="788" unicode="Ø"/>
			<glyph d="M117 719H164Q189 719 189 690V311Q189 197 235 138T372 80Q463 80 510 138T557 311V690Q557 705 563 712T583 719H630Q644 719 650 712T656 690V298Q656 148 582 68T372 -12Q236 -12 163 68T90 298V690Q90 705 96 712T117 719ZM256 964H316Q335 964 344 958T364 937L441 821Q446 814 446 807Q446 794 427 794H400Q384 794 375 798T354 817L250 929Q239 942 239 951Q239 964 256 964Z" horiz-adv-x="746" unicode="Ù"/>
			<glyph d="M117 719H164Q189 719 189 690V311Q189 197 235 138T372 80Q463 80 510 138T557 311V690Q557 705 563 712T583 719H630Q644 719 650 712T656 690V298Q656 148 582 68T372 -12Q236 -12 163 68T90 298V690Q90 705 96 712T117 719ZM438 964H498Q515 964 515 951Q515 942 504 929L400 817Q387 803 378 798T354 794H327Q308 794 308 807Q308 814 313 821L390 937Q399 951 409 957T438 964Z" horiz-adv-x="746" unicode="Ú"/>
			<glyph d="M117 719H164Q189 719 189 690V311Q189 197 235 138T372 80Q463 80 510 138T557 311V690Q557 705 563 712T583 719H630Q644 719 650 712T656 690V298Q656 148 582 68T372 -12Q236 -12 163 68T90 298V690Q90 705 96 712T117 719ZM353 964H395Q413 964 423 958T443 937L520 821Q525 814 525 807Q525 794 506 794H479Q463 794 454 798T433 816L374 880L315 816Q302 802 293 798T269 794H242Q223 794 223 807Q223 814 228 821L305 937Q314 952 324 958T353 964Z" horiz-adv-x="746" unicode="Û"/>
			<glyph d="M117 719H164Q189 719 189 690V311Q189 197 235 138T372 80Q463 80 510 138T557 311V690Q557 705 563 712T583 719H630Q644 719 650 712T656 690V298Q656 148 582 68T372 -12Q236 -12 163 68T90 298V690Q90 705 96 712T117 719ZM286 934Q309 934 326 917T343 877Q343 854 326 837T286 821Q263 821 246 837T230 877Q230 900 246 917T286 934ZM460 934Q483 934 500 917T517 877Q517 854 500 837T460 821Q437 821 420 837T404 877Q404 900 420 917T460 934Z" horiz-adv-x="746" unicode="Ü"/>
			<glyph d="M33 719H97Q115 719 121 716T135 701L338 400L540 701Q548 713 554 716T578 719H645Q658 719 658 706Q658 698 650 686L387 310V29Q387 0 362 0H315Q289 0 289 29V311L28 686Q20 698 20 706Q20 719 33 719ZM387 943H447Q464 943 464 930Q464 921 453 908L349 796Q336 782 327 777T303 773H276Q257 773 257 786Q257 793 262 800L339 916Q348 930 358 936T387 943Z" horiz-adv-x="678" unicode="Ý"/>
			<glyph d="M120 719H168Q193 719 193 690V600H265Q407 600 477 549T547 385Q547 275 476 221T286 167H193V29Q193 0 168 0H120Q94 0 94 29V690Q94 719 120 719ZM193 507V260H282Q444 260 444 384Q444 453 396 480T270 507Z" horiz-adv-x="590" unicode="Þ"/>
			<glyph d="M325 784Q384 784 432 759T509 688T537 582Q537 519 509 478T422 414Q494 394 531 341T569 216Q569 116 508 55T344 -6H260Q250 -6 243 0T236 16V52Q236 63 243 68T260 74H326Q394 74 435 108T476 212Q476 286 428 326T305 366Q292 366 285 375T278 399V412Q278 446 303 446Q363 446 403 478T444 578Q444 635 408 669T316 703Q244 703 208 651T173 517V29Q173 0 149 0H106Q80 0 80 29V472Q80 568 99 635T174 743T325 784Z" horiz-adv-x="616" unicode="ß"/>
			<glyph d="M280 522Q382 522 446 458H450V481Q450 510 476 510H519Q543 510 543 481V29Q543 0 519 0H480Q454 0 454 29V74H451Q419 29 376 8T276 -12Q204 -12 152 25T74 125T48 261Q48 329 74 388T153 485T280 522ZM294 444Q247 444 213 417T163 347T147 257Q147 212 162 168T211 95T293 67Q364 67 407 119T450 254Q450 311 430 354T374 421T294 444ZM185 755H245Q264 755 273 749T293 728L370 612Q375 605 375 598Q375 585 356 585H329Q313 585 304 589T283 608L179 720Q168 733 168 742Q168 755 185 755Z" horiz-adv-x="623" unicode="à"/>
			<glyph d="M280 522Q382 522 446 458H450V481Q450 510 476 510H519Q543 510 543 481V29Q543 0 519 0H480Q454 0 454 29V74H451Q419 29 376 8T276 -12Q204 -12 152 25T74 125T48 261Q48 329 74 388T153 485T280 522ZM294 444Q247 444 213 417T163 347T147 257Q147 212 162 168T211 95T293 67Q364 67 407 119T450 254Q450 311 430 354T374 421T294 444ZM327 755H387Q404 755 404 742Q404 733 393 720L289 608Q276 594 267 589T243 585H216Q197 585 197 598Q197 605 202 612L279 728Q288 742 298 748T327 755Z" horiz-adv-x="623" unicode="á"/>
			<glyph d="M280 522Q382 522 446 458H450V481Q450 510 476 510H519Q543 510 543 481V29Q543 0 519 0H480Q454 0 454 29V74H451Q419 29 376 8T276 -12Q204 -12 152 25T74 125T48 261Q48 329 74 388T153 485T280 522ZM294 444Q247 444 213 417T163 347T147 257Q147 212 162 168T211 95T293 67Q364 67 407 119T450 254Q450 311 430 354T374 421T294 444ZM277 755H319Q337 755 347 749T367 728L444 612Q449 605 449 598Q449 585 430 585H403Q387 585 378 589T357 607L298 671L239 607Q226 593 217 589T193 585H166Q147 585 147 598Q147 605 152 612L229 728Q238 743 248 749T277 755Z" horiz-adv-x="623" unicode="â"/>
			<glyph d="M280 522Q382 522 446 458H450V481Q450 510 476 510H519Q543 510 543 481V29Q543 0 519 0H480Q454 0 454 29V74H451Q419 29 376 8T276 -12Q204 -12 152 25T74 125T48 261Q48 329 74 388T153 485T280 522ZM294 444Q247 444 213 417T163 347T147 257Q147 212 162 168T211 95T293 67Q364 67 407 119T450 254Q450 311 430 354T374 421T294 444ZM419 724H446Q462 724 462 705Q462 661 436 632T365 603Q346 603 327 608T281 627Q250 643 234 643Q207 643 199 615Q195 600 174 600H147Q131 600 131 619Q131 664 157 692T228 721Q248 721 267 715T312 697Q344 681 359 681Q386 681 394 709Q398 724 419 724Z" horiz-adv-x="623" unicode="ã"/>
			<glyph d="M280 522Q382 522 446 458H450V481Q450 510 476 510H519Q543 510 543 481V29Q543 0 519 0H480Q454 0 454 29V74H451Q419 29 376 8T276 -12Q204 -12 152 25T74 125T48 261Q48 329 74 388T153 485T280 522ZM294 444Q247 444 213 417T163 347T147 257Q147 212 162 168T211 95T293 67Q364 67 407 119T450 254Q450 311 430 354T374 421T294 444ZM210 725Q233 725 250 708T267 668Q267 645 250 628T210 612Q187 612 170 628T154 668Q154 691 170 708T210 725ZM384 725Q407 725 424 708T441 668Q441 645 424 628T384 612Q361 612 344 628T328 668Q328 691 344 708T384 725Z" horiz-adv-x="623" unicode="ä"/>
			<glyph d="M280 522Q382 522 446 458H450V481Q450 510 476 510H519Q543 510 543 481V29Q543 0 519 0H480Q454 0 454 29V74H451Q419 29 376 8T276 -12Q204 -12 152 25T74 125T48 261Q48 329 74 388T153 485T280 522ZM294 444Q247 444 213 417T163 347T147 257Q147 212 162 168T211 95T293 67Q364 67 407 119T450 254Q450 311 430 354T374 421T294 444ZM292 766Q336 766 365 736T395 663Q395 620 366 590T292 561Q248 561 219 590T190 663Q190 706 219 736T292 766ZM292 724Q266 724 249 706T232 663Q232 637 249 620T292 603Q318 603 335 620T353 663Q353 689 335 706T292 724Z" horiz-adv-x="623" unicode="å"/>
			<glyph d="M278 522Q380 522 444 458H448V481Q448 510 474 510H517Q541 510 541 481V467Q598 522 686 522Q793 522 853 455T914 268Q914 250 905 241T876 233H541Q542 185 565 147T627 87T715 66Q754 66 781 73T836 94Q856 103 862 103Q874 103 875 88L878 45Q879 33 873 27T855 17Q788 -12 711 -12Q602 -12 541 44V29Q541 0 517 0H478Q452 0 452 29V74H449Q417 28 374 8T274 -12Q202 -12 150 25T72 125T46 261Q46 329 72 388T151 485T278 522ZM298 444Q225 444 185 390T145 257Q145 177 184 122T296 67Q350 67 390 98T448 185V343Q427 392 387 418T298 444ZM684 441Q625 441 586 402T542 305H818Q816 366 780 403T684 441Z" horiz-adv-x="959" unicode="æ"/>
			<glyph d="M313 522Q341 522 371 516T420 500Q434 492 434 478Q434 471 433 467L430 439Q429 422 414 422Q409 422 382 431T320 441Q267 441 228 415T168 346T147 255Q147 204 168 161T229 92T327 66Q364 66 401 81Q417 87 421 87Q428 87 431 83T435 70L437 31Q437 22 431 16T411 5Q372 -9 329 -11L293 -60Q311 -55 324 -55Q363 -55 385 -76T407 -132Q407 -178 371 -200T282 -223Q242 -223 209 -209Q197 -204 197 -197Q197 -193 199 -187L202 -178Q204 -172 206 -169T214 -166Q218 -166 236 -172T275 -179Q333 -179 333 -137Q333 -119 320 -108T284 -98Q274 -98 266 -99T251 -100Q243 -100 239 -95T235 -84Q235 -78 245 -62L279 -10Q207 -3 155 33T75 127T48 253Q48 328 80 389T172 486T313 522Z" horiz-adv-x="465" unicode="ç"/>
			<glyph d="M292 522Q399 522 459 455T520 268Q520 250 511 241T482 233H147Q148 185 171 147T233 87T321 66Q360 66 387 73T442 94Q462 103 468 103Q480 103 481 88L484 45Q485 33 479 27T461 17Q394 -12 317 -12Q190 -12 119 61T48 262Q48 336 78 395T164 488T292 522ZM290 441Q231 441 192 402T148 305H424Q422 366 386 403T290 441ZM176 755H236Q255 755 264 749T284 728L361 612Q366 605 366 598Q366 585 347 585H320Q304 585 295 589T274 608L170 720Q159 733 159 742Q159 755 176 755Z" horiz-adv-x="565" unicode="è"/>
			<glyph d="M292 522Q399 522 459 455T520 268Q520 250 511 241T482 233H147Q148 185 171 147T233 87T321 66Q360 66 387 73T442 94Q462 103 468 103Q480 103 481 88L484 45Q485 33 479 27T461 17Q394 -12 317 -12Q190 -12 119 61T48 262Q48 336 78 395T164 488T292 522ZM290 441Q231 441 192 402T148 305H424Q422 366 386 403T290 441ZM338 755H398Q415 755 415 742Q415 733 404 720L300 608Q287 594 278 589T254 585H227Q208 585 208 598Q208 605 213 612L290 728Q299 742 309 748T338 755Z" horiz-adv-x="565" unicode="é"/>
			<glyph d="M292 522Q399 522 459 455T520 268Q520 250 511 241T482 233H147Q148 185 171 147T233 87T321 66Q360 66 387 73T442 94Q462 103 468 103Q480 103 481 88L484 45Q485 33 479 27T461 17Q394 -12 317 -12Q190 -12 119 61T48 262Q48 336 78 395T164 488T292 522ZM290 441Q231 441 192 402T148 305H424Q422 366 386 403T290 441ZM263 755H305Q323 755 333 749T353 728L430 612Q435 605 435 598Q435 585 416 585H389Q373 585 364 589T343 607L284 671L225 607Q212 593 203 589T179 585H152Q133 585 133 598Q133 605 138 612L215 728Q224 743 234 749T263 755Z" horiz-adv-x="565" unicode="ê"/>
			<glyph d="M292 522Q399 522 459 455T520 268Q520 250 511 241T482 233H147Q148 185 171 147T233 87T321 66Q360 66 387 73T442 94Q462 103 468 103Q480 103 481 88L484 45Q485 33 479 27T461 17Q394 -12 317 -12Q190 -12 119 61T48 262Q48 336 78 395T164 488T292 522ZM290 441Q231 441 192 402T148 305H424Q422 366 386 403T290 441ZM196 725Q219 725 236 708T253 668Q253 645 236 628T196 612Q173 612 156 628T140 668Q140 691 156 708T196 725ZM370 725Q393 725 410 708T427 668Q427 645 410 628T370 612Q347 612 330 628T314 668Q314 691 330 708T370 725Z" horiz-adv-x="565" unicode="ë"/>
			<glyph d="M106 510H149Q173 510 173 481V29Q173 0 149 0H106Q80 0 80 29V481Q80 510 106 510ZM11 755H71Q90 755 99 749T119 728L196 612Q201 605 201 598Q201 585 182 585H155Q139 585 130 589T109 608L5 720Q-6 733 -6 742Q-6 755 11 755Z" horiz-adv-x="253" unicode="ì"/>
			<glyph d="M106 510H149Q173 510 173 481V29Q173 0 149 0H106Q80 0 80 29V481Q80 510 106 510ZM190 755H250Q267 755 267 742Q267 733 256 720L152 608Q139 594 130 589T106 585H79Q60 585 60 598Q60 605 65 612L142 728Q151 742 161 748T190 755Z" horiz-adv-x="253" unicode="í"/>
			<glyph d="M106 510H149Q173 510 173 481V29Q173 0 149 0H106Q80 0 80 29V481Q80 510 106 510ZM106 755H148Q166 755 176 749T196 728L273 612Q278 605 278 598Q278 585 259 585H232Q216 585 207 589T186 607L127 671L68 607Q55 593 46 589T22 585H-5Q-24 585 -24 598Q-24 605 -19 612L58 728Q67 743 77 749T106 755Z" horiz-adv-x="253" unicode="î"/>
			<glyph d="M106 510H149Q173 510 173 481V29Q173 0 149 0H106Q80 0 80 29V481Q80 510 106 510ZM39 725Q62 725 79 708T96 668Q96 645 79 628T39 612Q16 612 0 628T-17 668Q-17 691 0 708T39 725ZM213 725Q236 725 253 708T270 668Q270 645 253 628T213 612Q190 612 173 628T157 668Q157 691 173 708T213 725Z" horiz-adv-x="253" unicode="ï"/>
			<glyph d="M386 794Q398 794 408 778L416 765Q423 755 423 746Q423 735 411 727L347 686Q455 611 516 505T578 271Q578 175 540 111T442 18T313 -12Q242 -12 181 19T84 112T48 255Q48 337 84 398T181 490T313 522Q355 522 394 511Q353 574 265 632L164 567Q155 561 148 561Q136 561 126 577L117 591Q110 603 110 610Q110 620 123 629L193 674Q156 692 116 704Q109 706 105 711T101 724Q101 727 105 737L123 772Q129 783 144 783Q152 783 169 778Q217 760 278 729L371 789Q379 794 386 794ZM313 443Q262 443 224 417T167 349T147 255Q147 204 167 161T224 92T313 67Q364 67 401 92T459 161T479 255Q479 306 459 349T401 417T313 443Z" horiz-adv-x="625" unicode="ð"/>
			<glyph d="M349 522Q447 522 493 465T539 305V29Q539 0 515 0H472Q446 0 446 29V297Q446 443 331 443Q258 443 215 387T173 245V29Q173 0 147 0H104Q80 0 80 29V481Q80 510 104 510H143Q169 510 169 481V438H176Q235 522 349 522ZM431 724H458Q474 724 474 705Q474 661 448 632T377 603Q358 603 339 608T293 627Q262 643 246 643Q219 643 211 615Q207 600 186 600H159Q143 600 143 619Q143 664 169 692T240 721Q260 721 279 715T324 697Q356 681 371 681Q398 681 406 709Q410 724 431 724Z" horiz-adv-x="619" unicode="ñ"/>
			<glyph d="M313 522Q384 522 444 490T541 398T578 255Q578 173 541 112T444 19T313 -12Q242 -12 181 19T84 112T48 255Q48 337 84 398T181 490T313 522ZM313 443Q262 443 224 417T167 349T147 255Q147 204 167 161T224 92T313 67Q364 67 401 92T459 161T479 255Q479 306 459 349T401 417T313 443ZM206 755H266Q285 755 294 749T314 728L391 612Q396 605 396 598Q396 585 377 585H350Q334 585 325 589T304 608L200 720Q189 733 189 742Q189 755 206 755Z" horiz-adv-x="625" unicode="ò"/>
			<glyph d="M313 522Q384 522 444 490T541 398T578 255Q578 173 541 112T444 19T313 -12Q242 -12 181 19T84 112T48 255Q48 337 84 398T181 490T313 522ZM313 443Q262 443 224 417T167 349T147 255Q147 204 167 161T224 92T313 67Q364 67 401 92T459 161T479 255Q479 306 459 349T401 417T313 443ZM368 755H428Q445 755 445 742Q445 733 434 720L330 608Q317 594 308 589T284 585H257Q238 585 238 598Q238 605 243 612L320 728Q329 742 339 748T368 755Z" horiz-adv-x="625" unicode="ó"/>
			<glyph d="M313 522Q384 522 444 490T541 398T578 255Q578 173 541 112T444 19T313 -12Q242 -12 181 19T84 112T48 255Q48 337 84 398T181 490T313 522ZM313 443Q262 443 224 417T167 349T147 255Q147 204 167 161T224 92T313 67Q364 67 401 92T459 161T479 255Q479 306 459 349T401 417T313 443ZM293 755H335Q353 755 363 749T383 728L460 612Q465 605 465 598Q465 585 446 585H419Q403 585 394 589T373 607L314 671L255 607Q242 593 233 589T209 585H182Q163 585 163 598Q163 605 168 612L245 728Q254 743 264 749T293 755Z" horiz-adv-x="625" unicode="ô"/>
			<glyph d="M313 522Q384 522 444 490T541 398T578 255Q578 173 541 112T444 19T313 -12Q242 -12 181 19T84 112T48 255Q48 337 84 398T181 490T313 522ZM313 443Q262 443 224 417T167 349T147 255Q147 204 167 161T224 92T313 67Q364 67 401 92T459 161T479 255Q479 306 459 349T401 417T313 443ZM434 724H461Q477 724 477 705Q477 661 451 632T380 603Q361 603 342 608T296 627Q265 643 249 643Q222 643 214 615Q210 600 189 600H162Q146 600 146 619Q146 664 172 692T243 721Q263 721 282 715T327 697Q359 681 374 681Q401 681 409 709Q413 724 434 724Z" horiz-adv-x="625" unicode="õ"/>
			<glyph d="M313 522Q384 522 444 490T541 398T578 255Q578 173 541 112T444 19T313 -12Q242 -12 181 19T84 112T48 255Q48 337 84 398T181 490T313 522ZM313 443Q262 443 224 417T167 349T147 255Q147 204 167 161T224 92T313 67Q364 67 401 92T459 161T479 255Q479 306 459 349T401 417T313 443ZM226 725Q249 725 266 708T283 668Q283 645 266 628T226 612Q203 612 186 628T170 668Q170 691 186 708T226 725ZM400 725Q423 725 440 708T457 668Q457 645 440 628T400 612Q377 612 360 628T344 668Q344 691 360 708T400 725Z" horiz-adv-x="625" unicode="ö"/>
			<glyph d="M299 629Q331 629 353 606T376 552Q376 521 353 498T299 476Q268 476 245 498T223 552Q223 584 245 606T299 629ZM75 389H525Q553 389 553 362V328Q553 301 525 301H75Q47 301 47 328V362Q47 389 75 389ZM299 214Q331 214 353 191T376 137Q376 106 353 83T299 61Q268 61 245 83T223 137Q223 169 245 191T299 214Z" horiz-adv-x="600" unicode="÷"/>
			<glyph d="M508 535Q513 535 520 530L528 524Q537 518 537 510Q537 504 531 496L497 453Q535 417 556 367T578 255Q578 173 541 112T444 19T313 -12Q230 -12 167 27L134 -15Q126 -26 118 -26Q113 -26 105 -20L97 -15Q90 -9 90 -1Q90 7 96 14L129 56Q90 92 69 142T48 255Q48 337 84 398T181 490T313 522Q394 522 459 482L493 525Q500 535 508 535ZM313 443Q262 443 224 417T167 349T147 255Q147 181 185 129L407 414Q367 443 313 443ZM441 380L220 95Q259 67 313 67Q364 67 401 92T459 161T479 255Q479 328 441 380Z" horiz-adv-x="625" unicode="ø"/>
			<glyph d="M104 510H147Q173 510 173 481V225Q173 152 199 109T288 67Q364 67 405 126T446 273V481Q446 510 472 510H515Q539 510 539 481V29Q539 0 515 0H476Q450 0 450 29V81H443Q413 32 370 10T270 -12Q172 -12 126 45T80 205V481Q80 510 104 510ZM182 755H242Q261 755 270 749T290 728L367 612Q372 605 372 598Q372 585 353 585H326Q310 585 301 589T280 608L176 720Q165 733 165 742Q165 755 182 755Z" horiz-adv-x="619" unicode="ù"/>
			<glyph d="M104 510H147Q173 510 173 481V225Q173 152 199 109T288 67Q364 67 405 126T446 273V481Q446 510 472 510H515Q539 510 539 481V29Q539 0 515 0H476Q450 0 450 29V81H443Q413 32 370 10T270 -12Q172 -12 126 45T80 205V481Q80 510 104 510ZM354 755H414Q431 755 431 742Q431 733 420 720L316 608Q303 594 294 589T270 585H243Q224 585 224 598Q224 605 229 612L306 728Q315 742 325 748T354 755Z" horiz-adv-x="619" unicode="ú"/>
			<glyph d="M104 510H147Q173 510 173 481V225Q173 152 199 109T288 67Q364 67 405 126T446 273V481Q446 510 472 510H515Q539 510 539 481V29Q539 0 515 0H476Q450 0 450 29V81H443Q413 32 370 10T270 -12Q172 -12 126 45T80 205V481Q80 510 104 510ZM289 755H331Q349 755 359 749T379 728L456 612Q461 605 461 598Q461 585 442 585H415Q399 585 390 589T369 607L310 671L251 607Q238 593 229 589T205 585H178Q159 585 159 598Q159 605 164 612L241 728Q250 743 260 749T289 755Z" horiz-adv-x="619" unicode="û"/>
			<glyph d="M104 510H147Q173 510 173 481V225Q173 152 199 109T288 67Q364 67 405 126T446 273V481Q446 510 472 510H515Q539 510 539 481V29Q539 0 515 0H476Q450 0 450 29V81H443Q413 32 370 10T270 -12Q172 -12 126 45T80 205V481Q80 510 104 510ZM222 725Q245 725 262 708T279 668Q279 645 262 628T222 612Q199 612 182 628T166 668Q166 691 182 708T222 725ZM396 725Q419 725 436 708T453 668Q453 645 436 628T396 612Q373 612 356 628T340 668Q340 691 356 708T396 725Z" horiz-adv-x="619" unicode="ü"/>
			<glyph d="M38 510H95Q107 510 113 504T125 485L258 98H265L398 485Q403 499 409 504T428 510H479Q497 510 497 495Q497 491 491 475L221 -246Q216 -260 209 -265T191 -271H140Q122 -271 122 -256Q122 -252 128 -236L215 -21L26 475Q25 478 22 484T20 495Q20 510 38 510ZM313 755H373Q390 755 390 742Q390 733 379 720L275 608Q262 594 253 589T229 585H202Q183 585 183 598Q183 605 188 612L265 728Q274 742 284 748T313 755Z" horiz-adv-x="516" unicode="ý"/>
			<glyph d="M106 774H149Q173 774 173 745V441H176Q237 522 349 522Q421 522 472 485T549 387T575 251Q575 183 549 123T472 25T349 -12Q236 -12 177 71H173V-230Q173 -259 147 -259H104Q80 -259 80 -230V745Q80 774 106 774ZM331 443Q284 443 248 419T192 353T173 260Q173 170 216 118T330 66Q377 66 410 93T459 162T476 253Q476 300 461 343T413 415T331 443Z" horiz-adv-x="622" unicode="þ"/>
			<glyph d="M38 510H95Q107 510 113 504T125 485L258 98H265L398 485Q403 499 409 504T428 510H479Q497 510 497 495Q497 491 491 475L221 -246Q216 -260 209 -265T191 -271H140Q122 -271 122 -256Q122 -252 128 -236L215 -21L26 475Q25 478 22 484T20 495Q20 510 38 510ZM169 725Q192 725 209 708T226 668Q226 645 209 628T169 612Q146 612 129 628T113 668Q113 691 129 708T169 725ZM343 725Q366 725 383 708T400 668Q400 645 383 628T343 612Q320 612 303 628T287 668Q287 691 303 708T343 725Z" horiz-adv-x="516" unicode="ÿ"/>
			<glyph d="M331 719H394Q406 719 413 712T426 692L701 27Q704 21 704 15Q704 0 685 0H623Q611 0 604 6T592 25L531 180H183L123 25Q114 0 92 0H38Q20 0 20 15Q20 21 24 29L296 692Q301 706 309 712T331 719ZM356 621L218 269H497L360 621ZM255 884H472Q495 884 495 855V837Q495 808 472 808H255Q229 808 229 835V857Q229 884 255 884Z" horiz-adv-x="724" unicode="Ā"/>
			<glyph d="M280 522Q382 522 446 458H450V481Q450 510 476 510H519Q543 510 543 481V29Q543 0 519 0H480Q454 0 454 29V74H451Q419 29 376 8T276 -12Q204 -12 152 25T74 125T48 261Q48 329 74 388T153 485T280 522ZM294 444Q247 444 213 417T163 347T147 257Q147 212 162 168T211 95T293 67Q364 67 407 119T450 254Q450 311 430 354T374 421T294 444ZM204 675H421Q444 675 444 646V628Q444 599 421 599H204Q178 599 178 626V648Q178 675 204 675Z" horiz-adv-x="623" unicode="ā"/>
			<glyph d="M120 719H466Q491 719 491 690V655Q491 626 466 626H193V419H439Q464 419 464 390V356Q464 327 439 327H193V93H466Q491 93 491 64V29Q491 0 466 0H120Q94 0 94 29V690Q94 719 120 719ZM168 884H385Q408 884 408 855V837Q408 808 385 808H168Q142 808 142 835V857Q142 884 168 884Z" horiz-adv-x="551" unicode="Ē"/>
			<glyph d="M292 522Q399 522 459 455T520 268Q520 250 511 241T482 233H147Q148 185 171 147T233 87T321 66Q360 66 387 73T442 94Q462 103 468 103Q480 103 481 88L484 45Q485 33 479 27T461 17Q394 -12 317 -12Q190 -12 119 61T48 262Q48 336 78 395T164 488T292 522ZM290 441Q231 441 192 402T148 305H424Q422 366 386 403T290 441ZM175 675H392Q415 675 415 646V628Q415 599 392 599H175Q149 599 149 626V648Q149 675 175 675Z" horiz-adv-x="565" unicode="ē"/>
			<glyph d="M120 719H466Q491 719 491 690V655Q491 626 466 626H193V419H439Q464 419 464 390V356Q464 327 439 327H193V93H466Q491 93 491 64V29Q491 0 466 0H120Q94 0 94 29V690Q94 719 120 719ZM283 934Q306 934 323 917T340 877Q340 854 323 837T283 821Q260 821 243 837T227 877Q227 900 243 917T283 934Z" horiz-adv-x="551" unicode="Ė"/>
			<glyph d="M292 522Q399 522 459 455T520 268Q520 250 511 241T482 233H147Q148 185 171 147T233 87T321 66Q360 66 387 73T442 94Q462 103 468 103Q480 103 481 88L484 45Q485 33 479 27T461 17Q394 -12 317 -12Q190 -12 119 61T48 262Q48 336 78 395T164 488T292 522ZM290 441Q231 441 192 402T148 305H424Q422 366 386 403T290 441ZM291 725Q314 725 331 708T348 668Q348 645 331 628T291 612Q268 612 251 628T235 668Q235 691 251 708T291 725Z" horiz-adv-x="565" unicode="ė"/>
			<glyph d="M61 719H298Q323 719 323 690V659Q323 630 298 630H229V89H298Q323 89 323 60V29Q323 0 298 0H61Q35 0 35 29V60Q35 89 61 89H130V630H61Q35 630 35 659V690Q35 719 61 719ZM72 884H289Q312 884 312 855V837Q312 808 289 808H72Q46 808 46 835V857Q46 884 72 884Z" horiz-adv-x="358" unicode="Ī"/>
			<glyph d="M106 510H149Q173 510 173 481V29Q173 0 149 0H106Q80 0 80 29V481Q80 510 106 510ZM20 675H237Q260 675 260 646V628Q260 599 237 599H20Q-6 599 -6 626V648Q-6 675 20 675Z" horiz-adv-x="253" unicode="ī"/>
			<glyph d="M106 510H149Q173 510 173 481V29Q173 0 149 0H106Q80 0 80 29V481Q80 510 106 510Z" horiz-adv-x="253" unicode="ı"/>
			<glyph d="M120 719H168Q193 719 193 690V375L352 463Q372 473 380 473Q395 473 395 448V433Q395 410 389 401T361 380L193 287V93H468Q493 93 493 64V29Q493 0 468 0H120Q94 0 94 29V232L71 220Q54 210 43 210Q28 210 28 234V250Q28 272 33 280T62 302L94 320V690Q94 719 120 719Z" horiz-adv-x="531" unicode="Ł"/>
			<glyph d="M104 774H147Q173 774 173 745V439L210 460Q230 470 238 470Q253 470 253 445V430Q253 407 247 398T219 377L173 351V29Q173 0 147 0H104Q80 0 80 29V310L43 290Q26 280 15 280Q0 280 0 304V320Q0 342 5 350T34 372L80 397V745Q80 774 104 774Z" horiz-adv-x="253" unicode="ł"/>
			<glyph d="M349 522Q446 522 492 465T539 305V-76Q539 -171 507 -221T394 -272Q366 -272 350 -267Q335 -262 336 -246L340 -207Q341 -194 346 -190T361 -186Q365 -186 371 -186T389 -187Q423 -187 434 -163T446 -93V297Q446 443 331 443Q256 443 214 386T173 245V29Q173 0 147 0H104Q80 0 80 29V481Q80 510 104 510H143Q169 510 169 481V438H176Q235 522 349 522Z" horiz-adv-x="619" unicode="ŋ"/>
			<glyph d="M394 731Q499 731 576 685T694 556T735 359Q735 246 694 162T576 33T394 -12Q289 -12 212 33T94 162T53 359Q53 472 94 556T212 685T394 731ZM394 638Q317 638 263 601T183 502T156 359Q156 279 183 216T263 117T394 81Q471 81 524 117T605 216T632 359Q632 439 605 502T524 601T394 638ZM287 884H504Q527 884 527 855V837Q527 808 504 808H287Q261 808 261 835V857Q261 884 287 884Z" horiz-adv-x="788" unicode="Ō"/>
			<glyph d="M313 522Q384 522 444 490T541 398T578 255Q578 173 541 112T444 19T313 -12Q242 -12 181 19T84 112T48 255Q48 337 84 398T181 490T313 522ZM313 443Q262 443 224 417T167 349T147 255Q147 204 167 161T224 92T313 67Q364 67 401 92T459 161T479 255Q479 306 459 349T401 417T313 443ZM205 675H422Q445 675 445 646V628Q445 599 422 599H205Q179 599 179 626V648Q179 675 205 675Z" horiz-adv-x="625" unicode="ō"/>
			<glyph d="M394 731Q424 731 480 725T562 719H875Q900 719 900 690V655Q900 626 875 626H604V419H848Q873 419 873 390V356Q873 327 848 327H604V93H875Q900 93 900 64V29Q900 0 875 0H562Q536 0 480 -6T394 -12Q289 -12 212 33T94 162T53 359Q53 472 94 556T212 685T394 731ZM394 638Q317 638 263 601T183 502T156 359Q156 279 183 216T263 117T394 81Q456 81 505 103V616Q456 638 394 638Z" horiz-adv-x="960" unicode="Œ"/>
			<glyph d="M313 522Q377 522 433 496T526 421Q558 469 609 495T723 522Q830 522 890 455T951 268Q951 250 942 241T913 233H578Q579 185 602 147T664 87T752 66Q791 66 818 73T873 94Q893 103 899 103Q911 103 912 88L915 45Q916 33 910 27T892 17Q825 -12 748 -12Q673 -12 616 14T527 90Q490 40 434 14T313 -12Q242 -12 181 19T84 112T48 255Q48 337 84 398T181 490T313 522ZM313 443Q262 443 224 417T167 349T147 255Q147 204 167 161T224 92T313 67Q364 67 401 92T459 161T479 255Q479 306 459 349T401 417T313 443ZM721 441Q662 441 623 402T579 305H855Q853 366 817 403T721 441Z" horiz-adv-x="996" unicode="œ"/>
			<glyph d="M276 731Q306 731 345 723T415 702Q426 697 429 693T433 682Q433 676 432 672L422 623Q419 607 410 607Q404 607 390 613T352 627Q317 638 273 638Q219 638 185 613T152 543Q152 503 183 476T279 420Q344 390 383 362T445 294T468 196Q468 124 432 77T342 9T228 -12Q188 -12 147 -3T76 20Q64 26 59 33T56 52L62 105Q64 122 77 122Q83 122 101 113T131 100Q158 90 180 85T229 81Q284 81 325 109T367 192Q367 235 335 266T241 324Q180 351 140 377T76 442T51 538Q51 633 113 682T276 731ZM134 943H161Q177 943 185 939T207 921L266 857L325 921Q338 935 346 939T371 943H398Q417 943 417 930Q417 923 412 916L335 800Q326 785 315 779T287 773H245Q226 773 216 779T197 800L120 916Q115 923 115 930Q115 943 134 943Z" horiz-adv-x="515" unicode="Š"/>
			<glyph d="M228 522Q252 522 281 516T335 500Q346 495 350 491T355 480Q355 477 353 469L345 435Q343 426 339 422T327 419Q319 419 302 426Q281 433 265 437T226 441Q190 441 169 426T148 387Q148 359 170 340T259 292Q326 261 353 227T380 139Q380 87 352 53T282 3T194 -12Q163 -12 132 -5T77 12Q65 18 60 24T58 42L62 76Q64 88 68 93T83 99Q91 99 105 91Q126 81 146 75T194 69Q231 69 258 84T285 134Q285 164 262 182T178 228Q115 255 84 290T54 380Q54 448 102 485T228 522ZM85 755H112Q128 755 136 751T158 733L217 669L276 733Q289 747 297 751T322 755H349Q368 755 368 742Q368 735 363 728L286 612Q277 597 266 591T238 585H196Q177 585 167 591T148 612L71 728Q66 735 66 742Q66 755 85 755Z" horiz-adv-x="434" unicode="š"/>
			<glyph d="M117 719H164Q189 719 189 690V311Q189 197 235 138T372 80Q463 80 510 138T557 311V690Q557 705 563 712T583 719H630Q644 719 650 712T656 690V298Q656 148 582 68T372 -12Q236 -12 163 68T90 298V690Q90 705 96 712T117 719ZM266 884H483Q506 884 506 855V837Q506 808 483 808H266Q240 808 240 835V857Q240 884 266 884Z" horiz-adv-x="746" unicode="Ū"/>
			<glyph d="M104 510H147Q173 510 173 481V225Q173 152 199 109T288 67Q364 67 405 126T446 273V481Q446 510 472 510H515Q539 510 539 481V29Q539 0 515 0H476Q450 0 450 29V81H443Q413 32 370 10T270 -12Q172 -12 126 45T80 205V481Q80 510 104 510ZM202 675H419Q442 675 442 646V628Q442 599 419 599H202Q176 599 176 626V648Q176 675 202 675Z" horiz-adv-x="619" unicode="ū"/>
			<glyph d="M33 719H97Q115 719 121 716T135 701L338 400L540 701Q548 713 554 716T578 719H645Q658 719 658 706Q658 698 650 686L387 310V29Q387 0 362 0H315Q289 0 289 29V311L28 686Q20 698 20 706Q20 719 33 719ZM252 934Q275 934 292 917T309 877Q309 854 292 837T252 821Q229 821 212 837T196 877Q196 900 212 917T252 934ZM426 934Q449 934 466 917T483 877Q483 854 466 837T426 821Q403 821 386 837T370 877Q370 900 386 917T426 934Z" horiz-adv-x="678" unicode="Ÿ"/>
			<glyph d="M73 719H496Q521 719 521 690V652Q521 635 517 624T505 600L153 96H502Q528 96 528 67V29Q528 0 502 0H60Q35 0 35 29V67Q35 84 38 94T51 119L403 623H73Q47 623 47 652V690Q47 719 73 719ZM141 943H168Q184 943 192 939T214 921L273 857L332 921Q345 935 353 939T378 943H405Q424 943 424 930Q424 923 419 916L342 800Q333 785 322 779T294 773H252Q233 773 223 779T204 800L127 916Q122 923 122 930Q122 943 141 943Z" horiz-adv-x="563" unicode="Ž"/>
			<glyph d="M84 510H428Q453 510 453 481V461Q453 447 450 437T438 417L152 78H440Q465 78 465 49V29Q465 0 440 0H69Q43 0 43 29V49Q43 66 45 75T56 95L342 432H84Q58 432 58 461V481Q58 510 84 510ZM118 755H145Q161 755 169 751T191 733L250 669L309 733Q322 747 330 751T355 755H382Q401 755 401 742Q401 735 396 728L319 612Q310 597 299 591T271 585H229Q210 585 200 591T181 612L104 728Q99 735 99 742Q99 755 118 755Z" horiz-adv-x="508" unicode="ž"/>
			<glyph d="M476 731Q505 731 526 725Q534 723 536 720T539 713Q539 709 538 705L528 663Q525 653 519 649T509 646Q499 646 488 649Q467 652 461 652Q422 652 398 624T362 534L340 418H435Q460 418 460 389V369Q460 340 435 340H325L244 -87Q233 -147 213 -186T153 -248T48 -271Q31 -271 20 -268Q11 -265 9 -262T7 -256Q7 -252 8 -248L18 -205Q22 -191 32 -191L52 -192Q91 -192 115 -164T151 -74L229 340H145Q119 340 119 369V389Q119 418 145 418H244L269 547Q286 636 332 683T476 731Z" horiz-adv-x="594" unicode="ƒ"/>
			<glyph d="M331 719H394Q406 719 413 712T426 692L701 27Q704 21 704 15Q704 0 685 0H623Q611 0 604 6T592 25L531 180H183L123 25Q114 0 92 0H38Q20 0 20 15Q20 21 24 29L296 692Q301 706 309 712T331 719ZM356 621L218 269H497L360 621ZM357 934Q380 934 397 917T414 877Q414 854 397 837T357 821Q334 821 317 837T301 877Q301 900 317 917T357 934Z" horiz-adv-x="724" unicode="Ȧ"/>
			<glyph d="M280 522Q382 522 446 458H450V481Q450 510 476 510H519Q543 510 543 481V29Q543 0 519 0H480Q454 0 454 29V74H451Q419 29 376 8T276 -12Q204 -12 152 25T74 125T48 261Q48 329 74 388T153 485T280 522ZM294 444Q247 444 213 417T163 347T147 257Q147 212 162 168T211 95T293 67Q364 67 407 119T450 254Q450 311 430 354T374 421T294 444ZM293 725Q316 725 333 708T350 668Q350 645 333 628T293 612Q270 612 253 628T237 668Q237 691 253 708T293 725Z" horiz-adv-x="623" unicode="ȧ"/>
			<glyph d="M394 731Q499 731 576 685T694 556T735 359Q735 246 694 162T576 33T394 -12Q289 -12 212 33T94 162T53 359Q53 472 94 556T212 685T394 731ZM394 638Q317 638 263 601T183 502T156 359Q156 279 183 216T263 117T394 81Q471 81 524 117T605 216T632 359Q632 439 605 502T524 601T394 638ZM391 934Q414 934 431 917T448 877Q448 854 431 837T391 821Q368 821 351 837T335 877Q335 900 351 917T391 934Z" horiz-adv-x="788" unicode="Ȯ"/>
			<glyph d="M313 522Q384 522 444 490T541 398T578 255Q578 173 541 112T444 19T313 -12Q242 -12 181 19T84 112T48 255Q48 337 84 398T181 490T313 522ZM313 443Q262 443 224 417T167 349T147 255Q147 204 167 161T224 92T313 67Q364 67 401 92T459 161T479 255Q479 306 459 349T401 417T313 443ZM311 725Q334 725 351 708T368 668Q368 645 351 628T311 612Q288 612 271 628T255 668Q255 691 271 708T311 725Z" horiz-adv-x="625" unicode="ȯ"/>
			<glyph d="M248 522Q375 522 446 449T517 248Q517 174 486 114T400 21T273 -12Q166 -12 105 54T45 242Q45 260 54 268T83 277H418Q417 325 394 363T331 422T244 444Q205 444 177 436T123 416Q103 407 97 407Q85 407 84 422L81 465Q80 477 85 482T104 493Q171 522 248 522ZM141 205Q143 144 178 106T275 69Q334 69 372 108T417 205Z" horiz-adv-x="565" unicode="ə"/>
			<glyph d="M210 719Q219 719 226 715T233 706Q233 696 229 684L100 342Q95 329 88 324T69 319Q62 319 59 322T56 332Q56 339 59 346L167 693Q171 707 180 713T210 719Z" unicode="ʹ"/>
			<glyph d="M170 719H245Q254 719 261 715T268 706Q268 695 263 684L111 342Q103 327 95 323T70 319H38Q28 319 22 323T16 332Q16 339 19 346L127 693Q133 707 142 713T170 719Z" unicode="ʺ"/>
			<glyph d="M122 755H164Q182 755 192 749T212 728L289 612Q294 605 294 598Q294 585 275 585H248Q232 585 223 589T202 607L143 671L84 607Q71 593 62 589T38 585H11Q-8 585 -8 598Q-8 605 -3 612L74 728Q83 743 93 749T122 755Z" unicode="ˆ"/>
			<glyph d="M11 755H38Q54 755 62 751T84 733L143 669L202 733Q215 747 223 751T248 755H275Q294 755 294 742Q294 735 289 728L212 612Q203 597 192 591T164 585H122Q103 585 93 591T74 612L-3 728Q-8 735 -8 742Q-8 755 11 755Z" unicode="ˇ"/>
			<glyph d="M17 724H41Q64 724 67 706Q81 656 143 656Q205 656 219 706Q222 724 245 724H269Q294 724 294 701Q294 668 275 639Q238 584 143 584Q48 584 11 639Q-8 668 -8 701Q-8 724 17 724Z" unicode="˘"/>
			<glyph d="M143 725Q166 725 183 708T200 668Q200 645 183 628T143 612Q120 612 103 628T87 668Q87 691 103 708T143 725Z" unicode="˙"/>
			<glyph d="M142 766Q186 766 215 736T245 663Q245 620 216 590T142 561Q98 561 69 590T40 663Q40 706 69 736T142 766ZM142 724Q116 724 99 706T82 663Q82 637 99 620T142 603Q168 603 185 620T203 663Q203 689 185 706T142 724Z" unicode="˚"/>
			<glyph d="M188 2H237Q201 -15 168 -51T136 -126Q136 -148 151 -163T194 -179Q215 -179 233 -172T255 -166Q260 -166 262 -169T267 -178L270 -187Q272 -193 272 -197Q272 -204 260 -209Q243 -216 222 -219T182 -223Q128 -223 95 -199T62 -132Q62 -102 81 -74T131 -25T188 2Z" unicode="˛"/>
			<glyph d="M266 724H293Q309 724 309 705Q309 661 283 632T212 603Q193 603 174 608T128 627Q97 643 81 643Q54 643 46 615Q42 600 21 600H-6Q-22 600 -22 619Q-22 664 4 692T75 721Q95 721 114 715T159 697Q191 681 206 681Q233 681 241 709Q245 724 266 724Z" unicode="˜"/>
			<glyph d="M78 755H138Q155 755 155 742Q155 733 144 720L40 608Q27 593 18 589T-6 585H-33Q-52 585 -52 598Q-52 605 -47 612L30 728Q39 742 49 748T78 755ZM264 755H324Q341 755 341 742Q341 733 330 720L226 608Q213 593 204 589T180 585H153Q134 585 134 598Q134 605 139 612L216 728Q225 742 235 748T264 755Z" horiz-adv-x="289" unicode="˝"/>
			<glyph d="M21 568H431Q451 568 451 545V506Q451 484 431 484H272V337H366Q385 337 385 314V276Q385 253 366 253H272V23Q272 0 252 0H200Q179 0 179 23V253H86Q66 253 66 276V314Q66 337 86 337H179V484H21Q0 484 0 506V545Q0 557 5 562T21 568ZM546 568H598Q618 568 618 545V337H882V545Q882 557 887 562T903 568H955Q975 568 975 545V23Q975 0 955 0H903Q892 0 887 5T882 23V253H618V23Q618 0 598 0H546Q535 0 530 5T525 23V545Q525 557 530 562T546 568Z" horiz-adv-x="1055" unicode="ᵺ"/>
			<glyph d="" horiz-adv-x="594" unicode=" "/>
			<glyph d="M81 297H541Q566 297 566 268V240Q566 211 541 211H81Q55 211 55 240V268Q55 297 81 297Z" horiz-adv-x="621" unicode="–"/>
			<glyph d="M81 297H1052Q1077 297 1077 268V240Q1077 211 1052 211H81Q55 211 55 240V268Q55 297 81 297Z" horiz-adv-x="1132" unicode="—"/>
			<glyph d="M186 719Q190 719 193 716T196 710Q196 704 190 696Q157 654 151 624Q177 622 194 603T212 557Q212 528 192 508T145 489Q118 489 97 508T76 568Q76 610 103 651T168 713Q180 719 186 719Z" unicode="‘"/>
			<glyph d="M144 719Q172 719 192 698T213 640Q213 597 186 556T121 495Q109 489 103 489Q99 489 96 491T93 498Q93 505 99 512Q132 554 138 584Q112 586 94 605T77 651Q77 680 96 699T144 719Z" unicode="’"/>
			<glyph d="M144 123Q172 123 192 102T213 44Q213 1 186 -39T121 -101Q109 -107 103 -107Q99 -107 96 -104T93 -98Q93 -92 99 -84Q132 -42 138 -12Q113 -10 95 9T77 55Q77 83 96 103T144 123Z" unicode="‚"/>
			<glyph d="M186 719Q190 719 193 716T196 710Q196 704 190 696Q157 654 151 624Q177 622 194 603T212 557Q212 528 192 508T145 489Q118 489 97 508T76 568Q76 610 103 651T168 713Q180 719 186 719ZM371 719Q375 719 378 716T381 710Q381 704 375 696Q342 654 336 624Q362 622 379 603T397 557Q397 528 377 508T330 489Q301 489 281 509T261 568Q261 610 287 651T353 713Q365 719 371 719Z" horiz-adv-x="486" unicode="“"/>
			<glyph d="M144 719Q172 719 192 698T213 640Q213 597 186 556T121 495Q109 489 103 489Q99 489 96 491T93 498Q93 505 99 512Q132 554 138 584Q112 586 94 605T77 651Q77 680 96 699T144 719ZM329 719Q356 719 377 699T398 640Q398 597 371 556T306 495Q294 489 288 489Q284 489 281 491T278 498Q278 505 284 512Q317 554 323 584Q297 586 279 605T262 651Q262 680 281 699T329 719Z" horiz-adv-x="486" unicode="”"/>
			<glyph d="M144 123Q172 123 192 103T213 44Q213 1 186 -39T121 -101Q109 -107 103 -107Q99 -107 96 -104T93 -98Q93 -92 99 -84Q132 -43 138 -12Q113 -10 95 9T77 55Q77 83 96 103T144 123ZM329 123Q357 123 377 102T398 44Q398 2 371 -39T306 -101Q294 -107 288 -107Q284 -107 281 -104T278 -98Q278 -92 284 -84Q318 -42 323 -12Q296 -9 279 9T262 55Q262 83 281 103T329 123Z" horiz-adv-x="471" unicode="„"/>
			<glyph d="M239 697H276Q301 697 301 668V522H458Q483 522 483 493V471Q483 442 458 442H301V29Q301 0 276 0H239Q213 0 213 29V442H56Q30 442 30 471V493Q30 522 56 522H213V668Q213 697 239 697Z" horiz-adv-x="513" unicode="†"/>
			<glyph d="M238 697H275Q300 697 300 668V522H457Q482 522 482 493V471Q482 442 457 442H300V255H456Q482 255 482 226V204Q482 175 456 175H300V29Q300 0 275 0H238Q212 0 212 29V175H55Q30 175 30 204V226Q30 255 55 255H212V442H56Q30 442 30 471V493Q30 522 56 522H212V668Q212 697 238 697Z" horiz-adv-x="512" unicode="‡"/>
			<glyph d="M257 523Q306 523 346 499T411 435T435 347Q435 299 411 259T346 196T257 173Q208 173 167 196T103 259T80 347Q80 395 103 435T167 499T257 523Z" horiz-adv-x="515" unicode="•"/>
			<glyph d="M144 123Q173 123 192 103T212 55Q212 27 192 7T144 -12Q116 -12 96 7T77 55Q77 84 96 103T144 123ZM487 123Q516 123 535 103T555 55Q555 27 535 7T487 -12Q459 -12 439 7T420 55Q420 84 439 103T487 123ZM830 123Q859 123 878 103T898 55Q898 27 878 7T830 -12Q802 -12 782 7T763 55Q763 84 782 103T830 123Z" horiz-adv-x="971" unicode="…"/>
			<glyph d="M1054 330Q1019 330 1001 294T984 195Q984 130 1001 93T1054 57Q1088 57 1105 93T1123 195Q1123 259 1105 294T1054 330ZM655 741H686Q703 741 703 728Q703 721 697 711L278 -5Q272 -15 264 -19T245 -23H214Q197 -23 197 -10Q197 -4 203 7L622 723Q628 733 635 737T655 741ZM214 731Q292 731 329 676T366 524Q366 430 330 374T214 318Q133 318 98 375T63 524Q63 618 100 674T214 731ZM214 661Q180 661 162 624T145 523Q145 459 163 423T214 388Q249 388 266 423T284 523Q284 588 266 624T214 661ZM686 400Q764 400 800 345T837 194Q837 99 801 43T686 -13Q607 -13 570 44T534 194Q534 287 571 343T686 400ZM686 330Q651 330 633 294T616 195Q616 130 633 93T686 57Q720 57 737 93T755 195Q755 259 737 294T686 330ZM1054 400Q1132 400 1168 345T1205 194Q1205 99 1169 43T1054 -13Q975 -13 938 44T902 194Q902 287 939 343T1054 400Z" horiz-adv-x="1268" unicode="‰"/>
			<glyph d="M257 471H289Q298 471 303 466T308 454Q308 445 295 427L178 269L295 111Q308 93 308 84Q308 76 303 71T289 67H257Q240 67 228 73T205 95L95 242Q85 257 85 269Q85 281 95 296L205 443Q217 459 228 465T257 471Z" horiz-adv-x="393" unicode="‹"/>
			<glyph d="M104 471H136Q153 471 164 465T188 443L298 296Q308 281 308 269Q308 257 298 242L188 95Q176 79 164 73T136 67H104Q95 67 90 71T85 84Q85 93 98 111L215 269L98 427Q85 445 85 454Q85 462 90 466T104 471Z" horiz-adv-x="393" unicode="›"/>
			<glyph d="M461 741H488Q505 741 505 728Q505 721 499 711L80 -5Q74 -15 66 -19T47 -23H20Q3 -23 3 -10Q3 -4 9 7L428 723Q434 733 441 737T461 741Z" horiz-adv-x="507" unicode="⁄"/>
			<glyph d="M85 719H118Q143 719 143 690L129 519H246V690Q246 719 271 719H308Q333 719 333 690V519H367Q392 519 392 490V474Q392 445 367 445H333V312Q333 283 308 283H271Q246 283 246 312V445H67Q42 445 42 474L60 690Q60 719 85 719Z" horiz-adv-x="408" unicode="⁴"/>
			<glyph d="M520 731Q588 731 649 710Q667 704 667 689Q667 684 654 630Q651 616 638 616Q633 616 615 622Q590 630 571 634T523 638Q396 638 321 560Q285 523 268 481H550Q574 481 574 460L568 423Q565 408 559 403T539 399H248Q246 386 246 359Q246 327 250 303H514Q538 303 538 282L536 268L532 245Q529 230 523 225T503 221H277Q298 183 326 157Q366 118 413 99T519 80Q578 80 624 96Q641 101 648 101Q664 101 665 81L667 30Q667 22 663 16T646 6Q617 -3 582 -7T519 -12Q348 -12 246 90Q189 148 164 221H68Q42 221 42 250V274Q42 303 68 303H146Q143 322 143 363Q143 387 144 399H68Q42 399 42 428V452Q42 481 68 481H159Q185 567 249 630Q354 731 520 731Z" horiz-adv-x="697" unicode="€"/>
			<glyph d="M71 719H362Q387 719 387 690V675Q387 646 362 646H255V319Q255 290 231 290H203Q177 290 177 319V646H71Q45 646 45 675V690Q45 719 71 719ZM485 719H555Q580 719 590 690L690 412L792 690Q802 719 827 719H893Q919 719 919 690V319Q919 290 893 290H867Q842 290 842 319V619L731 319Q721 290 695 290H682Q656 290 647 319L537 619V319Q537 290 512 290H485Q459 290 459 319V690Q459 719 485 719Z" horiz-adv-x="999" unicode="™"/>
			<glyph d="M73 389H528Q553 389 553 360V332Q553 303 528 303H73Q47 303 47 332V360Q47 389 73 389Z" horiz-adv-x="600" unicode="−"/>
			<glyph d="M577 633Q592 633 592 609V585Q592 562 586 554T558 537L188 378L558 219Q581 209 586 201T592 171V147Q592 123 577 123Q567 123 549 131L109 322Q86 332 80 339T75 368V393Q75 411 81 418T109 434L549 625Q567 633 577 633ZM101 86H567Q592 86 592 57V29Q592 0 567 0H101Q75 0 75 29V57Q75 86 101 86Z" horiz-adv-x="667" unicode="≤"/>
			<glyph d="M90 633Q100 633 118 625L558 434Q580 425 586 418T592 393V368Q592 347 586 339T558 322L118 131Q100 123 90 123Q75 123 75 147V171Q75 194 80 201T109 219L479 378L109 537Q86 547 80 554T75 585V609Q75 633 90 633ZM100 86H566Q592 86 592 57V29Q592 0 566 0H100Q75 0 75 29V57Q75 86 100 86Z" horiz-adv-x="667" unicode="≥"/>
			<glyph d="" horiz-adv-x="509" unicode="◊"/>
			<glyph d="M338 719H398Q407 719 411 715T416 705Q416 697 409 685L130 251H354V404Q354 433 380 433H428Q453 433 453 404V251H524Q549 251 549 222V189Q549 160 524 160H453V29Q453 0 428 0H380Q354 0 354 29V160H46Q33 160 27 165T21 186V222Q21 247 30 260L299 693Q307 707 315 713T338 719Z" horiz-adv-x="583" unicode=""/>
			<glyph d="M278 731Q349 731 399 705T487 638Q499 626 503 613T508 583V29Q508 0 483 0H435Q409 0 409 29V319H405Q377 292 343 279T263 266Q196 266 147 295T72 375T46 493Q46 558 71 612T149 698T278 731ZM282 647Q223 647 189 602T155 495Q155 436 187 393T276 351Q337 351 373 388T409 492Q409 559 376 603T282 647Z" horiz-adv-x="614" unicode=""/>
			<glyph d="M139 675H182Q206 675 206 646V510H318Q343 510 343 481V461Q343 432 318 432H206V185Q206 123 224 95T283 67Q298 67 315 70T337 73Q351 73 351 56V15Q351 6 348 2T335 -5Q312 -12 283 -12Q191 -12 152 31T113 173V432H36Q10 432 10 461V481Q10 510 36 510H113V646Q113 675 139 675Z" horiz-adv-x="371" unicode=""/>
			<glyph d="M104 774H147Q173 774 173 745V178Q173 78 240 78Q250 78 256 79T267 80Q276 80 280 76T284 61V20Q284 10 281 5T270 -1Q251 -7 225 -7Q140 -7 110 43T80 189V745Q80 774 104 774Z" horiz-adv-x="287" unicode=""/>
			<glyph d="M104 774H147Q173 774 173 745V431L224 460Q244 470 252 470Q267 470 267 445V430Q267 407 261 398T233 377L173 344V178Q173 78 240 78Q250 78 256 79T267 80Q276 80 280 76T284 61V20Q284 10 281 5T270 -1Q251 -7 225 -7Q140 -7 110 43T80 189V292L57 280Q40 270 29 270Q14 270 14 294V310Q14 332 19 340T48 362L80 380V745Q80 774 104 774Z" horiz-adv-x="304" unicode=""/>
			<glyph d="M294 786Q324 786 345 780Q354 778 357 774T361 765L359 718Q358 708 353 704T343 701Q333 701 322 704Q319 704 311 705T294 707Q254 707 235 679T217 589V510H331Q356 510 356 481V461Q356 432 331 432H217V29Q217 0 193 0H150Q124 0 124 29V432H29Q3 432 3 461V481Q3 510 29 510H125V602Q125 694 167 740T294 786ZM469 774H512Q538 774 538 745V178Q538 78 605 78Q615 78 621 79T632 80Q641 80 645 76T649 61V20Q649 10 646 5T635 -1Q616 -7 590 -7Q505 -7 475 43T445 189V745Q445 774 469 774Z" horiz-adv-x="652" unicode=""/>
			<glyph d="M130 719H178Q203 719 203 690V29Q203 0 178 0H130Q104 0 104 29V690Q104 719 130 719Z" horiz-adv-x="307" unicode=""/>
			<glyph d="M294 786Q324 786 345 780Q355 778 358 774T361 764L359 718Q358 708 353 704T343 701Q333 701 322 704Q319 704 311 705T294 707Q254 707 235 679T217 589V510H331Q356 510 356 481V461Q356 432 331 432H217V29Q217 0 193 0H150Q124 0 124 29V432H29Q3 432 3 461V481Q3 510 29 510H125V602Q125 694 167 740T294 786ZM491 759Q516 759 533 741T551 699Q551 674 533 657T491 640Q466 640 449 657T432 699Q432 724 449 741T491 759ZM471 510H514Q538 510 538 481V29Q538 0 514 0H471Q445 0 445 29V481Q445 510 471 510Z" horiz-adv-x="619" unicode="ﬁ"/>
			<glyph d="M294 786Q324 786 345 780Q355 778 358 774T361 764L359 718Q358 708 353 704T343 701Q333 701 322 704Q319 704 311 705T294 707Q254 707 235 679T217 589V510H331Q356 510 356 481V461Q356 432 331 432H217V29Q217 0 193 0H150Q124 0 124 29V432H29Q3 432 3 461V481Q3 510 29 510H125V602Q125 694 167 740T294 786ZM469 774H512Q538 774 538 745V29Q538 0 512 0H469Q445 0 445 29V745Q445 774 469 774Z" horiz-adv-x="618" unicode="ﬂ"/>
			<glyph d="M313 522Q384 522 444 490T541 398T578 255Q578 173 541 112T444 19T313 -12Q242 -12 181 19T84 112T48 255Q48 337 84 398T181 490T313 522ZM313 443Q262 443 224 417T167 349T147 255Q147 204 167 161T224 92T313 67Q364 67 401 92T459 161T479 255Q479 306 459 349T401 417T313 443ZM206 655H423Q446 655 446 626V608Q446 579 423 579H206Q180 579 180 606V628Q180 655 206 655ZM292 865H334Q352 865 362 859T382 838L459 722Q464 715 464 708Q464 695 445 695H418Q402 695 393 699T372 717L313 781L254 717Q241 703 232 699T208 695H181Q162 695 162 708Q162 715 167 722L244 838Q253 853 263 859T292 865Z" horiz-adv-x="625" unicode="󰀁"/>
			<glyph d="M626 546Q678 546 725 532T808 491Q868 522 938 522Q1009 522 1069 490T1166 398T1203 255Q1203 173 1166 112T1069 19T938 -12Q867 -12 806 19T709 112T673 255Q673 314 692 362T746 446Q698 478 626 478Q552 478 504 446Q539 411 558 362T578 255Q578 173 541 112T444 19T313 -12Q242 -12 181 19T84 112T48 255Q48 337 84 398T181 490T313 522Q382 522 442 491Q479 518 526 532T626 546ZM313 443Q262 443 224 417T167 349T147 255Q147 204 167 161T224 92T313 67Q364 67 401 92T459 161T479 255Q479 306 459 349T401 417T313 443ZM938 443Q887 443 849 417T792 349T772 255Q772 204 792 161T849 92T938 67Q989 67 1026 92T1084 161T1104 255Q1104 306 1084 349T1026 417T938 443Z" horiz-adv-x="1250" unicode="󰀂"/>
			<glyph d="M193 705H1060Q1084 705 1084 676V658Q1084 629 1060 629H193Q167 629 167 658V676Q167 705 193 705ZM626 546Q678 546 725 532T808 491Q868 522 938 522Q1009 522 1069 490T1166 398T1203 255Q1203 173 1166 112T1069 19T938 -12Q867 -12 806 19T709 112T673 255Q673 314 692 362T746 446Q698 478 626 478Q552 478 504 446Q539 411 558 362T578 255Q578 173 541 112T444 19T313 -12Q242 -12 181 19T84 112T48 255Q48 337 84 398T181 490T313 522Q382 522 442 491Q479 518 526 532T626 546ZM313 443Q262 443 224 417T167 349T147 255Q147 204 167 161T224 92T313 67Q364 67 401 92T459 161T479 255Q479 306 459 349T401 417T313 443ZM938 443Q887 443 849 417T792 349T772 255Q772 204 792 161T849 92T938 67Q989 67 1026 92T1084 161T1104 255Q1104 306 1084 349T1026 417T938 443Z" horiz-adv-x="1250" unicode="󰀃"/>
			<glyph d="M104 510H147Q173 510 173 481V340H446V481Q446 510 472 510H515Q539 510 539 481V340H582Q607 340 607 311V291Q607 262 582 262H539V29Q539 0 515 0H476Q450 0 450 29V81H443Q413 32 370 10T270 -12Q162 -12 121 50T80 205V262H38Q12 262 12 291V311Q12 340 38 340H80V481Q80 510 104 510ZM173 262V225Q173 152 199 109T288 67Q362 67 404 122T446 262Z" horiz-adv-x="619" unicode="󰀄"/>
			<glyph d="M751 759Q776 759 793 741T811 699Q811 674 793 657T751 640Q726 640 709 657T692 699Q692 724 709 741T751 759ZM313 522Q356 522 396 510H774Q798 510 798 481V29Q798 0 774 0H731Q705 0 705 29V432H517Q578 361 578 255Q578 173 541 112T444 19T313 -12Q242 -12 181 19T84 112T48 255Q48 337 84 398T181 490T313 522ZM313 443Q262 443 224 417T167 349T147 255Q147 204 167 161T224 92T313 67Q364 67 401 92T459 161T479 255Q479 306 459 349T401 417T313 443Z" horiz-adv-x="878" unicode="󰀅"/>
			<glyph d="M313 522Q356 522 396 510H772Q798 510 798 481V225Q798 152 824 109T913 67Q989 67 1030 126T1071 273V481Q1071 510 1097 510H1140Q1164 510 1164 481V29Q1164 0 1140 0H1101Q1075 0 1075 29V81H1068Q1038 32 995 10T895 -12Q787 -12 746 50T705 205V432H517Q578 361 578 255Q578 173 541 112T444 19T313 -12Q242 -12 181 19T84 112T48 255Q48 337 84 398T181 490T313 522ZM313 443Q262 443 224 417T167 349T147 255Q147 204 167 161T224 92T313 67Q364 67 401 92T459 161T479 255Q479 306 459 349T401 417T313 443Z" horiz-adv-x="1244" unicode="󰀆"/>
			<glyph d="M541 774H584Q608 774 608 745V438H611Q670 522 784 522Q881 522 927 466T974 305V29Q974 0 950 0H907Q881 0 881 29V297Q881 443 766 443Q693 443 650 386T608 245V29Q608 0 584 0H541Q515 0 515 29V63Q423 -12 320 -12Q234 -12 172 23T79 119T48 253Q48 328 80 389T172 486T313 522Q341 522 371 516T420 500Q434 492 434 478Q434 471 433 467L430 439Q429 422 414 422Q409 422 383 431T320 441Q267 441 228 415T168 346T147 255Q147 204 168 161T229 92T327 66Q377 66 422 87T515 150V745Q515 774 541 774Z" horiz-adv-x="1054" unicode="󰀇"/>
			<glyph d="M106 774H149Q173 774 173 745V296L377 492Q388 503 395 506T419 510H481Q490 510 495 506T500 497Q500 489 492 481L279 284L454 72L609 224V745Q609 774 635 774H678Q702 774 702 745V438H705Q764 522 878 522Q976 522 1022 465T1068 305V29Q1068 0 1044 0H1001Q975 0 975 29V297Q975 443 860 443Q786 443 744 386T702 245V29Q702 0 678 0H635Q609 0 609 29V116L509 17Q506 14 500 9T490 2Q484 0 479 0H420Q402 0 394 4T377 19L173 263V29Q173 0 149 0H106Q80 0 80 29V745Q80 774 106 774Z" horiz-adv-x="1148" unicode="󰀈"/>
			<glyph d="M510 774H553Q577 774 577 745V438H580Q639 522 753 522Q851 522 897 465T943 305V29Q943 0 919 0H876Q850 0 850 29V297Q850 443 735 443Q660 443 618 386T577 245V29Q577 0 553 0H510Q484 0 484 29V130Q422 65 348 26T194 -12Q163 -12 132 -5T77 12Q65 18 60 24T58 42L62 76Q64 88 68 93T83 99Q91 99 105 91Q126 81 146 75T194 69Q231 69 258 84T285 134Q285 164 262 182T178 228Q117 255 85 290T54 380Q54 449 102 485T228 522Q252 522 281 516T335 500Q346 495 350 491T355 480Q355 477 353 469L345 435Q343 426 339 422T327 419Q319 419 289 430T226 441Q190 441 169 426T148 387Q148 359 171 340T259 292Q324 261 352 228T380 139Q380 126 377 114Q429 150 484 219V745Q484 774 510 774Z" horiz-adv-x="1023" unicode="󰀉"/>
			<glyph d="M447 774H490Q514 774 514 745V438H517Q576 522 690 522Q788 522 834 465T880 305V29Q880 0 856 0H813Q787 0 787 29V297Q787 443 672 443Q597 443 555 386T514 245V29Q514 4 499 1Q466 -6 401 -9T295 -12Q194 -12 153 31T113 173V432H36Q10 432 10 461V481Q10 510 36 510H113V646Q113 675 139 675H182Q206 675 206 646V510H298Q323 510 323 481V461Q323 432 298 432H206V185Q206 122 227 94T298 67Q366 67 421 75V745Q421 774 447 774Z" horiz-adv-x="960" unicode="󰀊"/>
			<glyph d="M576 774H619Q638 774 638 756Q638 749 637 745L574 438H577Q617 481 659 501T758 522Q840 522 877 479T915 358Q915 315 904 265L856 29Q850 0 826 0H783Q762 0 762 18Q762 25 763 29L816 287Q823 320 823 348Q823 393 800 418T730 443Q681 443 639 413T570 334T531 230L490 29Q484 0 460 0H417Q396 0 396 18Q396 25 397 29L404 65Q366 27 322 7T222 -12Q150 -12 117 20T85 116Q85 150 94 192L143 432H66Q45 432 45 450Q45 457 46 461L50 481Q56 510 82 510H159L187 646Q193 675 219 675H262Q281 675 281 657Q281 650 280 646L252 510H364Q384 510 384 492Q384 485 383 481L379 461Q373 432 348 432H236L186 185Q180 154 180 132Q180 98 194 82T238 67Q292 67 333 93T428 178L544 745Q550 774 576 774Z" horiz-adv-x="989" unicode="󰀋"/>
			<glyph d="M584 774H627Q651 774 651 745V438H654Q713 522 827 522Q925 522 971 465T1017 305V29Q1017 0 993 0H950Q924 0 924 29V297Q924 443 809 443Q734 443 692 386T651 245V29Q651 0 627 0H69Q43 0 43 29V49Q43 66 45 75T56 95L342 432H84Q58 432 58 461V481Q58 510 84 510H428Q453 510 453 481V461Q453 447 450 437T438 417L152 78H558V745Q558 774 584 774Z" horiz-adv-x="1097" unicode="󰀌"/>
			<glyph d="M392 522Q473 522 511 479T549 358Q549 315 538 265L490 29Q484 0 460 0H417Q396 0 396 18Q396 25 397 29L450 287Q457 320 457 348Q457 393 434 418T364 443Q314 443 272 413T203 334T165 230L124 29Q118 0 92 0H49Q30 0 30 18Q30 25 31 29L123 481Q129 510 153 510H192Q213 510 213 492Q213 485 212 481L204 438H209Q249 481 293 501T392 522Z" horiz-adv-x="618" unicode="󰀍"/>
			<glyph d="M360 522Q389 522 409 517Q424 513 424 499Q424 493 423 490L416 454Q413 441 408 437T396 433Q390 433 376 435T344 438Q275 438 229 380T167 239L124 29Q118 0 92 0H49Q30 0 30 18Q30 25 31 29L123 481Q130 510 153 510H192Q214 510 214 492Q214 489 212 481L203 436H207Q241 481 277 501T360 522Z" horiz-adv-x="365" unicode="󰀎"/>
			<glyph d="M117 719H164Q189 719 189 690V311Q189 197 235 138T372 80Q463 80 510 138T557 311V690Q557 705 563 712T583 719H630Q644 719 650 712T656 690V298Q656 148 582 68T372 -12Q236 -12 163 68T90 298V690Q90 705 96 712T117 719ZM373 934Q396 934 413 917T430 877Q430 854 413 837T373 821Q350 821 333 837T317 877Q317 900 333 917T373 934Z" horiz-adv-x="746" unicode="󰀏"/>
			<glyph d="M104 510H147Q173 510 173 481V225Q173 152 199 109T288 67Q364 67 405 126T446 273V481Q446 510 472 510H515Q539 510 539 481V29Q539 0 515 0H476Q450 0 450 29V81H443Q413 32 370 10T270 -12Q172 -12 126 45T80 205V481Q80 510 104 510ZM302 725Q325 725 342 708T359 668Q359 645 342 628T302 612Q279 612 262 628T246 668Q246 691 262 708T302 725Z" horiz-adv-x="619" unicode="󰀐"/>
		</font>
</defs>
</svg>
