<?xml version="1.0" standalone="no"?>
<!DOCTYPE svg PUBLIC "-//W3C//DTD SVG 1.1//EN" "http://www.w3.org/Graphics/SVG/1.1/DTD/svg11.dtd" >
<svg xmlns="http://www.w3.org/2000/svg">
<metadata>Generated by IcoMoon</metadata>
<defs>
<font id="icomoon" horiz-adv-x="1024">
<font-face units-per-em="1024" ascent="960" descent="-64" />
<missing-glyph horiz-adv-x="1024" />
<glyph unicode="&#x20;" horiz-adv-x="512" d="" />
<glyph unicode="&#xe900;" glyph-name="addnote" d="M821.426 630.539q-6.678 17.809-20.035 33.391l-129.113 129.113q-13.357 11.13-28.939 17.809-17.809 8.904-37.843 8.904h-371.757q-15.583 0-28.939-11.13-11.13-11.13-11.13-28.939v-663.374q0-15.583 11.13-28.939 13.357-11.13 28.939-11.13h556.522q15.583 0 28.939 11.13 11.13 13.357 11.13 28.939v478.609q0 20.035-8.904 35.617zM770.226 617.183q2.226-4.452 4.452-8.904h-155.826v155.826q4.452-2.226 8.904-4.452 4.452 0 6.678-4.452l131.339-129.113q2.226-4.452 4.452-8.904zM776.904 554.852v-425.183h-529.809v636.661h318.33v-171.409q0-17.809 11.13-28.939t28.939-11.13h171.409zM378.435 405.704v-26.713q0-2.226 2.226-6.678 0-2.226 2.226-2.226 2.226-2.226 4.452-4.452 2.226 0 4.452 0h93.496v-95.722q0-2.226 0-4.452 2.226-2.226 2.226-4.452 2.226-2.226 4.452-2.226 2.226-2.226 6.678-2.226h26.713q2.226 0 4.452 2.226 2.226 0 4.452 2.226t2.226 4.452q2.226 2.226 2.226 4.452v93.496h93.496q6.678 0 8.904 4.452 4.452 4.452 4.452 8.904v28.939q0 4.452-4.452 8.904-2.226 4.452-8.904 4.452h-93.496l2.226 93.496q0 4.452-4.452 8.904t-8.904 4.452h-28.939q-6.678 0-8.904-4.452-4.452-4.452-4.452-8.904v-93.496h-93.496q-2.226 0-4.452-2.226-2.226 0-4.452-2.226t-2.226-4.452q-2.226-2.226-2.226-4.452z" />
<glyph unicode="&#xe901;" d="M511.972 948.821c-280.434 0-507.876-224.228-507.876-500.793 0-276.651 227.442-500.85 507.876-500.85 280.548 0 507.932 224.228 507.932 500.85-0.028 276.594-227.413 500.793-507.932 500.793z" />
<glyph unicode="&#xe902;" d="M580.006 646.311c0 6.341-2.631 12.143-7.926 17.437-5.295 4.217-11.097 6.341-17.437 6.341s-12.143-2.124-17.406-6.341l-129.988-129.988h-101.454c-7.387 0-13.221-2.663-17.437-7.926-5.263-4.217-7.926-10.050-7.926-17.437v-149.011c0-6.341 2.631-12.175 7.926-17.437 4.248-5.263 10.050-7.926 17.437-7.926h101.454l129.988-129.988c5.263-4.217 11.097-6.341 17.406-6.341 6.373 0 12.143 2.124 17.437 6.341 5.263 5.295 7.926 11.636 7.926 19.023v423.254zM668.779 525.834c-3.17 1.046-6.341 1.585-9.511 1.585-7.387 0-13.221-2.124-17.437-6.341-5.263-5.295-7.958-11.636-7.958-19.023 0-5.263 1.617-9.511 4.787-12.682 3.17-4.248 6.848-7.926 11.097-11.097 4.248-2.124 8.465-4.756 12.682-7.926 5.263-3.17 9.511-7.926 12.682-14.267 2.124-6.341 3.17-13.728 3.17-22.193 0-8.433-1.046-15.821-3.17-22.193-3.17-6.341-7.387-11.097-12.682-14.235-4.217-3.17-8.433-5.834-12.682-7.958-4.217-3.17-7.926-6.341-11.097-9.511-3.17-4.217-4.787-9.004-4.787-14.267 0-7.387 2.663-13.221 7.958-17.437 4.217-5.263 10.050-7.926 17.437-7.926 3.17 0 6.341 0.539 9.511 1.585 17.976 7.387 32.212 19.562 42.801 36.46 11.636 18.008 17.406 36.46 17.406 55.514 0 20.069-5.77 38.584-17.406 55.483-10.589 16.867-24.825 29.010-42.801 36.428z" />
<glyph unicode="&#xe903;" glyph-name="pause_1" d="M511.972 948.821c-280.434 0-507.876-224.228-507.876-500.793 0-276.651 227.442-500.85 507.876-500.85 280.548 0 507.932 224.228 507.932 500.85-0.028 276.594-227.413 500.793-507.932 500.793zM511.972-4.551c-253.44 0-458.894 202.61-458.894 452.608 0 249.884 205.454 452.523 458.894 452.523 253.497 0 458.98-202.638 458.98-452.523 0-249.998-205.511-452.608-458.98-452.608zM569.884 677.86c-10.553-10.581-15.9-23.239-15.9-38.030v-382.037c0-14.791 5.348-27.506 15.9-38.059 10.553-11.605 22.727-17.436 36.437-17.436h1.621c13.71 0 25.884 5.831 36.437 17.436 10.553 10.553 15.844 23.268 15.844 38.059v382.037c0 14.791-5.291 27.477-15.844 38.030s-22.727 15.844-36.437 15.844h-1.621c-13.71 0-25.884-5.262-36.437-15.844zM416.085 693.703c-13.739 0-25.884-5.291-36.466-15.844s-15.844-23.239-15.844-38.030v-382.037c0-14.791 5.291-27.506 15.844-38.059 10.581-11.605 22.727-17.436 36.466-17.436h1.593c13.739 0 25.884 5.831 36.466 17.436 10.581 10.553 15.844 23.268 15.844 38.059v382.037c0 14.791-5.262 27.477-15.844 38.030s-22.727 15.844-36.466 15.844h-1.593z" />
<glyph unicode="&#xe904;" d="M511.972 948.821c-280.434 0-507.876-224.228-507.876-500.793 0-276.651 227.442-500.85 507.876-500.85 280.548 0 507.932 224.228 507.932 500.85-0.028 276.594-227.413 500.793-507.932 500.793z" />
<glyph unicode="&#xe905;" d="M569.884 677.86c-10.553-10.581-15.9-23.239-15.9-38.030v-382.037c0-14.791 5.348-27.506 15.9-38.059 10.553-11.605 22.727-17.436 36.437-17.436h1.621c13.71 0 25.884 5.831 36.437 17.436 10.553 10.553 15.844 23.268 15.844 38.059v382.037c0 14.791-5.291 27.477-15.844 38.030s-22.727 15.844-36.437 15.844h-1.621c-13.71 0-25.884-5.262-36.437-15.844zM416.085 693.703c-13.739 0-25.884-5.291-36.466-15.844s-15.844-23.239-15.844-38.030v-382.037c0-14.791 5.291-27.506 15.844-38.059 10.581-11.605 22.727-17.436 36.466-17.436h1.593c13.739 0 25.884 5.831 36.466 17.436 10.581 10.553 15.844 23.268 15.844 38.059v382.037c0 14.791-5.262 27.477-15.844 38.030s-22.727 15.844-36.466 15.844h-1.593z" />
<glyph unicode="&#xe906;" glyph-name="replay_1" d="M511.972 948.821c-280.434 0-507.876-224.228-507.876-500.793 0-276.651 227.442-500.85 507.876-500.85 280.548 0 507.932 224.228 507.932 500.85-0.028 276.594-227.413 500.793-507.932 500.793zM511.972-4.551c-253.44 0-458.894 202.61-458.894 452.608 0 249.884 205.454 452.523 458.894 452.523 253.497 0 458.98-202.638 458.98-452.523 0-249.998-205.511-452.608-458.98-452.608zM264.505 653.483c0 8.448 4.21 14.82 12.686 19.029 8.448 4.21 15.872 2.645 22.187-4.75l42.866-41.244c23.239 21.163 49.692 37.547 79.303 49.18 28.587 12.686 58.738 19.029 90.453 19.029 33.82 0 65.593-6.884 95.204-20.622 30.692-12.686 57.116-30.151 79.332-52.366 23.239-21.163 41.244-47.076 53.931-77.739 12.686-30.692 19.029-62.948 19.029-96.796s-6.343-66.105-19.029-96.768c-12.686-29.639-30.692-55.552-53.931-77.767-22.215-22.187-48.64-39.68-79.332-52.338-29.611-12.686-61.383-19.058-95.204-19.058-35.982 0-70.855 7.424-104.732 22.215-32.768 15.872-60.814 38.087-84.082 66.645-3.157 2.105-4.75 4.21-4.75 6.372 0 3.157 1.593 5.291 4.75 6.343l44.43 44.43c2.133 2.105 4.238 3.186 6.372 3.186 4.21-1.081 6.855-2.133 7.908-3.186 15.9-20.082 35.442-35.982 58.709-47.588 21.134-11.662 44.942-17.465 71.396-17.465 22.215 0 43.89 4.238 65.052 12.686 19.029 9.529 35.954 21.703 50.773 36.494 15.844 14.82 27.506 32.284 34.901 52.366 9.529 20.082 14.279 41.244 14.279 63.46 0 23.268-4.75 44.43-14.279 63.46-7.396 20.11-19.058 38.087-34.901 53.931-14.82 13.767-31.744 25.401-50.773 34.93-21.163 8.448-42.837 12.658-65.052 12.658-43.378 0-80.924-14.82-112.64-44.43l44.43-42.837c6.372-7.396 7.424-15.36 3.157-23.808-2.105-7.396-7.396-11.093-15.872-11.093h-144.384c-6.343 0-11.605 1.593-15.872 4.75-4.21 4.238-6.343 8.988-6.343 14.279v144.412z" />
<glyph unicode="&#xe907;" d="M511.972 948.821c-280.434 0-507.876-224.228-507.876-500.793 0-276.651 227.442-500.85 507.876-500.85 280.548 0 507.932 224.228 507.932 500.85-0.028 276.594-227.413 500.793-507.932 500.793z" />
<glyph unicode="&#xe908;" glyph-name="bold" d="M634.435 655.026q-11.13 6.678-22.261 13.357-11.13 4.452-24.487 6.678-17.809 2.226-35.617 4.452-20.035 0-37.843 0-2.226 0-6.678 0-2.226 0-4.452 0h-184.765v-465.252h155.826q91.27 2.226 115.757 4.452 15.583 2.226 33.391 6.678 15.583 6.678 28.939 15.583 11.13 8.904 22.261 20.035 11.13 13.357 17.809 26.713t11.13 28.939q2.226 15.583 2.226 33.391v2.226q0 20.035-4.452 35.617-6.678 17.809-17.809 33.391-13.357 13.357-28.939 24.487t-35.617 15.583q28.939 13.357 46.748 40.070t17.809 62.33v2.226q0 13.357-4.452 26.713-2.226 13.357-11.13 24.487-6.678 11.13-15.583 20.035-6.678 11.13-17.809 17.809zM592.139 548.174q0-11.13-4.452-20.035-2.226-8.904-8.904-15.583-8.904-6.678-17.809-11.13t-20.035-4.452q-13.357-2.226-69.009-2.226h-60.104v109.078l53.426-2.226q66.783 0 80.139 0 11.13-2.226 20.035-6.678t15.583-11.13q4.452-6.678 8.904-15.583 2.226-6.678 2.226-15.583v-4.452zM503.096 419.061q17.809 0 33.391-2.226 17.809-2.226 33.391-6.678 8.904-2.226 15.583-6.678 8.904-6.678 13.357-13.357 6.678-6.678 8.904-15.583t2.226-17.809v-4.452q0-11.13-4.452-20.035-2.226-8.904-8.904-17.809-6.678-6.678-15.583-11.13t-17.809-6.678q-11.13-2.226-24.487-2.226-13.357-2.226-26.713-2.226-2.226 0-6.678 2.226-4.452 0-6.678 0h-86.817v124.661h73.461q4.452 0 8.904 0t8.904 0z" />
<glyph unicode="&#xe909;" glyph-name="bullets" d="M258.226 298.852v-2.226q-6.678-4.452-8.904-11.13-4.452-6.678-4.452-15.583 2.226-17.809 13.357-28.939t26.713-11.13q17.809 0 28.939 11.13 13.357 11.13 13.357 28.939t-13.357 28.939q-11.13 11.13-28.939 11.13-6.678 0-15.583-4.452-6.678-2.226-11.13-6.678zM313.878 414.609q13.357 13.357 13.357 31.165t-13.357 31.165q-13.357 11.13-31.165 11.13-6.678 0-15.583-2.226-6.678-2.226-13.357-8.904t-8.904-13.357q-4.452-8.904-4.452-17.809 0-17.809 13.357-31.165t28.939-13.357q17.809 0 31.165 13.357zM313.878 590.47q13.357 13.357 13.357 31.165t-13.357 31.165-31.165 13.357q-6.678 0-15.583-4.452-6.678-2.226-13.357-8.904t-8.904-13.357q-4.452-8.904-4.452-17.809 0-17.809 13.357-31.165t28.939-13.357q17.809 0 31.165 13.357zM783.583 416.835v57.878h-409.6v-57.878h409.6zM783.583 240.974v57.878h-409.6v-57.878h409.6zM783.583 592.696v57.878h-409.6v-57.878h409.6z" />
<glyph unicode="&#xe90a;" glyph-name="Camera_1" d="M243.81 716.19c0.244 80.833 65.911 146.286 146.301 146.286h195.015c80.65 0 146.058-65.568 146.301-146.286h145.858c81.028 0 146.714-65.457 146.714-146.449v-389.768c0-80.882-65.614-146.449-146.714-146.449h-730.572c-81.028 0-146.714 65.457-146.714 146.449v389.768c0 80.882 65.614 146.449 146.714 146.449h97.096zM487.619 179.81c134.652 0 243.81 109.157 243.81 243.81s-109.157 243.81-243.81 243.81c-134.652 0-243.81-109.157-243.81-243.81s109.157-243.81 243.81-243.81zM487.619 277.333c-80.791 0-146.286 65.494-146.286 146.286s65.494 146.286 146.286 146.286c80.791 0 146.286-65.494 146.286-146.286s-65.494-146.286-146.286-146.286z" />
<glyph unicode="&#xe90b;" glyph-name="Camera_2" d="M243.81 716.19c0 82.895 68.267 146.286 146.286 146.286h195.048c82.895 0 146.286-63.39 146.286-146.286h146.286c82.895 0 146.286-63.39 146.286-146.286v-390.095c0-82.895-63.39-146.286-146.286-146.286h-731.429c-82.895 0-146.286 63.39-146.286 146.286v390.095c0 82.895 63.39 146.286 146.286 146.286h97.524zM487.619 179.81c136.533 0 243.81 107.276 243.81 243.81s-107.276 243.81-243.81 243.81-243.81-107.276-243.81-243.81 107.276-243.81 243.81-243.81zM487.619 277.333c-82.895 0-146.286 63.39-146.286 146.286s63.39 146.286 146.286 146.286 146.286-63.39 146.286-146.286-63.39-146.286-146.286-146.286z" />
<glyph unicode="&#xe90c;" glyph-name="ClearAll_1" d="M539.708-27.385c6.597-7.917 25.069-4.288 55.417 10.885s54.097 28.698 71.25 40.573c39.583 27.708 83.785 59.375 132.604 95s91.042 81.146 126.667 136.562c72.569 113.472 85.764 210.781 39.583 291.927s-97.639 134.913-154.375 161.302c-67.292 30.347-133.594 49.479-198.906 57.396s-97.969 11.875-97.969 11.875l13.854 108.854c0 0 0.66 8.906 1.979 26.719s-0.66 30.017-5.938 36.615c-3.958 3.958-13.524 4.288-28.698 0.99s-28.038-6.927-38.594-10.885c-51.458-23.75-89.722-41.562-114.792-53.438s-77.187-38.264-156.354-79.167c-59.375-30.347-99.618-54.427-120.729-72.24s-30.347-37.934-27.708-60.365c1.319-9.236 12.535-24.74 33.646-46.51s65.313-53.767 132.604-95.99c68.611-44.861 131.285-83.125 188.021-114.792s87.083-48.16 91.042-49.479c15.833-5.278 24.080 2.639 24.74 23.75s0.99 31.667 0.99 31.667l-3.958 128.646c0 0 36.945-3.958 110.833-11.875s124.028-38.924 150.417-93.021c13.194-27.708 18.142-62.344 14.844-103.906s-29.358-96.649-78.177-165.26c-11.875-17.153-25.069-34.635-39.583-52.448s-27.049-31.997-37.604-42.552c-21.111-21.111-42.222-42.552-63.333-64.323s-28.368-37.274-21.771-46.51v0z" />
<glyph unicode="&#xe90d;" glyph-name="ClearAll_2" d="M540.444-29.867c5.689-5.689 22.756-5.689 56.889 11.378 28.444 17.067 56.889 28.444 73.956 39.822 39.822 28.444 85.333 56.889 130.844 96.711s91.022 79.644 125.156 136.533c73.956 113.778 85.333 210.489 39.822 290.133s-96.711 136.533-153.6 159.289c-68.267 28.444-130.844 51.2-199.111 56.889-68.267 11.378-102.4 17.067-102.4 17.067l11.378 108.089c0 0 0 11.378 0 28.444s0 28.444-5.689 34.133c-5.689 5.689-11.378 5.689-28.444 0-11.378 0-22.756-5.689-34.133-5.689-51.2-22.756-91.022-39.822-113.778-51.2-22.756-17.067-73.956-45.511-153.6-85.333-56.889-28.444-102.4-56.889-119.467-73.956-22.756-17.067-34.133-34.133-28.444-56.889 0-11.378 11.378-22.756 34.133-45.511s62.578-51.2 130.844-96.711c68.267-45.511 130.844-85.333 187.733-113.778 56.889-34.133 85.333-45.511 91.022-51.2 17.067-5.689 22.756 0 22.756 22.756s0 34.133 0 34.133v125.156c0 0 34.133-5.689 108.089-11.378s125.156-39.822 153.6-91.022c11.378-28.444 17.067-62.578 17.067-102.4-5.689-39.822-28.444-96.711-79.644-164.978-11.378-17.067-22.756-34.133-39.822-51.2s-28.444-34.133-39.822-39.822-39.822-39.822-62.578-62.578-28.444-45.511-22.756-56.889v0z" />
<glyph unicode="&#xe90e;" glyph-name="delete" d="M658.922 786.365q-4.452 8.904-11.13 17.809-6.678 6.678-15.583 13.357-8.904 4.452-17.809 8.904-11.13 4.452-22.261 4.452h-160.278q-11.13 0-20.035-4.452-11.13-4.452-20.035-8.904-8.904-6.678-15.583-13.357-4.452-8.904-8.904-17.809l-35.617-84.591h-155.826q-6.678 0-11.13-4.452t-4.452-11.13v-31.165q0-4.452 0-6.678 2.226-2.226 4.452-4.452t4.452-4.452 6.678-2.226h48.974v-478.609q0-17.809 6.678-35.617 4.452-17.809 15.583-31.165t24.487-22.261q13.357-6.678 31.165-6.678h418.504q17.809 0 31.165 8.904 15.583 6.678 24.487 20.035 11.13 13.357 15.583 33.391 6.678 17.809 6.678 35.617v476.383h48.974q4.452 0 6.678 2.226t4.452 4.452q2.226 0 4.452 4.452 0 2.226 0 4.452v33.391q0 6.678-4.452 11.13t-11.13 4.452h-153.6l-35.617 84.591zM667.826 570.435q4.452-4.452 4.452-11.13v-353.948q0-4.452-2.226-6.678 0-2.226-2.226-4.452t-4.452-2.226q-4.452-2.226-6.678-2.226h-33.391q-2.226 0-6.678 2.226-2.226 0-4.452 2.226t-2.226 4.452q-2.226 2.226-2.226 6.678v353.948q0 6.678 4.452 11.13t11.13 4.452h33.391q6.678 0 11.13-4.452zM425.183 759.652q0 2.226 2.226 4.452t4.452 2.226h160.278q2.226 0 4.452-2.226t4.452-4.452l24.487-57.878h-224.835l24.487 57.878zM367.304 574.887h33.391q6.678 0 11.13-4.452t4.452-11.13v-353.948q0-4.452 0-6.678-2.226-2.226-4.452-4.452t-4.452-2.226q-2.226-2.226-6.678-2.226h-33.391q-2.226 0-6.678 2.226-2.226 0-4.452 2.226t-2.226 4.452q-2.226 2.226-2.226 6.678v353.948q0 6.678 4.452 11.13t11.13 4.452zM538.713 568.209q2.226 0 4.452-2.226 0-4.452 0-6.678v-353.948q0-6.678-4.452-11.13t-11.13-4.452h-31.165q-4.452 0-6.678 2.226-2.226 0-4.452 2.226t-4.452 4.452q0 4.452 0 6.678v353.948q0 6.678 4.452 11.13t11.13 4.452h31.165q4.452 0 6.678-2.226t4.452-4.452z" />
<glyph unicode="&#xe910;" glyph-name="Eraser_1" d="M886.914 41.561v0c6.584 0 12.51-2.596 17.778-7.788s7.901-11.032 7.901-17.522c0-6.49-2.634-12.006-7.901-16.549s-11.193-6.814-17.778-6.814h-861.235c-6.584 0-12.51 2.271-17.778 6.814s-7.901 10.059-7.901 16.549c0 6.49 2.634 12.33 7.901 17.522s11.193 7.788 17.778 7.788h861.235zM1009.383 600.319l-290.37 286.193c-10.535 11.681-24.033 17.198-40.494 16.549s-30.617-6.814-42.469-18.495l-513.58-506.191c-5.267-5.192-9.547-11.357-12.839-18.495s-5.597-14.602-6.914-22.389c0-7.788 1.317-15.251 3.951-22.389s7.243-13.304 13.827-18.495l288.395-286.193c5.267-5.192 10.864-9.085 16.79-11.681s12.181-3.894 18.765-3.894c7.901 0 15.802 1.947 23.704 5.841s15.144 9.086 21.728 15.575l513.58 506.191c5.267 5.192 9.547 10.708 12.839 16.549s5.597 12.006 6.914 18.495c1.317 7.788 0.988 15.575-0.988 23.363s-6.255 14.277-12.84 19.469v0zM442.469 80.499l-256.79 251.149c-1.317 1.298-1.975 3.569-1.975 6.814s0.658 6.165 1.975 8.761l237.037 233.627 278.518-268.671-237.037-233.627c0 0-2.305-0.973-6.914-2.92s-9.547-0.324-14.815 4.867v0z" />
<glyph unicode="&#xe911;" glyph-name="Eraser_2" d="M887.467 44.089v0c5.689 0 11.378-5.689 17.067-11.378s5.689-11.378 5.689-17.067c0-5.689 0-11.378-5.689-17.067s-11.378-5.689-17.067-5.689h-859.022c-11.378 0-17.067 0-22.756 5.689s-5.689 11.378-5.689 17.067c0 5.689 0 11.378 11.378 22.756 5.689 5.689 11.378 5.689 17.067 5.689h859.022zM1006.933 601.6l-290.133 284.444c-5.689 11.378-22.756 17.067-39.822 17.067s-28.444-5.689-39.822-17.067l-512-506.311c-5.689-5.689-11.378-11.378-17.067-17.067 0-11.378-5.689-17.067-5.689-22.756s0-17.067 5.689-22.756c0-5.689 5.689-11.378 11.378-17.067l290.133-284.444c5.689-5.689 11.378-11.378 17.067-11.378s11.378-5.689 17.067-5.689c5.689 0 17.067 0 22.756 5.689s17.067 11.378 22.756 17.067l512 506.311c5.689 5.689 11.378 11.378 11.378 17.067 5.689 0 11.378 5.689 11.378 11.378s0 17.067 0 22.756c-5.689 11.378-5.689 17.067-17.067 22.756v0zM443.733 78.222l-256 256c0 0 0 5.689 0 5.689 0 5.689 0 5.689 0 11.378l238.933 233.244 278.756-267.378-238.933-233.244c0 0 0 0-5.689-5.689s-11.378-5.689-17.067 0v0z" />
<glyph unicode="&#xe912;" glyph-name="Info_1" d="M512 960c-282.624 0-512-229.376-512-512s229.376-512 512-512c282.624 0 512 229.376 512 512s-229.376 512-512 512zM563.2 192h-102.4v307.2h102.4v-307.2zM563.2 601.6h-102.4v102.4h102.4v-102.4z" />
<glyph unicode="&#xe913;" glyph-name="italics" d="M512 200.904l102.4 494.191h-102.4l-102.4-494.191h102.4z" />
<glyph unicode="&#xe914;" d="M264.505 653.483c0 8.448 4.21 14.82 12.686 19.029 8.448 4.21 15.872 2.645 22.187-4.75l42.866-41.244c23.239 21.163 49.692 37.547 79.303 49.18 28.587 12.686 58.738 19.029 90.453 19.029 33.82 0 65.593-6.884 95.204-20.622 30.692-12.686 57.116-30.151 79.332-52.366 23.239-21.163 41.244-47.076 53.931-77.739 12.686-30.692 19.029-62.948 19.029-96.796s-6.343-66.105-19.029-96.768c-12.686-29.639-30.692-55.552-53.931-77.767-22.215-22.187-48.64-39.68-79.332-52.338-29.611-12.686-61.383-19.058-95.204-19.058-35.982 0-70.855 7.424-104.732 22.215-32.768 15.872-60.814 38.087-84.082 66.645-3.157 2.105-4.75 4.21-4.75 6.372 0 3.157 1.593 5.291 4.75 6.343l44.43 44.43c2.133 2.105 4.238 3.186 6.372 3.186 4.21-1.081 6.855-2.133 7.908-3.186 15.9-20.082 35.442-35.982 58.709-47.588 21.134-11.662 44.942-17.465 71.396-17.465 22.215 0 43.89 4.238 65.052 12.686 19.029 9.529 35.954 21.703 50.773 36.494 15.844 14.82 27.506 32.284 34.901 52.366 9.529 20.082 14.279 41.244 14.279 63.46 0 23.268-4.75 44.43-14.279 63.46-7.396 20.11-19.058 38.087-34.901 53.931-14.82 13.767-31.744 25.401-50.773 34.93-21.163 8.448-42.837 12.658-65.052 12.658-43.378 0-80.924-14.82-112.64-44.43l44.43-42.837c6.372-7.396 7.424-15.36 3.157-23.808-2.105-7.396-7.396-11.093-15.872-11.093h-144.384c-6.343 0-11.605 1.593-15.872 4.75-4.21 4.238-6.343 8.988-6.343 14.279v144.412z" />
<glyph unicode="&#xe91b;" glyph-name="Pencil_1" d="M269.75 57.025l57 53.437-146.063 146.063-57-53.438v-67.687h78.375v-78.375h67.687zM597.5 634.15c0 4.75-1.781 8.313-5.344 10.687s-7.719 3.563-12.469 3.563c-2.375 0-4.156-0.594-5.344-1.781s-1.781-1.781-1.781-1.781l-338.437-338.437c-2.375 0-3.563-1.187-3.563-3.563v-7.125c0-4.75 1.187-8.313 3.563-10.687s4.75-3.563 7.125-3.563c2.375 0 4.75 0.594 7.125 1.781s3.563 1.781 3.563 1.781l338.437 338.437c2.375 0 4.156 1.187 5.344 3.563s1.781 4.75 1.781 7.125v0zM561.875 755.275l260.063-260.062-520.125-520.125h-256.5v260.063l516.562 520.125zM985.813 694.713c0-11.875-1.781-22.563-5.344-32.063s-8.906-17.813-16.031-24.937l-103.312-103.313-260.063 260.063 103.312 103.312c7.125 7.125 16.031 12.469 26.719 16.031s20.781 5.344 30.281 5.344c11.875 0 22.563-1.781 32.063-5.344s17.813-8.906 24.937-16.031l146.063-146.062c7.125-7.125 12.469-15.438 16.031-24.938s5.344-20.187 5.344-32.062v0z" />
<glyph unicode="&#xe91c;" glyph-name="Pencil_2" d="M271.36 58.88l56.32 51.2-148.48 148.48-56.32-51.2v-66.56h76.8v-76.8h71.68zM599.040 632.32c0 5.12 0 10.24-5.12 10.24s-10.24 5.12-10.24 5.12c0 0-5.12 0-5.12 0s0 0 0 0l-337.92-337.92c0 0-5.12 0-5.12-5.12v-10.24c0-5.12 0-10.24 5.12-10.24 0 0 5.12-5.12 5.12-5.12s5.12 0 5.12 0c0 0 5.12 0 5.12 0l332.8 343.040c0 0 5.12 0 5.12 5.12 5.12 0 5.12 5.12 5.12 5.12v0zM563.2 755.2l261.12-261.12-522.24-517.12h-256v261.12l517.12 517.12zM988.16 693.76c0-10.24 0-20.48-5.12-30.72s-10.24-15.36-15.36-25.6l-102.4-102.4-261.12 261.12 102.4 102.4c5.12 5.12 15.36 10.24 25.6 15.36s20.48 5.12 30.72 5.12c10.24 0 20.48 0 30.72-5.12s15.36-10.24 25.6-15.36l148.48-148.48c5.12-5.12 10.24-15.36 15.36-25.6s5.12-15.36 5.12-30.72v0z" />
<glyph unicode="&#xe91d;" glyph-name="Pencil-Minus_1" d="M0 579.657h1024v-263.314h-1024v263.314z" />
<glyph unicode="&#xe91e;" glyph-name="Pencil-Plus_1" d="M0 579.657h1024v-263.314h-1024v263.314zM643.657 960v-1024h-263.314v1024z" />
<glyph unicode="&#xe91f;" glyph-name="print" d="M923.826 194.226q4.452 4.452 4.452 11.13v209.252q0 40.070-28.939 66.783-26.713 28.939-66.783 28.939h-33.391v129.113q0 11.13-2.226 22.261t-6.678 22.261q-4.452 8.904-11.13 17.809-4.452 8.904-13.357 17.809l-75.687 77.913q-8.904 6.678-17.809 13.357-8.904 4.452-20.035 8.904-8.904 4.452-22.261 6.678-11.13 4.452-22.261 4.452h-336.139q-20.035 0-33.391-15.583-13.357-13.357-13.357-33.391v-271.583h-35.617q-17.809 0-35.617-8.904-17.809-6.678-28.939-20.035-13.357-11.13-22.261-28.939-6.678-17.809-6.678-35.617v-211.478q0-6.678 4.452-11.13t11.13-4.452h113.53v-80.139q0-20.035 13.357-33.391t33.391-13.357h480.835q20.035 0 33.391 13.357t13.357 33.391v80.139h113.53q6.678 0 11.13 4.452zM607.722 766.33v-80.139q0-20.035 13.357-33.391 15.583-15.583 33.391-15.583h82.365v-191.443h-449.67v320.557h320.557zM810.296 436.87q8.904 8.904 22.261 8.904 11.13 0 22.261-8.904 8.904-11.13 8.904-22.261 0-6.678-2.226-13.357-2.226-4.452-6.678-8.904t-11.13-6.678q-4.452-4.452-11.13-4.452-13.357 0-22.261 11.13-8.904 8.904-8.904 22.261 0 11.13 8.904 22.261zM287.165 125.217v129.113h449.67v-129.113h-449.67z" />
<glyph unicode="&#xe920;" d="M859.27 532.591l-31.165-26.713q13.357 0 22.261 6.678 8.904 8.904 8.904 20.035z" />
<glyph unicode="&#xe921;" d="M859.27 735.165q0 17.809-17.809 26.713t-31.165-6.678l-60.104-57.878q-48.974 44.522-111.304 69.009-60.104 26.713-126.887 26.713-71.235 0-133.565-28.939-64.557-26.713-111.304-73.461-48.974-44.522-75.687-109.078t-26.713-135.791 26.713-135.791q26.713-62.33 75.687-109.078 46.748-46.748 111.304-73.461 62.33-26.713 133.565-26.713 75.687 0 146.922 31.165 69.009 33.391 117.983 93.496 6.678 4.452 6.678 8.904 0 6.678-6.678 8.904l-62.33 62.33q-4.452 4.452-8.904 4.452-8.904-2.226-11.13-4.452-33.391-42.296-82.365-66.783-44.522-24.487-100.174-24.487-46.748 0-91.27 17.809-40.070 20.035-71.235 51.2-33.391 31.165-48.974 73.461-20.035 42.296-20.035 89.043 0 48.974 20.035 89.043 15.583 42.296 48.974 75.687 31.165 28.939 71.235 48.974 44.522 17.809 91.27 17.809 91.27 0 158.052-62.33l-62.33-60.104q-13.357-15.583-4.452-33.391 4.452-15.583 22.261-15.583h202.574l31.165 26.713v202.574z" />
<glyph unicode="&#xe929;" glyph-name="Save_1" d="M796.444 960h-682.667c-63.147 0-113.778-51.2-113.778-113.778v-796.444c0-62.578 50.631-113.778 113.778-113.778h796.444c62.578 0 113.778 51.2 113.778 113.778v682.667l-227.556 227.556zM512 49.778c-94.436 0-170.667 76.231-170.667 170.667s76.231 170.667 170.667 170.667c94.436 0 170.667-76.231 170.667-170.667s-76.231-170.667-170.667-170.667zM682.667 618.667h-568.889v227.556h568.889v-227.556z" />
<glyph unicode="&#xe92a;" glyph-name="Select_1" d="M811 440.6l-598 508.857v-789.286l206.143 193.143 178.286-373.286 130 61.286-180.143 373.286z" />
<glyph unicode="&#xe92b;" glyph-name="Select_2" d="M809.448 438.248l-594.895 512v-789.943l204.8 195.048 180.419-375.467 126.781 63.39-180.419 370.59z" />
<glyph unicode="&#xe92c;" glyph-name="text_size" d="M198.122 528.139v-97.948h97.948v-231.513h100.174v231.513h100.174v97.948h-298.296zM661.148 597.148h164.73v97.948h-429.635v-100.174h164.73v-396.243h100.174v398.47z" />
<glyph unicode="&#xe92d;" glyph-name="underline" d="M256 192v-71.235h512v71.235h-512zM730.157 481.391v293.843h-91.27v-293.843q0-26.713-11.13-48.974-8.904-22.261-26.713-37.843-15.583-17.809-40.070-26.713-22.261-11.13-48.974-11.13h-2.226q-51.2 0-89.043 37.843-35.617 35.617-35.617 86.817v293.843h-93.496v-291.617q0-44.522 17.809-84.591t46.748-71.235q28.939-28.939 69.009-46.748 40.070-15.583 86.817-15.583h2.226q44.522 0 82.365 15.583 40.070 17.809 69.009 46.748 28.939 31.165 46.748 69.009 17.809 40.070 17.809 84.591z" />
<glyph unicode="&#xe92e;" glyph-name="audio_11" d="M580.006 646.311c0 6.341-2.631 12.143-7.926 17.437-5.295 4.217-11.097 6.341-17.437 6.341s-12.143-2.124-17.406-6.341l-129.988-129.988h-101.454c-7.387 0-13.221-2.663-17.437-7.926-5.263-4.217-7.926-10.050-7.926-17.437v-149.011c0-6.341 2.631-12.175 7.926-17.437 4.248-5.263 10.050-7.926 17.437-7.926h101.454l129.988-129.988c5.263-4.217 11.097-6.341 17.406-6.341 6.373 0 12.143 2.124 17.437 6.341 5.263 5.295 7.926 11.636 7.926 19.023v423.254zM668.779 525.834c-3.17 1.046-6.341 1.585-9.511 1.585-7.387 0-13.221-2.124-17.437-6.341-5.263-5.295-7.958-11.636-7.958-19.023 0-5.263 1.617-9.511 4.787-12.682 3.17-4.248 6.848-7.926 11.097-11.097 4.248-2.124 8.465-4.756 12.682-7.926 5.263-3.17 9.511-7.926 12.682-14.267 2.124-6.341 3.17-13.728 3.17-22.193 0-8.433-1.046-15.821-3.17-22.193-3.17-6.341-7.387-11.097-12.682-14.235-4.217-3.17-8.433-5.834-12.682-7.958-4.217-3.17-7.926-6.341-11.097-9.511-3.17-4.217-4.787-9.004-4.787-14.267 0-7.387 2.663-13.221 7.958-17.437 4.217-5.263 10.050-7.926 17.437-7.926 3.17 0 6.341 0.539 9.511 1.585 17.976 7.387 32.212 19.562 42.801 36.46 11.636 18.008 17.406 36.46 17.406 55.514 0 20.069-5.77 38.584-17.406 55.483-10.589 16.867-24.825 29.010-42.801 36.428zM511.972 948.821c-280.434 0-507.876-224.228-507.876-500.793 0-276.651 227.442-500.85 507.876-500.85 280.548 0 507.932 224.228 507.932 500.85-0.028 276.594-227.413 500.793-507.932 500.793zM511.972-4.551c-253.44 0-458.894 202.61-458.894 452.608 0 249.884 205.454 452.523 458.894 452.523 253.497 0 458.98-202.638 458.98-452.523 0-249.998-205.511-452.608-458.98-452.608z" />
</font>
</defs>
</svg>
